<mxfile host="app.diagrams.net" modified="2023-12-01T11:24:44.809Z" agent="Mozilla/5.0 (Windows NT 10.0; Win64; x64) AppleWebKit/537.36 (KHTML, like Gecko) Chrome/119.0.0.0 Safari/537.36" etag="bfgong_qDtFri0PeMXNO" version="22.1.5" type="github">
  <diagram name="Page-1" id="TTES_zHIQ2x3lwadwwgg">
    <mxGraphModel dx="4496" dy="1551" grid="1" gridSize="10" guides="1" tooltips="1" connect="1" arrows="1" fold="1" page="1" pageScale="1" pageWidth="850" pageHeight="1100" math="0" shadow="0">
      <root>
        <mxCell id="0" />
        <mxCell id="1" parent="0" />
        <mxCell id="0KlZF_PJluWAOu0bYEhu-1" value="" style="shape=image;verticalLabelPosition=bottom;labelBackgroundColor=default;verticalAlign=top;aspect=fixed;imageAspect=0;image=data:image/png,iVBORw0KGgoAAAANSUhEUgAADGEAAAakCAYAAADu6edZAACAAElEQVR42uzdb4gk530n8Hmx7/TukCEvjpxeBI7g7LLSxtrp/TPTI3l7p2etP2scslZiHVwgJrHYy50hLwyKz/jFEQ6MsB0w4vRCHDIXcg7kjry4+MUZ/A98HFh2TDBxMNzBSvjMSg7JKmgX9ubX7mf8bKm6p6qnu6uq6/OBYndn+k/VdD219Zv6fevZug8AACzVFgAAAAAAAAAAAJtJixwAAAhhAAAAAAAAAAAAUIEWOQAAEMIAAAAAAAAAAACgAi1yAAAghAEAAAAAAAAAAEAFWuQAAEAIAwAAAAAAAAAAgAq0yAEAgBAGAAAAAAAAAAAAFWiRAwAAIQwAAAAAAAAAAAAq0CIHAABCGAAAAAAAAAAAAFSgRQ4AAIQwAAAAAAAAAAAAqECLHAAACGEAAAAAAAAAAABQgRY5AAAQwgAAAAAAAAAAAKACLXIAACCEAQAAAAAAAAAAQAVa5AAAQAgDAAAAAAAAAACACrTIAQCAEAYAAAAAAAAAAAAVaJEDAAAhDAAAAAAAAAAAACrQIgcAAEIYAAAAAAAAAAAAVKBFDgAAhDAAAAAAAAAAAACoQIscAAAIYQAAAAAAAAAAAFCBFjkAABDCAAAAAAAAAAAAoAItcgAAIIQBAAAAAAAAAABABVrkAABACAMAAAAAAAAAAIAKtMgBAIAQBgAAAAAAAAAAABVokQMAACEMAAAAAAAAAAAAKtAiBwAAQhgAAAAAAAAAAABUoEUOAACEMAAAAAAAAAAAAKhAixwAAAhhAAAAAAAAAAAAUIEWOQAAEMIAAAAAAAAAAACgAi1yAAAghAEAAAAAAAAAAEAFWuQAAEAIAwAAAAAAAAAAgAq0yAEAgBAGAAAAAAAAAAAAFWiRAwAAIQwAAAAAAAAAAAAq0CIHAABCGAAAAAAAAAAAAFSgRQ4AAIQwAAAAAAAAAAAAqECLHAAACGEAAAAAAAAAAABQgRY5AAAQwgAAAAAAAAAAAKACLXIAACCEAQAAAAAAAAAAQAVa5AAAQAgDAAAAAAAAAACACrTIAQCAEAYAAAAAAAAAAAAVaJEDAAAhDAAAAAAAAAAAACrQIgcAAEIYfXHmzOih7Yuj8eM7B8+1aRnsXP3Cr++M/3Xb1stisVgsFovFYrFYLBaLxWKxWCwWi8VisVgsFovFYlnlcnZ7/xEhDAAAEMKgbYbDUztXnv7iheHB/fGzN979o8/+8f02LbFeF4bjr5/fPfiyxWKxWCwWi8VisVgsFovFYrFYLBaLxWKxWCwWi8XSh2V7ePDVn/fNHNyPf0ePjxAGAAAIYdCCAMZw9PTXrl2/cfdHf/fjVu4zUUhuX75y0YcFAAAAAAAAAECvDIenBjujCxHIiKUTQQwtcgAAIISxyZ7Yv/6VT/zBH/7T7bfebu0+I4QBAAAAAAAAAECfnTs3fHgwHN8a7Ixfav3KapEDAAAhjE0WAYfXv/+DVu8zQhgAAAAAAAAAAPTdYHBwOvpozpwZPdTqFdUiBwAAQhib6uz2/iNRmN29d08IAwAAAAAAAAAAWi5mw9i+OBq3eiW1yAEAgBDGpnp85+C5m5/8VOv3GSEMAAAAAAAAAADY2jq/e/DlweXxC61eSS1yAAAghLGpIoTxR5/9YyEMAAAAAAAAAADogAhgRBCj1SupRQ4AAIQwNpUQBgAAAAAAAAAAdEf0+whhAACAEAYNFmVCGAAAAAAAAAAA0A1CGAAAIIRBw0WZEAYAAAAAAAAAAHSDEAYAAAhh0HBRJoQBAAAAAAAAAADdIIQBAABCGDRclAlhAAAAAAAAAABANwhhAACAEAYNF2VCGAAAAAAAAAAA0A1CGAAAIIRBw0WZEAYAAAAAAAAAAHSDEAYAAAhh0HBRJoQBAAAAAAAAAADdIIQBAABCGDRclAlhAAAAAAAAAABANwhhAACAEAYNF2VCGAAAAAAAAAAA0A1CGAAAIIRBw0WZEAYAAAAAAAAAAHSDEAYAAAhh0HBRJoQBAAAAAAAAAADdIIQBAABCGDRclAlhAAAAAAAAAABANwhhAACAEAYNF2VCGAAAAAAAAAAA0A1CGAAAIIRBw0WZEAYAAAAAAAAAAHSDEAYAAAhh0HBRJoQBAAAAAAAAAADdIIQBAABCGDRclAlhAAAAAAAAAABANwhhAACAEAYNF2VCGAAAAAAAAAAA0A1CGAAAIIRBw0WZEAYAAAAAAAAAAHSDEAYAAAhh0HBRJoQBAAAAAAAAAADdIIQBAABCGDRclAlhAAAAAAAAAABANwhhAACAEAYNF2VCGAAAAAAAAAAA0A1CGAAAIIRBw0WZEAYAAAAAAAAAAHSDEAYAAAhh0HBRJoQBAAAAAAAAAADdIIQBAABCGDRclAlhAAAAAAAAAABANwhhAACAEAYNF2VCGAAAAAAAAAAA0A1CGAAAIIRBw0WZEAYAAAAAAAAAAHSDEAYAAAhh0HBRJoQBAAAAAAAAAADdIIQBAABCGDRclAlhAAAAAAAAAABANwhhAACAEAYNF2VCGAAAAAAAAAAA0A1CGAAAIIRBw0WZEAYAAAAAAAAAAHSDEAYAAAhh0HBRJoQBAAAAAAAAAADdIIQBAABCGDRclAlhAAAAAAAAAABANwhhAACAEAYNF2VCGAAAAAAAAAAA0A1CGAAAIIRBw0WZEAYAAAAAAAAAAHSDEAYAAAhh0HBRJoQBAAAAAAAAAADdIIQBAABCGDRclAlhAAAAAAAAAABANwhhAACAEAYNF2VCGAAAAAAAAAAA0A1CGAAAIIRBw0WZEAYAAAAAAAAAAHSDEAYAAAhh0HBRJoQBAAAAAAAAAADdIIQBAABCGDRclAlhAAAAAAAAAABANwhhAACAEAYNF2VCGAAAAAAAAAAA0A1CGAAAIIRBw0WZEAYAAAAAAAAAAHSDEAYAAAhh0HBRJoQBAAAAAAAAAADdIIQBAABCGDRclAlhAAAAAAAAAABANwhhAACAEAYNF2VCGAAAAAAAAAAA0A1CGAAAIIRBw0WZEAYAAAAAAAAAAHSDEAYAAAhh0HBRJoQBAAAAAAAAAADdIIQBAABCGDRclAlhAAAAAAAAAABANwhhAACAEAYNF2VCGAAAAAAAAAAA0A1CGAAAIIRBw0WZEAYAAAAAAAAAAHSDEAYAAAhh0HBRJoQBAAAAAAAAAADdIIQBAABCGDRclAlhAAAAAAAAAABANwhhAACAEAYNF2VCGAAAAAAAAAAA0A1CGAAAIIRBw0WZEAYAAAAAAAAAAHSDEAYAAAhh0HBRJoQBAAAAAAAAAADdIIQBAABCGDRclAlhAAAAAAAAAABANwhhAACAEAYNF2VCGAAAAAAAAAAA0A1CGAAAIIRBw0WZEAYAAAAAAAAAAHSDEAYAAAhh0HBRJoQBAAAAAAAAAADdIIQBAABCGDRclAlhAAAAAAAAAABANwhhAACAEAYNF2VCGAAAAAAAAAAA0A1CGAAAIIRBw0WZEAYAAAAAAAAAAHSDEAYAAAhh0HBRJoQBAAAAAAAAAADdIIQBAABCGDRclAlhAAAAAAAAAABANwhhAACAEAYNF2VCGAAAAAAAAAAA0A1CGAAAIIRBw0WZEAYAAAAAAAAAAHSDEAYAAAhh0HBRJoQBAAAAAAAAAADdIIQBAABCGDRclAlhAAAAAAAAAABANwhhAACAEAYNF2VCGAAAAAAAAAAA0A1CGAAAIIRBw0WZEAYAAAAAAAAAAHSDEAYAAAhh0HBRJoQBAAAAAAAAAADdIIQBAABCGDRclAlhAF105szooe2Lo3EcxyyWZS9nt/cfMcqMX4vxCwAA6iOL+ggAAGgjIQwAABDCoOGiTAgD6JTh8NTOlae/GMeF8bM33o1jmMWyzOXmJz81+X8nlif2r38l9jkDz/i1GL8AAKA+sqiPAACAthDCAAAAIQwaLsqEMIDOGA5PDUdPf+3a9Rt3f/R3P/YfKitz9969+69//wf3P/EHf/hPsc9pVDB+MX4BAEB9hPoIAABoCyEMAADoIaVQu4oyIQygK+KufXHR+PZbb/vPlLWIfS2aYj547SMvG4HGL8YvAACoj1AfAQAAbSCEAQAAPaQUaldRJoQBdEUcC+LufbBOcVfS2PfOnBk9ZBQavxi/AACgPkJ9BAAANE0IAwAAekgp1K6iTAgD6IKz2/uPxLHg7r17/iNl7cbP3nh3++JobCQavxi/AACgPkJ9BAAANE0IAwAAekgp1K6iTAgD6Mrx6uYnP+U/URoR/1de2nvqppFo/GL8AgCA+gj1EQAA0Ib6UggDAAB6RinUrqJMCANwvIL5/uzP/9v9Kx/6jb8wEo1fjF8AAFAfoT4CAADaUF8KYQAAQM8ohVz0q0sIA9CkQJP+x1f/pyYF4xfjFwAA1EeojwAAgNbUl0IYAADQM0ohF/3qEsIANCmgScH4BeMXAAD1EaiPAAAAIQwAAOglpZCLfnUJYQCaFNCkYPyC8QsAgPoI1EcAAIAQBgAA9JJSyEW/uoQwAE0KaFIwfsH4BQBAfQTqIwAAQAgDAAB6SSnkol9dQhiAJgU0KRi/YPwCAKA+AvURAAAghAEAAL2kFHLRry4hDECTApoUjF8wfgEAUB+B+ggAABDCAACAXlIKuehXlxAGoEkBTQrGLxi/AACoj0B9BAAACGEAAEAvKYVc9KtLCAPQpIAmBeMXjF8AANRHoD4CAACEMAAAoJeUQi761SWEAWhSQJOC8QvGLwAA6iNQHwEAAEIYAADQS0ohF/3qEsIANCmgScH4BeMXAAD1EaiPAAAAIQwAAOglpZCLfnUJYQCaFNCkYPyC8QsAgPoI1EcAAIAQBgAA9JJSyEW/uoQwAE0KaFIwfsH4BQBAfQTqIwAAQAgDAAB6SSnkol9dQhgs6syZ0UNnt/cf2b44Gsf+Hsvg8viFWNK/43vxmHisn5jjFWhSMH4xfumZ4fDUYO/qi/GnHwYAoD5CfQQAAHSlvhTCAACAnlEKuehXlxAGVUWQIkIVH7z2kZd3rzxzO/adWJ57/uP3Yl8vW+J76XHxnHhuvIZQhuMVaFIwfjF+2XDD4anh6OmvxXng+Jkb/0sQAwBQH6E+AgAAulJfCmEAAEDPKIVc9KtLCIO54u7FO6MLT46vfz32lWvXb9x95dXX7r/+/R/cv/3W25X3s3hsPCeeG68RrxWvGa+tIc/xCk0KmhSMX4xfNu8cMgIYn/iDP/ynO3feuX/zk58SxAAA1EeojwAAgM7Ul0IYAADQM0ohF/3qEsJglpixYvfK0z8dP3vj3QhP3HrjzaXtd/Fa8Zrx2vEe8V5+4o5XaFLA+MX4ZQNkAYy79+5N9pX4UxADAFAfoT4CAAC6Ul8KYQAAQM8ohVz0q0sIg6KYnWLv6jM/jH0jLh6m5rlViNeO94j3iveczIyB4xWaFDB+MX7pppIARn7eJ4gBAKiPUB8BAABdqC+FMAAAoGeUQi761SWEQXLu3PDhuFAY+0TMUnHnzjtr2w/jveI9471jHWJdfCKOV2hSwPjF+KVD5gQwEkEMAEB9hPoIAADoQn0phAEAAD2jFHLRry4hDELMQPHE+PrPYp+9/dbbje2P8d6xDrEuZsVwvEKTAsYvxi8dUSGAkQhiAADqI9RHAABA2+tLIQwAAOgZpZCLfnUJYXBp76mbafaLtkizYsS6+YQcr9CkgPGL8UuL1QhgJIIY8N5xZCwAqI9QHwEAAO2pL4UwAACgZ5RCLvrVJYTRY8PhqZ0rT38x9oHXv/+D1u2bsU6xbrGOGpIcr9CkgPGL8Us7zyfrBjASQQz65ty54cPbF0fj4ejZz8axc/fKM7ej3ilb4nvxmHhsPCee6ycIoD5CfQQAAKyvvhTCAACAnlEKuehXlxBGT00b5q5dv3H31htvtnb/jHWLdYx11ZzneIUmBYxfjF/adz65SAAjEcRg0w0GB6cjSJECF889//F7n/v8lybHzwidR71TtsT34jHx2HhOCmbEa8Vr+skCqI9QHwEAAKutL4UwAACgZ5RCLvrVJYTRTzG7RIQbbr/1duv30VjHWNfJjBj0+niFJgWMX4xfWmIJAYxEEINNHB/x//OT4+s/ino7/p/+5re/c//OnXcWHifx3HiNeK14zXjteA9jBkB9hPoIAABYTX0phAEAAD2jFHLRry4hjP65tPfUzfjc2zwDRlGsa6xzrLtPsL/HKzQpYPxi/NICSwxgJIIYbIrBzuhCBCTGz954N46RJwlezBKvGa8d7xHvFe/pJw+gPkJ9BAAALLe+FMIAAICeUQq56FeXEEa/RINOfOavf/8HnTu+xTrHumsy6u/xCk0KGL8YvzRsBQGMRBCDLju7vf/I7uipv4l65ZVXX7u/7PExa8zEe8V7xnvHOvgkAPWR+gj1EQAAsJz6UggDAAB6Rinkol9dQhj9ce7c8OEnxtd/Fo06XRXrHtsQ2+IT7d/xCk0KGL8YvzRohQGMRBCDbo6LZz8bdfXnPv+llcx8cZx4z3jvWIdYF2MHUB+pj1AfAQAAJ68vhTAAAKBnlEIu+tUlhNEfcRFwEy5Exza4oNnP4xWaFDB+MX5pyBoCGIkgBl1x5szooRgX167fuHvrjTcbPybHOsS6xDrFuvmEAPURqI8AAIDF60shDAAA6BmlkIt+dQlh9MNgZ3QhPuvbb73d+eNcbENsS2yTT7Zfxys0KWD8YvzSgDUGMBJBDNouZubbvfL0T2M/bVONFesS6xTrZvZAQH0E6iMAAGDx+lIIAwAAekYp5KJfXUIY/bB39ZkfvvLqaxtzrIttiW3yyfbreIUmBYxfjF/WrIEARiKIQVulgHv8/7vucVF17MS6Ca4D6iNQHwEAAIvXl0IYAADQM0ohF/3qEsLYfNsXR+P4nO/ceWdjjnWxLZN993DbfML9OV6hSQHjF+OXNWowgJEIYtA2g8HB6ahDuhBwj3WcBDEO19knB6iPQH0EAADUqy+FMAAAoGeUQi761SWEseGGw1O7V57+aVwE3MQLm7FtGvL6c7xCkwLGL8Yv6zuHbDqAkQhi0Bbnzg0f3r3yzO0uzTAY6xrrHOvuEwTUR6A+AgAAqteXQhgAANAzSiEX/eoSwthsg53RhfGzN95tunluVQ15sW2xjT7pfhyv0KSA8Yvxyxq0KICRn/cJYtD0uNi7+swPYz/sUm2Vxk6su7EDqI9AfQQAAFSvL4UwAACgZ5RCLvrVJYSx2Z4cX/96l+7UWldsW2yjT7ofxys0KWD8YvyyYi0MYCSCGDTpif3rX7l2/cbdLobbY51j3WMbfJKA+gjURwAAQLX6UggDAAB6Rinkol9dQhib68yZ0UPx+d56482NPebFtsU2xrb6xDf/eIUmBYxfjF9WqMUBjEQQg0aGxpNP/3bMwHf7rbc7e7yOdY9tiG3xiQLqI1AfAQAAx9eXQhgAANAzSiEX/eoSwthc2xdH47jj6aYf92IbY1t94pt/vEKTAsYvxi8r0oEARiKIwTpF2Hs4evatON5twjE7tkWAHVAfgfoIAAA4vr4UwgAAgJ5RCrnoV5cQxub64LWPvPzKq69t/HEvtjG21Se++ccrNClg/GL8sgIVAhhxvvX693+w1v0r3i/CFmUEMViXS08cfPq55z9+b1OO27EtsU0+WUB9BOojAABgfn0phAEAAD2jFHLRry4hjM21e+WZ2+tulmtCbGNsq098849XaFLA+MX4ZckqzoAR51tRN6zr3LLK+wlisGoxY8Q69/t1ji2zYQDqI1AfAQAA8+tLIQwAAOgZpZCLfnUJYWym1DB0+623N/64F9vY90aiweDgdB+OV2hSwPjF+GWJKgYwknUFMeq8jyAGq3Tpg0/96azZWLostim2zScMqI9AfQQAAMyuL4UwAACgZ5RCLvrVJYSxmc5u7z8Sn21fxLbGNvf1847tn4zlnf0/GeyMLtRtQtSkgCYF5xtg/PZMzQBGsuogxiKvL4jBKpw7N3w49sVbb7w5c9+7c+ed1h6f561bbFNsW2yjTxpQH4H6CAAAKK8vhTAAAKBnlEIu+tUlhLGZti+Oxs89//F7fTn2xbbGNvf1804hjHw5vzd+uWogQ5MCmhScb4Dx2yMLBjCSVQUxTvK6ghgs26UnDj49bxaMNBtf25dZJrNhHG6jTxpQH4H6CAAAKK8vhTAAAKBnlEIu+tUlhGH/2wSxrbHNff28ZzVdDYbjdyd/7u1/JUIqZ86MHrK/oEnB8R6M3x47YQAjWXYQYxmvJ4jBMu1eeeb2N7/9nWNr6Y/9zu/dv/bh35ocD08ypk4q3jvWIdYl1imNqVli22IbfdKA+gjURwAAQHl9KYQBAAA9oxRy0a8uIQz73yYQwjj+LrgpkHFhd/9bxUCGJgU0KTjeg/HbA0sKYCTLCmIsM9DR5SDGo48++r5f/dVf/RexHP6zbN1Ppe/HY+3QqzMYHJyOffK4cZJCDin8EMuyZ4ipOobS+8e6FNdv1liZ1AiH2+oTB9RHoD4CAADeW18KYQAAQM8ohVz0q0sIYzMNLo9f6FsII4UN+vh5VwlhPBDI2BvfS4GMOFZduDT6XU0KaFJwvgHG7wZbcgAjOWmAYtkzaoSuBjEeffTRj547d+5+LPH34vcPv/7l9P3DReP8Cl3ae+pm7ENVaul8v3vl1dcmX4vn3nrjzZUfg+M94r3iPeO9i2N7XggjxHNjW33igPoI1EcAAMB760shDAAA6BmlkIt+dQlhbKY+hzAs7QphfOMb37j/2muvTZb4+09+8pOFX+ujH/3ofb9OqnQu0KmfkyaF9p9v/MM//MP9H//4x0dj+Xvf+96JxnKX99dVjts4xnWN8dsRKwpgJIsGKVYRwEg6HMT4bgpanDlz5mjWspj9IgtgfNlOvVqjD33kW/mMEvNq6aI7d945qk3iz/j3slV9j+NCGLGNsa0+cUB9NF9eC6V6KL4Wy927dxs5D//Lv/zL+5/5zGcmNcSyajO/21AfAQAAD9aXQhgAANC/Bi42+KLfKghh2P82QWxrbHNfP+9KwYvh+N0UvNi+OBqfOTN6aJX7SzQm/NIv/dLRRfN8+cIXvrBQo8IqQxjRZB7rrFFhvmjuWPbPSZNCe4/3MU5jvJaN41hu3rw5GTtt3V+7Nm5XFcJYxbg1fjtkxQGMpG6gYpUBjKNjWAeDGHnY4rHHHnspfX1WOCPEv2PmjOnsGaXbefi99509e/bg8M8X43HxPgbH/HPrKjNZzAs5HDdLxaL7dJ3ZNo4LYcTz+zqTIKA+qvv7jVk1UfzeI76/zjBGvFe89+nTpyc1xElrMr/bUB8BAADl9aUQBgAA9K+Biw2+6LcKQhj2v00ghDE/eDHY2/9KMXixyv0lGgC2phfL4w6R0SAQS/z9ySefXLjZeJUhjNRUoVFh/T8nTQrtPd5HU0/an2L8xWw2MY4jfLGVNR2dpOEoHROcw68uhLHK45vx23JrCmAkVYMV6whgJF0MYkT4IgUuIiwR4Yn072nQYmIa2PhyNkNGBDduFcMY8e/8Mdlr/dWm7fJnt/cfubC3/9fnd/d//9FHL79v4dc43D+rjJnjQg5pf7/24d+aLFVm15h3vE2vU3XsHLd+sY3xmNhmB0ygDeL3FueH+58dDA5Ot6k+SufTMftEmgEjzY6RaqYIr69LvHe856bcSGJTfrehPgIAgM0ihAEAAP1s4KJFRZkQBk2JC9fPPf/xe3059sW2xjb39fMuC2Cc3xu/PNgZXajScLjs41W6c35ZE0IENKLROJq4y74XF8I/85nPTJobindznBXCKD5vVkN4apKIJe56mERjeWoEj+/Fv4vPicbz+Hv+vHkX89NrxLrEeuWvWXxcrH/8WXxMfD1+hvG4eXe2jOfls4tsFRoVitt03Ndn/ZzyBpNZz9WksDnnGzGWtqZ3Vy3b/9JYjsfEPp7vj2mfTX8v7q/x+PSai47reeOnq+M2D2G0fdwavx2w5gBGclzAYp0BjKRrQYyY2SLCFCkokf39u1tZuCIPa0QYI/93FtY4lZ4ff/7ar/3ahTy4kYc6NkEKUKRle3f8vwe7V//o/ecu/XLV14jG3yrhilRLV90HU4jiY7/ze7X2/3hsPCeFOOqM5yrrNwlsn6DZGWDZtc3RcXz34PYigYxVhjDinLusbkl1U/HrUY/EOX8s8ffia84KUUT9M2t2jTifTzVU/FmsO1IdFe9ZVo8cV6/53Yb6CAAA+EV9KYQBAAA9oxRqV1EmhEFTUgNSX/T9Dq5HjWY7+39SNXixyuNVXMCOX/tEsKHKHfLjInx+Z/2t7A77+YXyYrN2fK/K82Idyh4XjQ35625ld/wP0WCQvpbPCHDc3SbTOsTj4s/8NfLGi/S1vIEiNQqkUEi+xDbk2xWvldYr3ie951ahUWFrxh32i1+Pn1PxZxGvmX5OxfVZ1l37+96ksMiYXcf5RpU7uqaxnu9v+f6cfy/263wcpf21OBNG1XGd74fLGrfx+CrjNt6rOKtP1XEbP7NZ4zYfU20ft8bvio8Lg4PTs2avqqShAEYyK2jRRADjaKx0LIgxY/aKvAn1VPr62bNnP5G+FkGNFMqIL0xny7iffe1U+nosh49/3yaNnWIIYxIw2Bn/48//3H+9SiCjzv+rdeutO3feuf/Kq69NnhfvceuNN2c+Nr4Xj4nHxnPiuYvUSMfp+4yCQPt+l1o602eNQMa6Qxh57ZS+H+foqabIa4v4e7FuKoYzZoU6is/LlxQ8z7+X3je+lq/3rHrN7zbURwAAwHvrSyEMAADoGaVQu4oyIQyaEo178dnefuvtjT/uxTbGtp6oWbHjTnr32lUcr9IF9Ljgnu6IOEuaOSO/m366C388v9gsMO95Zc3MqaE73X0/PS+WdMfD4mvHRfutaSNBCpLEn6mBYN72bGWNCfH68bz0nvn25I+L7U1NCOlnl9Y3ltRYnm9raoJId8gsNjjUbVTIZzVId7lMr5UaLGbNWqBJYXGLzF6zjvON9NnPm0UijZP8cWkfSft1avjJQx1pfy1r/Kk6rsvGz6rGbdn7pmNblXGbB1nypqLiuM2bsqqO2/Tc9HNd17g1flf8//re/ld+fmwYfz1m+qp1jtNwACMpBi6aDGAcHbO6F8T4biFAcWQ6o0WazeKvprNbfDl/TvY6LxbCHF8+e/bsQcy4sWljpyyEUTeQscoQRl6/pIDF5z7/pQcCFvH3+FoKapyknhPCALr4u9R5x/EqN6BoaiaM/Fw+nZOnIHh+np5+B5EC7Xndk/8uJAUGqq5PXs/HOsV7psflM5HOqtf8bkN9BAAAvLe+FMIAAICeUQq1qygTwqBJu1eeud1ko9s6m/xiW33i7TpexYXt4h0P4wJ8XLAvNnXH48ru8pguihebu5N4Tn7hP3+9razheqvkLpKxfnGBPzUcFF87b6QozqpR4f/i0gaN4h3/twpBkBDP2Zpx18tYl/T19LhiA0Js19YCjQqpeb348zzu56RJ4eTKmopSIKNK4/Uqxm/s81uFRqJZ0j5R3EfymSfS6xX367Qf1xnXaTxuFWa0acO4LVvv/OurGrdlr7fqcWv8rvi4sDf+i6Om8b3xvZ/fAXr/WxHIOHdu+PDMJ7YkgJGfo6W7+DcdwDg6HmRBjPcPr/5Km8MY+WwYMWvFrO/NWrLnnJoGNeY9ZiMcF8J4IJAxHN8pC2SsI4SR/Ojvfnz/Y7/ze5PXieNpLPH3+Fp8bxm1/nGEMIC2/W6i6nF8ViBjlSGMFFpISz7LXR50iFokvp/XIakWyB+Xwgf541L9Ma+GKYYw8nB8WR1VNgPHvJCH322ojwAAACEMAADoJaVQu4oyIQya9MFrH3k5mt42XWxjbKtPvJ3Hq2iKjov70WiQGgy2sovzqWk6LsDHBfF8mdXcnZoaZj0vNQSkxoitGRfqc2UX4NPdEmO94+/pzo9VGxWKd91PM3Kk7UmPy18zNRrkjRnFdYzXTY8r3jUz/Ty3ajYqpJ9T8fWq/Jw0KZzMnObQdyf/R++NvzbvTvirGL9ld3OdJR9vxf202IBT3A+LzULzjgfF90nNTsUxuexxWzwOnWTczrrbbTqedWncGr8rPi5kIYyy48Lh9384uDx+oRjIGOxdfTG+n99Vvw3naSmI0Rbx85n+PO/VbfRc9ZJ/nvNCGPHv9L2Y1aLKfhUzX0xn0PhycYaNtv0cmloGe/uvD3ZG/2FdIYzkm9/+zv1rH/6tyRJ/X2atf5w0I4fFYrFsxHF8Z3RhlSGMWUualS6Xmv5jiToh1TP5OX6aVaL4+5GyuqJsfVKNMu/3Hun3EMWbW8ybJdDvNtRHAACAEAYAAPSSUqhdRZkQBk2Kpt1r12/c3fTjXmxjbKtPvBvHq9QsULzr4bwlNSTkF8mrPC8PYURzQ90L8NFAEAGS1OydlvwO//MaFWZtezQZzHpcvN+s98gbHeY9bmuBRoV5r7fqRgUhjEp36343vxN+HshY1fhN+1HaX8vkIYrUmFO2j8wbh/n+WnVcz9sXy8ZtBDIWHbepMarYYLTIuE3HgE0Yt8bvio8LM0IYM44Pf7u9t39zEsgwE8ax8pkwHhuOfrOrIYzw2GOP3YrvHf750vRLp86ePfuJeF4s8YUIXcTX4jH5axx+/7vT596q+n/RxjXqtmAmjOK+uexxWzeE4egLtOF3E22eCSMa+1OwIs2KURZmSMHwdO6eluI5fgoapK8Vf2dw3PoUQxhlgYdiDVKnNvC7DfURAAD0vUYVwgAAgJ5RCrWrKBPCoEnRpBuf76033tzYY15sW2zjrDvE08zxKpqg010Wy6Tm6AhXpGaBuCvkccpCGMc9LzWJLzITRi7N6LE1406QZY0Cs+6on342WyWNCsUmjLLn5+GSYpNF3sSer0/x51R8n3nvu+pGhWhS6HPz3wJNo0eBjEmT0qXR767ifCPdqXVegCnN7JDPmFG2j8zav4p3N130eFB13M6bEeO4cZu+XjZu00wWZU1PZTPzFO/KetJxe9ydclcdwtC8u4LjQo0QxoPL+P+d37v6mZ0rH/pO00GMFMBIwYviv5uQBzBSo2abHRfCOPz+i+n7EapIwYrpv1+Mx+QzZqTARv64CGls0tg5u73/yPw7pI//sSx4seh58TJDGKuq9Y8T2xrb7MgLtOV3E4sEL1b9+9hi6KHK7yC2CkGAVDsVa6K83ojflaQbVtRZn/SeZXXUvBlGK1xn8LuNE9RHsS/OW6r8LvO416i6VP296Trfr87rFWcABACAddWoQhgAANAzSqF2FWVCGDTtyfH1r8fdhzdVbFtso0+6PcervKm6LIgR34+G7a3phfy8QaHYIB1NCvlr5BfJi83b854XF+nzJvH0mPhaNGjnr53WITVvF9cp3dEyzc4xr1GhePfK4nrMWv9ZjRfFn9NWSWNBauzIXzf9vHOpMT1/ftn7zvo5rapJwdKeEEbal2KfKLsTa+yHaX/Im4tm7SOxHxX3r3jdfH+ddzyIfXDW8SCJ7y973MY6r3rc5kGRZYzbeFw8P23LukIYliUuJwhhbA/3P/2B4ZWzTc6IMStw0WQQo2sBjHBcCGPr5zNfHOShisLMGBMRtEizZsx73CYoC2FUCV4sel4shAGw/N9NlJ7j7B7cPj/c/+xgcHC6id/H1glhpPBA8Rw91STFEEGqu9L3j5vBYdb6zDrnTzfBSLXUIiEMv9tYrD6KZq15S5VgwXGvUXWpGmJY5/tVfa3B3v7rk3O5wz+rHAMAAGCZNaoQBgAA9IxSqF1FmRAGTYs7A46fvfFuk3dCXmUzXWzb5O6HtOp4lS6CxwXuaA6IxoC44B8XvdOF7vwuh3kzQpodIzUKxNfShfniRfL0vPh62fOKDQrxvXhMNBCkx6U7OqbXirv+53djjNdJjQ2xDakhu8od9dP2x/PSuueNAVszGhViHdJj473zn1t+B/38NeNxaTuLr5u2Lf6MdYnHpe3P1ye9b9rm9HOK7Ug/p/jctqaNIVUaUKo2KVz50G/8RV/HX93gxfbF0Ti/q+QqzzfSPpbGT/rc832o2EQ0q5kl319j34rXSE00ZfvrrOPBvPdJoY7iuI33WfW4zY9HadymWTDycZu+Fo+L90jjbtbPIb6/6LhN27uKcWv8rvi4UCOEcXh8+Nvtvf2b72l0Gg5PNRHEOC5o0UQQo4sBjHDmzJmHInwxDWDMXe/scTM9+uij74tAxnGP67JiCGN7d/y/qwQvHqifBgenq4YrNiGEMTmOaGgEWvS7iUWCF6v+fWzdmTBSnRPn9PGcOB9PNclWycx4eV00b9bNeetT/L1HLGX1zCIhDL/bUB81LWqdwd7VF38exrj6op8IAADrqlGFMAAAoGeUQu0qyoQwaNxweGr3ytM/jYuAmya2KbatS810fTpexUXvvJEgX+KCed5YEE0KEdxIF8+3sgv9+eOKzQLxvPyie/68vNm67HGpiSDJZ+hI71G88J+WdOfE4xoV4kJ+argu2+6tGY0K8Zhig3pqgM+3K2+qyN+jeHfIvIl9a9qckGYSyRsV0s8pf9/8TpFp3bZKmiE0KSzuuODF9t74a8XgxTrPN2aNg61pQKAYbJjV1BP7TmqaSUs0vpSN60WOB8WGm0XGbWr6yd97XeO2+LptH7fG74qPCzNCGEeBrL3xDweXxy8ce4fZNQcxqgYs1hnE6GoAg8VMQhh7+399fnf/9x999PL7Fn6Nw/2zypjpeggjtjEeE9ts7wHaIOqeRYIXq66P6oQwZtVQEUDIv56/Vh5WWHR9Zv3eI167Sh3ldxvqoy6IGuiwJrpVdWYPAAA4CSEMAADoIaVQu4oyIQzaIC5ix+d85847G3Osi22Z7LuH2+YTbvfxKt3xPv6MC+bH3dUxHhMXxuOuhkXxtVlND/H6s56Xi8aHeGyZ9PrFRoZ8G+bdSX9WA0K8Z9l2F9+r7vrO+pnN+jnF6+SvNe/96/6cNCksrqzR+vze+OWY5WdW8GLd5xux36f9LJb4+6yxMG+cpmaX9BrHPX7R48Gi4zYaerowbmcd59Y5bo3fFR8XshDGYG98L58Jp3bD0ZqCGHWDFesIYghgcJL/m2+98WalWrrttf48sY3xGJ844Pcb80VdMK8Gmlf35Ofnqa4qvlYKYcT5/DLWJ95z1msdV6/53Yb6qNUOz+m3hwdfbX0jHAAAG1NfCmEAAEDPKIU2+6LfqhozhDA2397VZ374yquvbcyxLrYltskn26/jVYf+L1763eY3mRDGg8GLuo3Cxq9xa/xunsHe/ld+fmwYf33eTDiVrTiIsWigYpVBDAEMTmL0oY98q8pMgl0PYcQ2xrb6xAG/32hOmpEhZmpQI6mPqDbGhTAAAHDuOaUMAwCApV8cwUW/2o0ZQhibLxp747O+/dbbnT/OxTZM7gwdzcr06njVof+LNSpoUqh1fD5Jg7Dxa9wavxt4XBgcnD5x8KJoRUGMkwYpVhHEEMDgpC7tPXUz9qEqtXTba/15YhtjW33igN9vrF/MvvDkk08e1SHLnrFOjaQ+2uQxLoQBAIBzzyllGAAALP3iCC761W7MEMLoh7gIuAmNurENLmj283jVof+LNSpoUjB+jVvjl/ZZchBjWQGKZQYxBDBYhghCxT553Djpcggjtm0SbD/cVp84oD5av9dee20SwvjoRz96/3vf+54aSX1EjTEuhAEAgHPPKWUYAAAs/eIILvrVbswQwuiHc+eGDz8xvv6zV159rbPHuFj32IbYFp9o/45XaFLA+MX45YSWFMRY9gwWy3g9AQyWaffKM7e/+e3vHFtLt73WnyW2LbbRJw2oj0B91LUxLoQBAIBzzyllGAAALJdSyEW/RRozhDD6Y7AzurDMhrl1Ss15sQ0+yX4er9CkgPGL8csSnDCIsewAxjJeVwCDZbv0xMGnY586rpZu+zJLbFtso08aUB+B+qhrY1wIAwAA555TyjAAAFgupZCLfnUJYfTPpb2nbsbnfuuNNztzbIt1jXWOdfcJ9vd4hSYFjF+MX5ZkwSDGqgIYJ3l9AQxWIWbe61rNVLe2MrsgoD4C9VEXx7gQBgAAzj2nlGEAALBcSiEX/eoSwuinnStPf/Ha9Rt3b7/1duv30VjHWNdYZ59cv49XaFLA+MX4ZYlqBjFWHcBY5H0EMFilSx986k+Pmw2jiyazYBxum08YUB+B+qiLY1wIAwAA555TyjAAAFgupZCLfnUJYfTUtOkuwg1tvrtrrFusY6yrxjrHKzQpYPxi/LKac8LjghjrCmDUeT8BDFbtzJnRQ+vc79c5tmLbfMKA+gjUR10c40IYAAA495xShgEAwHIphVz0q0sIo8eGw1Mxu0RbG4tSg9BkBgyNdY5XaFLA+MX4ZWXnhMcFMV559bW1ny/G+82ahUAAg3W59MTBp597/uP3NuW4HdsS2+STBdRHoD7q6hgXwgAAwLnnlDIMAACWSynkol9dQhhc2nvqZuwH0VzXFrEusU6xbj4hxys0KWD8YvyyYhVnxGgDAQzWKWaMGI6efSuOd5twzI5tMQsGoD4C9VGXx7gQBgAAzj2nlGEAALBcSiEX/eoSwiAMdkYXnhhf/1nss7fferux/THeO9Yh1iXWySfjeIUmBYxfjF/WpANBDAEMGhkaTz792+Nnb7zbZJ20jDortiG2xScKqI9AfdTlMS6EAQCAc88pZRgAACyXUshFv7qEMEjOnRs+HBcK06wYd+68s7b9MN4rzX4R6xDr4hNxvEKTAsYvxi9r1uIghgAGTXpi//pXrl2/cbftM8XMGjux7rENPklAfQTqIwAAoFp9KYQBAAA9oxRy0a8uIQyKYgaKvavP/DD2jbh4uMpGo3jteI94r3hPs184XqFJAeMX45eGtTCIIYBBG8ZF1CuxH3YpiJHGTqy7sQOoj0B9BAAAVK8vhTAAAKBnlEIu+tUlhMEs2xdH490rT/90/OyNd2OWiltvvLm0/S5eK14zXjveI97LT9zxCk0KGL8Yv7REi4IYAhi0RczWt3vlmdtRx3RFrGuss5kGAfURqI8AAIB69aUQBgAA9IxSyEW/uoQwmGs4PBWzUzw5vv712FeuXb9xNxp5Xv/+D+7ffuvtyvtZPDaeE8+N14jXiteczHyhmc7xCk0KmhSMX4xfWnke2HQQQwCDthkMDk5HLdOFIEasY6xrrLNPDlAfgfoIAACoV18KYQAAQM8ohVz0q0sIg6rOnBk9FDNWfPDaR16Ou6nGvhPLc89//F7s62VLfC89Lp4Tz43XiNfyE3W8Ak0Kxi/GLy3XYBBDAIO2iiB51Dfx/2/TM8XMGjuxbpMARoTeAdRHoD4CAABq15dCGAAA0DNKIRf96hLCYFERpDi7vf9IhCpif49lcHn8wqW9p26mf8f34jFCF45XoEnB+MX4paMaCGIIYNB2584NH9698vRPYz+tM0PgqsW6xDrFusU6+qQA9RGojwAAgMXqSyEMAADoGaWQi351CWEAmhTQpGD8gvHLXGsMYghg0BURNI9xce36jbu33niz8WNyrEOsS6yTEDygPgL1EQAAcLL6UggDAAB6Rinkol9dQhiAJgU0KRi/YPxyrDUEMQQw6Oa4ePazUVd/7vNfun/nzjtrPxbHe8Z7xzrEuhg7gPpIfYT6CAAAOHl9KYQBAAA9oxRy0a8uIQyaHCOxuEur4xWaFDQpGL8Yv3TECoMYAhh02dnt/Ud2R0/9TdTXr7z62v1VzxiTxky8V7xnvHesg08CUB+pj1AfAQAAy6kvhTAAAKBnlEIu+tUlhNENg53RhSjyi8tgZ/xSCjMMBgenu7RNse/FolnI8QpNCpoUjF+MXzpkBUEMAQw2qW57cnz9R+Nnb7wbx8hVzIwRrxmvHe8R7xXv6ScPoD5CfdQH8Xtk5z4AAKyrvhTCAACAnlEKuehXlxBGd/anFFqYtwyG41uDy+MXurBNKUhy7tzwYZ+w4xWaFIxE4xfjlw5ZYhBDAINNHB/x/3MEJKJGi/+nv/nt75wokBHPjdeI14rXjNeO9zBmANRHqI/6NsZb3wgHAIBzz3VRhgEAwHIphVz0q0sIozv70+SzGh58Ne74VVy2L47Gg73914/CGB2bFQPHKzQpGInGL8YvHbOEIIYABpsu6rLh6NnP7l555nbUac89//F7n/v8lybHz9e//4P7t954s3SJ78Vj4rHxnHhuvEa8lloPQH2E+qjPY1wIAwAA555TyjAAAFgupZCLfnUJYXRnf4rP6rhCP74/CWHsjF+a9ZgzZ0YPpfBGlfeOmSomj80a4+o8/6RKZ8o4XJejdajQsFd3mx2vQJOC8QvGLxWcIIghgEHfRF0T4fkIUsSxMwUzypb4XjwmHhvPMXsggPoI9RFCGAAAOPd8gDIMAACWSynkol9dQhjd2Z+qhDAGO6MLqXGn2MwWd0wdDMe3ig0+k9csaXyL1yo+Ph4bDUBH71Fx/dLj8xDEvK9FaCJm/Si+5qRxafr1fIlZQMoakybbkM0QcvT4nfFL8R72rG4dr9CkgPGL8UsLLRDEEMCAB53fufqJx3dG/8pPAkB9hPqI+WNcCAMAAOeeU8owAABYLqWQi351CWF0Z3+qE8KI8MQDXx8cnM4DC4PL4xdiyb9WnOniwZDD1RdTmCEPZlRdv7ohjAhJ5H+P70VoIr13/BnrFO+bfy1/rXwbYr0mj822wwW77h2v0KSA8YvxS0vVCGIIYEDZ/+f7f37+8vhlPwkA9RHqI+aPcb/TBQDAueeUMgwAAJZLKeSiX11CGN3Zn44NDgyHp9IsERE2yL+Vggfx/bzZLWaPSN+L9zh6/DQEEY/Pgw3F2TGqrl/dEMZkGwYHp/N1jW1KYYsHZr04fEy8b/H9jx4/DXHkj0/bkL+345UmBTQpGL9g/HICFYIYAhjwXo8+evl9k7pl9+Dv/TQA1Eeoj5g/xoUwAABw7jmlDAMAgOVSCrnoV5cQRnf2pzwUkS9HMzxk4YhJgGEqnxGirNktvfZkNoyp9Pg8mJHks1QUX2OZM2HMeo1828q2MWbMmKznNIRRDJ7Q3eMVmhQwfjF+abk5QQwBDNokaoZiXfVA0HuNzu/u/36qZc5dvvrYcXUUAOoj1Ed9HuNCGAAAOPecUoYBAMByKYVc9KtLCKM7+1M+S8SsJX4RUGzQ2b44GqcZJIqNRrGk7x+FKobDU/OaffJ1KX5teSGM0YX8+dEQlX+vbDuKrxeNVelrEcSI7WyqscrxCjQpGL8Yv/RGSRBDAIOu1VdRO00C6WvYX9PMhIfv+e725f3PHVdHrVrUTOomQH0E6qO2jnEhDAAAnHtOKcMAAGC5lEIu+tUlhNGd/SnNVhF/z5cIGBzN+DDnuVWWeHweaChrvomZKFYdwig2GeXrdNySP3cyS0g2Q0j+M0wzZqBJAU0Kxi8YvyxZFsS4c+cdAQzaW18d1gpRw+TLAzMMHv69bCa+ZTlzce9fPhiq3/8/x9VRqxb1kuZGQH0E6qO2jnHnKQAAOPecUoYBAMByKYVc9Ktr0RBGCgBopFrf/jQr5JAHFGK2h1nPjaUY4CguxdcrC2G8Z+aMrfWGMAZ7V1+ctw3vCVcc7qMxe8ZgZ/xS3lA1K7TieAWaFIxfMH5ZgmkQI867BDDoUn2V6o/jwu7LEDNfFEPl7z936ZePq49WOW7n/VwA1EegPmp6jDtPAQDAueeUMgwAAJZLKeSiX12LhjBSQ8o678jZ9/1pXjPM4PL4hXSn1mIIIQIIqXmn6uwP85p9IgQxK4QRd00tPj7e86QhjPw1YntO8rPM19/+263jFZoUMH4xfumW9w+v/srh+em9x4aj3/TToEv1VZgVTs8D7DFLxmT2vcN67IGa4/Dr8bWj2TUOa5CywPz2cPzjYgjjcMz891TzzJrtb9bMfvG8+F5pnTMcnnpgRsXC+kyC69NaKZ+B0d4CqI9AfdSmMS6EAQCAc88pZRgAACyXUshFv7oWDWGk5gxNGevbn+Y2CcVsD9NZHoqPiYaho4aewcHp4lOjeafYpJNeq+zzjdcvhjDyBqXiXY7zmTMWDWHk6xT7Xuk+GduW3vvwz8nda0sanSbrNA0RzXotxyvQpGD8gvHLyb3/sau/Eudcj37g0gfzr8d52qRx/YThWlhZfVWoT/K6KA+Hp7/nr5OHvovLZFaNac3ygYv7H571uFSr1K2ZUq1WrOOiJsxnBczXJ4U58jovX+wtgPoI1EdtGuNCGAAAOPecUoYBAMByKYVc9Ktr0RBGNHzE3TGjkWPWXThZ7v50XJNQhBBmhS1SQ0002TzQ7DYcnioLJBzdAfXw801BhviMiw1FD7x/SXBjcjfVrNnnJCGMo9k20jplYY/8jq1pu9L7FoMYk+2Yfs9MGN06XqFJAeMX45fjpTvv50vckT/d1X6d5z8pqFusN6o2wEOT9dWsMHs2Y8WtSX11OL7S94vBjBgDxToq1V2PD/f/06wAxvnh+L/k/64cXC+5WcJkVo4ssB/Pm4QydsYvFWdTNDYB9RGoj9o+xp2nAADg3HNKGQYAAMulFHLRr66FZ8K4PH6h7E6Z0cBR1vgVTR72ipPtT1WaYfJGmjykULzzaYQV8s8vvyPrrMfnjy0NYeSNRYfPTc+ZNCZN/36SEEYeGMn3taMZMg7/zPezfHaOyfoc/mzyx7tg173jFZoUMH4xfjnevDvrF5vDV70ubQphxHmiuoTK+2CEuqe1VbHuyWuM99Rj07on6uX31mq/CGj888Hgnw12x2/PGqO/vnv1Y/EaiwbXHwzGT2vE4iyAJcF1IQxAfQTqo7aPcecpAAA495xShgEAwHIphVz0q2vREEZZAGPeYsaBk+9PVZph8lkeik02k+/tjF/KwxXpzq1lM5lEg9oDoYeY+eTwsXm44YEnTBqVRhd+MbPG4eNjHQ6/nvaXE4Uw0nvEnWazUEh6n9I7wcZdX2ObCyGSWdvseAWaFIxfMH677uic5+JoHOdHaZmcF8V5VHYuuOrzoTaFMNJ7qkvI94eoE9IsMWkpjpNioGLW1x/4Xj77YFZfpe8/vrv/7+YGpS6P/yyf6fBEIYwUDClZp0XrTgD1EaiPmhrjzlMAAHDuOaUMAwCA5VIKuehX18IzYeyMLhSbVcqWaByZNIdksyzQAvF51PhM8ga9mSGMGY9fpTrvM3ms/bDTxys0KWD8YvxyvEqh1mmDed6oXef8KZrJU7hj3vPTeePjO088kT+2iUbvNBuAEAb5Pjhvmcymd1jPVh1jeZ00az/7xWw0+9+d+967+7dj/J04hHE4fuvcGEEIA1Afgfqo7WPceQoAAM49p5RhAACwXEohF/3qWjSEQX9VCWHgeAWaFIxfjF+aUaXhOu7gn2YByI8nqXl7EqaeBjXKwhPvaRjfGb9UGta4fPWx9zz28L3LGr3L7uBf5fyzOHtbcX3y5+bLcQEUNv//z1kzYcQ+My/sXSWEMXPsZTNsHLd84OL+h08awnhgnSoE0oUwAPURqI/aPsadpwAA4NxzShkGAADLpRRy0a+upYQwhsNT6U640QTl099sQhiOV6BJwfgF47e9aoUwhuNb+fEkBRjyRvB0fp+eczRDwOG/o4E9fS2CEMXjUzF8kRrQ058nDWHE1/PXHOxdfTGtU/wZ6x7N9Pm6xGNSo729pd//fy4aNpg1xmJ/qzoTRpXl/O7oP9cNYaTxayYMQH0E6qNNHePOUwAAcO45pQwDAIDlUgq56FfXSUIY0dA0aXTK7uaZF6Lx98HO6IK9YbMIYThegSYF4xeM3/aqFMI4CipcfTE/nuQzSeTh6jjvf2AGieyO+nG+/4vn/eLcPw9oPL7zxBOTLx4+L3+fqiGMvJG87GsR8MjXKV63GAyp04hOP/7/XHYII//e9sXReF4dVWUZ7O7/31ohjGxM5OMo1etlYyvG7GTmm8HB6ZP+XADUR6iP1EfrGOPOUwAAcO45pQwDAIDlUgq56FfXwiGM4fBUNDW9926dvyhE5zWg0F3pbsKlDXI4XoEmBeMX45dGzWsQj6+lgEIxNJGHI4rPzb9X9p7pNVMtUGw2L9YbdWfCyLcr35ZZ6xQBkuL5qhAGZfv0skMYaSxEkCkPBk32+zQDze7B3z9+cf/fnr908G/O74z/63Qml3fPX97/j5OvHS7x/cOvfaPsvVIdXhwreSDqgRDG3tUXj7Y1W6c8XJVe/2hGnJglp7D+AOojUB+14ffSZuIGAGBd9aUQBgAA9IxSyEW/uhYNYaRGjrjD7eSumdO7buaFaGoCicfYI8DxCjQpGL8Yv6xe1bvsFxu4j5qvS87dH2jiLqsNps3lVUMYxdBG/v5VQxh1m+iFMCjb35cdwsj3/QgyxA0Joi5+cGaYX+zjeRAifW8yM0U222TxvY7CHIePib9HPX4U/iiZ9SJ/j3ydysbhZLbL7DViia/ZYwD1EaiPAACgb/WlEAYAAPSMUshFv7oWDWGku2/mzSBlTSxxB9D4usYNcLwCTQrGL8YvqzcrdBFN4HGuHseNsrvHzmtKP2rw3rv6YmltcHE0zkMS6d/bu/s/Kas3yt6rbggj1Rmz1mnW84UwOG5/P+m+NAldFEIUR+Pw8viF4uN//fL4I6WPzcIb+XtFbV02K2WMhVnjaNY6xevPm/nGmAHUR6A+AgCAvtaXQhgAANAzSiEX/epaNIQxed7w4KvFrxUL0aM76u6MLtgrwPEKNCkYvxi/rNaijdMnCWEcnfMPx7fi33koo6zeKJtZY24IYzrrXmkI4/DPVf5c2EyxH0xmnFigTq0yQ8RkRokIPsRMFYdLjImy8FNal5/X1/v/PsZG/th4jVnvFY8pPj5tV9l+nq/TrDBWGm/xuHiNyesc/tseA6iPQH0EAAB9qy+FMAAAoGeUQi761XWSEEbeBJW+NmsmjMHg4LS9AhyvQJOC8Yvxy2qtIoQRTdtlIeyj7xdCFampfFYII4U6ykIYZaGKaAgv1h9Hj9/bf32VPxdYtaMQxgJ1OQDqI9RHAADAaupLIQwAAOgZpZCLfnUt2uxxdDfc7M6hxUaquNNmanaad5dQwPEKTQpGovGL8ctyrCKEkc9sUfbcCGfkAYq4w/68EEb6ev5e6T3KQhUp2P3ATBiDg9Oz1imFNiYzc0zv4p8eKxxO2whhAKiPUB8BAADtqy+FMAAAoGeUQi761bVos0e6G+7k+RdH49RoFYVoNJHE9kcD1bw75rL5Yr+IfaL1v6BwvNKkgCYF4xeM3w2xihBGBBki0JCf78eXI2idZsEovmeqBWJ5fOfq8/G1+H4KcxffKw9uHL3O4ftO6orpexcDF3m9kT8nhULiucXHxvraS2gTIQwA9RHqIwAA+P/s3U+IpOedJ/g65MFQh72UoE+7ZllomnElVUo3yshSZr5puyLzzWrJKqGG6jbqiw+NtouaBs36ILZm3TvsYeYwFNjsweAZfHDvQdtiLdbsNnVoQ9t97mohFjM2ghkoCU9TUoMpNaqC2vyF4gk9+eYbkRGZb+Yb8cbnAy+VGfHG+y8iKp7fk883HuavvhTCAACAJaMU8ke/WZ14sEc2uOm4JQZUeUUspzSgaNy3JuP/KzBIwfsX71+adSYhjAtfzC6RByjy36vhhnymijTDxSjEPawjqvvK14mfU/giD3pM2kd+TPksGNV2aWxbSJh5q5mEMADUR6iPAACA+akvhTAAAGDJKIX80W9WpxrsUfPNtNWBWPHtuF4Ny6uVEMbB67L6zcd04/8rDFLA+xfvX453ViGM1Larhi8iUBEz49Wt/9XN8rXquhHmSG3E6r6idqjOqJfadOPalNVjGoQ3NsvbdUHwNENbLLGOVwvzVDMJYQCoj1AfAQAA81NfCmEAAMCSUQr5o9+smhrsEQOmYvBIWrwCCG2EMNI+hTC69/8V3fT2O+8apOD9i/cvC2iasHVql/3+zvXtfFaKprZ/xIz7gHmqmYQwANRHqI84vt0UoW5XAgCA86gvhTAAAGDJKIX80W9WBnssvvjDU7zeBuGXoljp9fYvxzf7DpaD+6oD2EbfMDz8g1X641U1PBPfHvz5NxHv3o1txTccHzcYLrYzWH+437oQRtr/uJBEOp/afR2cXwr6xDrVbzhOnSHpm5Xz82Tx/7+im+68+dazF3deuuOd6P2L9y/dY3A5eJ8AqI9QH9Hke3zuB8IBAKDteV6UYQAA0CylkD/6zeq0gz3SYPgoQGOJwfppgH2+nOibbJlKCh0MghLF/v0UekhLrygf5mGFNMgnhRTSeqNQRAQ5dnbvVreTlghjVI/h8/DF3oMj+z44pmoI47jZMdL51IVC4lwmHU/d8frD3PHiGpav3PrMpyjn7cnTp8/q3u94/+L9SzcYXA5TOKi/Bu+RoviSiwGgPkJ9xOS/uejrBQBA23NIKQYAAM1SCs1XUdbpEEYM1K8ZED9u8Qeos5NCC3noIGbDyG+PcEZaPw2Gi+cvLbFueo7yYEYEKyJgEX/Ezp/v2H7aXtxfXX8wA0Xl9VHd/ywhjEHIY7i9OJfYf35MqQMkHpOCKBEkid+rs2VwVISk4pr96tcf+CDlXD147/2x/xfg/Yv3L4tPCAMAUB+hPqLJv7kIYQAAoO05pBQDAIBmKYXmqyjrcggjH6g/GPS/s3u3bgYMM2GcvTxskYcjQgQV0n3pOchDEHk4YyAL14xmxsjv2yrvVWeXGM3EcXBfrJOvn8/MkW4+UQhjOMtG9ZjyAEg6v/T4I8fPRFvXX/7+jZu3njz6+BMfppyLeK392Z9/55+/tnfzr7wDvX/x/qWbhDCYWwe1Srw+T/tlAaNtZHVQ3W1dETVXnJv6HlAfgfqorb+5CGEAAKDtOaQcAwCAZimF5qso63IIIw2KN8NF+/IQxpE7i2JlFNDY6m/ETXkIIt2W5PfVzSCRh2/Sben3utBDb7O8feoQRnYOdcdUHTwlhHFCB9e56L/8s/ijcXx735OnT32ocmbiW0ljUEy85ro4QNH7F+9fONzuE8JgXl+bp/3G6rqZH7s8G2SqB9VagPoI1EdttUWEMAAA0PYcUpIBAECzlELzVZR1OoRRlA9j8Uy3L4UOjsxqkT1X+UCZQwOOKn8czGfOqNtW/tj07aeTBhnVbW/WEMasA6SEME7h4PUQ39qXrvedN9969vY77z776/t/Y7GceonXUnwulq/c+ixeX9+48doPDFDw/rV4/9JtQhjM+2vzLEIYUY/EUhcg70I/h1oLUB9Z1EfqozbbIkIYAABoew4ZIgcAAEIYXS7Kuj0Txu5dM2HMhxQ66G2V9ybdXxvCqHndTgp0RPAiH2iUb6vutVC3r1lDGOmYYvaVWa6HgUGnE9c/ZjK5/gd/+BPL5CW9nl2L45cXd166E+GsFOLC+9fi/Uv3/z8SwmCeX5tnEcLoej+HWgtQH1ks6qM22yJCGAAAaHsOGSIHAABCGF0uyrocwohv9YwZFmKwviBGu1LoYFwnwMSZMCpmngmjKFaangkjwhb59nq9/ctmwmCeNTGADwC6SAiDeZIPkpw2hHHcwMrzCGE0Pbhzpu3Ft3pn3+w9Cshvlre9ogCA8yaEAQCAtmfGEDkAABDC6HJR1uUQRuht9TfSoJMUAhi3RGjDq+JsjGbCKMqHdfen5yeer/h90oCj/L6656wuVJF+j/uOvEY2y9uzhDBin9WBTPltdceUZuRIg4mEMNAJBwDzQQiDeRB1UAp6x78xq+OkoHfcF182kNe68Xuqp+pqrTyEkd82zax+Xxzb7t28LoqZDvNjGBx7Tfghr3+iJku/V69B9ZxivbpzClFbxb5SoD+dfzofbV8AoA364AAA0PbMGCIHAABCGF0uyrocwsgHrUyzmC3j7KRBNqPZKcY8TynAMPFbX7OZLeoG5MTAoOogorpBQ2lb+UCfdHMc47hQRRrUU33NpH1Ugx5HZubIrseR44Fl7oQDgBqDgdYHbabPB2OX95re/nmEMKI9mYLfnlGOvr4/ryNGIYZhqCD9W62J8tB5rD94bxzaxuEa47gQxqTaJ71+q/fnNVw6hryuqr7W85kR8xp8VEtlwfjYTvWcqjVWfg2q203H4f0GALRBHxwAANqeGUPkAABACKPLRVmXQxhfDHT//Ns4Y6BGmpGgbokB+V4VZyMfFBODieK1F4N98kBDDJZJ608MYVz4ImiRBhkNBi9t9TcO7ScLaOSDdGI/sf3Bt81mA5uODG7KBu/EIKPBN72mgMfwcflApnwf8ZjBMWXfUJsPhspnaIl1BIDQCQcA9fKB2OPahqdxHiGM49q2LPHrexg+iPpiFDQ4qEuj7VYbwji4L5/5Ia9h89oqD74fF8LIa5+6WSxGx1gTcq8eQ9Q2oxBJVo/ldVqqr9Ix5iGQQwGSONd81sJ8P8N95DNafl4TfjEzh7YvANAGfXAAAGh7ZgyRAwAAIYwuF2VdDmFM+jZPzlc+80M1+JAGHeXP07ED1Ypipfotqoe2Vx08VJnxIl/ywUr5Q/KgxKFtD7+J+cjsKTFIKAuHVM+vOgNI9Xi8Slj6TjgAqMjbYylQ3fQ+hDBo9TU+rI2irXb09f9FoGBUQwyD34NARM2XCNSFKaYKYeTbrR5HmlVwc+9/Otjnlw69nmuOYRTayGauyWu3an2e1s9D+XX7TyGVupkG85pMCAMAaJM+OAAAtD0zhsgBAIAQRpeLsi6HMAYzYBTlQ890+9KgmzQDRgygiUE5cXu6LV8/zZJRNxgpN9jOZnk7tpO2NXZwXvpG2eF+43Fp3bH7ivDGwT7S+vGNrYPX1lZ/o+64q8c0CJ0MH1MVg4/Sfo87T1iKTjgAqPn8OuvwghAGbaqbxW/S6z+FvtPsftUl3Z+3+6YJYeThhTwkET/nwfF4n6Tjilq77hjqjjvVg3VBi1Fg/6BOq9ve6P5hsOS4/xfyWTK8wgCANmoY7RAAALQ9hwyRAwAAIYwuF2WdDmGMvoHz6IAWzlcewnA1QCccAEz72ZW+nb8uuDoK90ZYdmf3btxfNwteGhheVxeMQhhbe9/NA7aH9hcznh08NvYx+Db+mm//P1SHDNeNf2ObQhjUyoIPdUHyutfNpNkA82XmEMaFL2beyGfRGM1SsVP+h2oIY5plmnowzXQx7Tml/Y9r26Z9afsCAG3WMa4EAADanheEMAAAQAij20VZl0MYMahlMBtBUT6cOEMCZ04IA3TCAcAsjhvUPWkgeAQg8qDEpEHb+UD3ukHqEepI36x/aB/ZQPVUewwCIZUB5fHYuF0Ig6oI6EwKYcSMeuPCDPG6SrMB1i3563P6EEZ/I4WeRrcNX89f3Sxfq5sJY9Ix5O+3aUIY8e805ySEAQDMM31wAABoe2YMkQMAACGMLhdlXQ5hTPstoZMGvtAMIQzQCQcAs4i2eYQpBrVAsX8/fk/t9TRYPA0ET7Nc5AGIvN15mhDGkX0MZwuIJZ85Iw9axHHEAPrBYyoBDs8sudFrpmaWljxolG5Lr794T8y6j+NCGIPtD1+vET6KJb3+RzPGVGbCaKIeHAVLDs5t2nbtpP2nc9D2BQDaoA8OAABtz4whcgAAIITR5aJMCEMI4zwIYYBOOAA4yedX3WDq0Tfnx6DtbMaLwX2b5e00cDzdd5oQxmBWgOo+hoO884HzX3yb/+7dQzs4eGweDvGsUvdaqp0hIgv8VN8Tg9sqr8uQB4Oqr+WpQhjD4FO8j0bvpYPb8hDGuPdM/pqvHtvEmTCG5zl4z9aontOhGUKq1+Dg93Sfti8A0FYNox0CAIC255AhcgAAIITR5aKsyyGM+ObO9I250yx1g1hoRnou6gYFAQDAuHqlbjB1GmQds09UH1M3QPxUIYzN8nb1MXXf3D9av7d/ubp+3WB6GLw2UuhhOHtK/trPZ1FJt0c9dei1mdewEfhJAaFsW7OEMNL7YXA8w/BQquXyujzdF++Fao0Xs3RU3zuTQhj5e3Bwf3ZOse8j55QFLeK9lfYf/+bvNYMfAYC2ahjtEAAAtD2HDJEDAAAhjC4XZV0OYQAAAItdr1QHU0/zLfyNhjBqQhXV7R13TIdmL4Axr7/0mhrNqlITwghphoq0zmDWip3du3kwIl9/lhDGYPvZzC2DmWCy4xyFMLLZKNJsGbGMAhiVGWSOmxkxD0+MzungtlEAozLDzJH1s9/TMRj8CAC0VcNohwAAoO05ZIgcAAAIYXS5KFuWEEYMEonzzZfeVn/D7BcAADC/9cqkEMa4xx36Vv0LpwthTApV1IUwamuRg7pDCIOxtWr2+jg0i0MWKKo+JmaByUMao9krYnaWSo07cwgjC3mk2WaqIYx025FjGAYiYgaLfJvHhTDy99WRc6oEMEbHOZxFJN93HO+k9zsAwFmL2bmqbSEAADgLQhgAACCEQctFWddDGBG+yL/J88igjqJ8OGkgCAAA0F69MimEMW5wU3UWi0mDsv9Fsfs/NBnCqDsmM2EwjXjtDF5vM3xRQAzyi8fEv2d5bHUhjJGD4437mxpsONM5NbxvAAAAAFgUQhgAACCEQctFWZdDGDEQo/rNnFGExlK9PX3DJwAAMD/1Sl14YhSyiJntKupmtkjbiXB2df2vbpavnTaEkc9YkIIfuTQLgBAGi2piCAMAAAAAOHdCGAAAIIRBy0VZl0MYva3yXhpsVffNmPHNmr3N8naaEcMrAgAA5qteqQthpJnuoi1ffUyEq0ft++GMAlELjEIQlVkG1rf3/v2pQxhxTMOQ95FjOthfPjOfZ5VFJIQBAAAAAPNFCAMAAIQwaLko63QIIw3OqvmG3JEYFDUcMFU3wAoAAGivXqkNYRy07/OZ7qIdH0s+40Q89tBjUkhiq7xXt/6pQxjDcHd+TLFedQY+zyqLSAgDAAAAAOaLEAYAAAhh0HJR1uUQRpoF47j1RrNhTAprAAAA516v1IUw8jZ83RJBi+qMF+PW/+pm+VoTIYzY33qxf79uH2l9IQwWlRAGAAAAAMwXIQwAABDCoOWirOshjFhWV/sXJ62XvgG319u/7FUBAADzYTSbxJiwdLTfI1wR7flY4udJweqoC9IfpmLdNCPGoN7Y2vtuXjfEerHU1RJjj6soVj6/vbwX+4ifY9203+rsHLBI70UhDAAAAACYH0IYAAAghEHLRVmXQxijcMXO7t1x66TBJNOENQAWVfxfZ7YfABhfDxhcDt4nAAAAALAohDAAAEAIg5aLsi6HMNav9csUsEjfRBvflhsDSOK+CGf0dvYeDLZf7N/3igB0wgHAcjG4HLxPAAAAAGDRCGEAAIAQBi0XZV0OYYQ0G8akpVeUD82CAeiEA4DlY3A5eJ8AADQl/s6wtlZcciUAADhrQhgAACCEQctFWddDGKG31d+oC2PE7BdxDS4UxYpXA6ATDgCWj8Hl4H0CANAUfXAAAGh7ZgyRAwAAIYwuF2XLEMIA8P+9PwADQB2Dy8H7BACgKfrgAADQ9swYIgcAAEIYXS7KuhzC6G2Wt2OZZr3Yh1cEoBMOAJaLweXgfQIA0BR9cAAAaHtmDJEDAAAhjC4XZV0OYUTBOU3R2dvZvRv7WFsrLnlVADrhAGB5GFwO3icAAE3RBwcAgLZnxhA5AAAQwuhyUda1EEZvq7+Rwhe9onwYS/q9bunt7D2I7ccSA0u8KgCdcAAA8IXV1f7F9a297169uvmcqwEAMJ4+OAAAtD0zhsgBAIAQRpeLsq6FMOKcUqhiliUed6EoVrwqAJ1wALCQVn7v937vv0tL3QrpvtXV1YsuFwAA0DR9cAAAaHtmDJEDAAAhjC4XZV0LYQwUxUrMahGzXMQS5zlpiW/19GoAdMIBwOKKcMXa2tqzbLlcXSfdd/Xq1T9yxQAAgKbpgwMAQNszY4gcAAAIYXS5KOtkCGMoCk5/8ADwB2AAuq8awrh69erfV9cRwgAAAM6SPjgAALQ9M4bIAQCAEEaXi7IuhzCOYwYMQCccAHRDzUwYR8IWx4QwVq5cubIf9w1n0VhxVQEAgFnogwMAQNszY4gcAAAIYXS5KOt6CGNtrbi0Xuzfj3/TbVfW977c2yrvxXZ7O3sPelv9Da8GQCccACyuPITx/PPPP0z/XsjCFHUhjAhcHKx3rxrgGG7jsisLAABMSx8cAADanhlD5AAAQAijy0VZl0MYg7BFUT6Mx8fPgxuLYiV+ry4RyvCKAHTCAcBiykMYMaNFFri4m9apC2GkwEZa9+Dfv8x+/3tXFgAAmJY+OAAAtD0zhsgBAIAQRpeLsi6HMHo7u3c/n+1i926EL+K29Wv98ovgRX+j19u/HEGNWLwiAJ1wALCY8hBG/DwMVKQwxXOxTjWEETNdZLNfjGa9iPurjwUAADiOPjgAALQ9M4bIAQCAEEaXi7JuhzD2HsRj89vWi/37KYAxWm+zvH1otgwAnXAAsFCqIYyDm1ayWS4Gn4HVEEYe1Ij167Z15cqVP3N1AQCAaeiDAwBA2zNjiBwAAAhhdLko63IIIx53qOgsipU0C0aaGSNEICNui+vhVQHohAOAxVMTwjg0o0U+60UWwvj7LISRW8ke5/MTAACYij44AAC0PTOGyAEAgBBGl4uyrs+EEcvo997+5cG2iv371etgJgxAJxwAzJ+rVzefW9/e/d972+WvU6C6bqkLYRxYSUGLPHBRNxPG6urqxbTPfFvPP//8Pc8CAAAwDX1wAABoe2YMkQMAACGMLhdlnQ5hbJX3Bo+91i9jtoteUT5Mv+frRSijOjsGgE44AGjXV7d3X98oyv8aAYz1zb1/v7F1vR91Qd0yJoRx4Stf+cpGNqvFoRBGPjtGrJcek4czrly5su+ZYNnFFxactC4HAFgm+uAAAND2zBgiBwAAQhhdLsq6HMJIA0WqyyhscfBvCmBUZ8cA0AkHAO35/Wt7r0Y7/YWt8v88aLd/6bj1x4UwwsFtf1kXwgjPP//8w+y+v8xnzIj7DlYR1GbpCWEAAExHHxwAANqeGUPkAABACKPLRVmXQxiht1neTjNgRAEag0dGdxbFSgpgrK0Vl7wigK6K//tiRiBXAoBFEbNf9Lb3fjHt+pNCGPl91RBG3JfPfJHCF3Hb6urqRc8ECGEAAExLCAMAAG3PjCFyAAAghNHloqzrIYxkXMgiQhqjmTEAAIDWvbC9+3rUAFevbj43w8NWIlAxDGAcad9fvXr1uXT/mHDFyle+8pWNtbW1y54BOEwIAwBgOkIYAABoe2YMkQMAACGMLhdlyxLCAAAAFsMLL+7/y9723t+5EjAfhDAAAKZvN5mNFgCA8yCEAQAAQhi0XJR1OYQRf+yIc5x2WV3tX/SqAACAdkUIY327/IkrAfNBCAMAAAAA5osQBgAACGHQclHW5RBGFJzx2GmXGFjiVQEAAO0SwoD5IoQBAAAAAPNFCAMAAIQwaLko6/RMGJvl7Sg665ZeUT5M4Yvezt6DuG1trbjkVQEAAO0SwoD5IoQBAAAAAPNFCAMAAIQwaLko63II4zgxkKS3Vd6LQEZvq7/hFQEAAO0TwoD5IoQBAAAAAPNFCAMAAIQwaLkoW+YQxkBRrAxCGAeLVwQAALRPCAPmixAGAAAAAMwXIQwAABDCoOWibOlDGAd6m+Xt2MfaWnHJqwIAANolhAHzRQgDAAAAAOaLEAYAAAhh0HJRJoRx4UIUprGP3lZ/w6sCAADaJYQB80UIAwAAAADmixAGAAAIYdByUbbMIYyY+SKCF7H9WC4UxYpXBaATDgDaJYQB80UIAwAAAADmixAGAAAIYdByUdblEEaa4WKapbeze9crAtAJBwDtE8KA+SKEAQAAAADzRQgDAACEMGi5KFv2EEZvZ+9BBDBiVgyvCEAnHAC0TwgD5osQBgDAdPTBAQCg7ZkxRA4AAIQwulyUdTmEEcGKGCwybhG8AHTCAcD8EcKA+SKEAQAwHX1wAABoe2YMkQMAACGMLhdlXQ5hALBAnXAAMCSEAfNFCAMAYDr64AAA0PbMGCIHAABCGF0uyjofwiiKld7O7t1Yqnf1tsp7g9sP1vFqAHTCAcB8EMKA+SKEAQAwHX1wAABoe2YMkQMAACGMLhdlXQ9h9DbL24PHF/v3q/dFQRr39YryYa+3f9krAtAJBwDtE8KA+SKEAQAwHX1wAABoe2YMkQMAACGMLhdlXQ5hRLAihSziXKv3x0CSURBjq7znFQHohAOA9glhwHwRwgAAmI4+OAAAtD0zhsgBAIAQRpeLsi6HMFLAYm2tuDRpvd7O3oNY70JRrHhVADrhAKBdQhgwX4QwAACmow8OAABtz4whcgAAIITR5aKs6yGMmAXjuPV6m+Xtz2fD6G94VQA64QCgXUIYMF/iiw1623u/WL2287uuBgDAePrgAADQ9swYIgcAAEIYXS7KlmEmjPjWzknrpZkwjlsPQCccAJw9IQwAAGAR6YMDAEDbM2OIHAAACGF0uSjrcgijt7N7Nx47qfCMaxDrxHKhKFa8KgCdcADQLiEMAABgEemDAwBA2zNjiBwAAAhhdLko63III0IV68X+/Xh8rygfRgEa55yK0TQDxuD+nd27XhGATjgAaJ8QBgAAsIj0wQEAoO2ZMUQOAACEMLpclHU6hHFgba24FAGMFLaoW3qb5W2vBkAnHADMByEMAABgEemDAwBA2zNjiBwAAAhhdLko63oII6yu9i/2evuXUxE6mAVjq7wXv8d9XgmATjgAmB9CGAAAwCLSBwcAgLZnxhA5AAAQwuhyUbYMIQwA/9/7AzAAi0MIAwAAWET64AAA0PbMGCIHAABCGF0uyoQwAHTCAcA8EcIAAAAWkT44AAC0PTOGyAEAgBBGl4syIQwAnXAAME+EMAAAgEWkDw4AAG3PjCFyAAAghNHlokwIA0AnHADMEyEMAABgEemDAwBA2zNjiBwAAAhhdLkoE8IA6L7eVn+jt1nediUAWARCGADtWl3tX1y/1i+j38hiaXq5sr73Ze8yoKuEMAAA0PbMGCIHAABCGF0uyoQwAACAeSKEAfNlba241Nve+8XqtZ3fdTU6rihWtq6//P3ohylfufVZ9BlZLE0ud958a9DPF8vX9m7+VbzmvPGALhHCAABA2zNjiBwAAAhhdLkoE8IAAADmiRAGzJf41np1+RIoipWi//LPbty89eRXv/5AByZn5snTp88evPf+sz/78+/8c7zmBDGALjEbLQAA50UIAwAAhDBouSgTwgAAAObJ+ubud9a3937qSsB8EMJYDjErQQyKf/TxJzovORfxWovQzzduvPYD70AAAACYjRAGAAAIYdByUSaEAQAAzJPe1u73ett7v3AlYD4IYSyHeI5jdgI4TzHrSrz2Vlf7F70LAQAAYHpCGAAAIIRBy0WZEAYAADBPhDBgvghhLM9z/OTpUx2XnLvylVufrV/rl96JAAAAMD0hDAAAEMKg5aJMCAMAAJgnQhgwX4Qwui/6h+68+ZZOS1oRfZMv7rx0xzsRAAAAZuvPEcIAAAAhDFosyoQwAACAeSKEAfNFCKP7FqV/iG56+513n13/gz/8iXciAAAAzNafI4QBAABCGLRYlAlhAAAA80QIA+aLEEb3CWHQpr++/zdCGAAAAHCC/hwhDAAAEMKgxaJMCAMAAJgnQhgwX4Qwuk8IAyEMAAAAWLz+HCEMAAAQwqDFokwIA6D7YuBcb6u/4UoAsAiEMGD+2pLq8m4TwkAIAwAAABavP0cIAwAAhDBosSgTwgDQCQcA80QIA+aLEMZy1AtCGAhhAAAAwGL15whhAACAEAYtFmVCGAA64QBgnghhwHwRwliOekEIAyEMgCZqmf5Gb7O87UoAAHAe/TlCGAAAIIRBi0WZEAaATjgAmCdCGDBfhDCWo14QwkAIA6CZz1R9cAAAaHsO6fYAAAAhjC4XZUIYADrhAKAt69vlG9Hen2aJdV0xOH9CGMtRLwhhIIQB0Mxnqj44AAC0PYd0ewAAgBBGl4syIQwAnXAA0Jqi+NK0IYxY1wWD8yeEsRz1ghAGQhgAzXym6oMDAEDbc0i3BwAACGF0uSgTwgDQCQcA7X5O7b1zXAAj1nGloB1CGMtRLwhhIIQB0Mxnqj44AAC0PYd0ewAAgBBGl4syIQwAnXAA0Kavbu++flwII9ZxpaAdQhjLUS8IYSCEAdDMZ6o+OAAAtD2HdHsAAIAQRpeLMiEMAJ1wANCqovjScSGMWMeFgnYIYSxHvSCEgRAGQDOfqfrgAADQ9hzS7QEAAEIYXS7KhDAAdMIBQNt6O7v/17gARtznCkF7hDCWo14QwkAIA6CZz1R9cAAAaHsO6fYAAAAhjC4XZUIYADrhAKBt69vlG72ifHokgHFwW9znCkF7hDCWo14QwkAIA6CZz1R9cAAAaHsO6fYAAAAhjC4XZUIYADrhAKBt//3aN/6bcTNhxH2uELRHCGM56gUhDIQwAJr5TNUHBwCAtueQbg8AABDC6HJRJoQBoBMOAOZBb3vvF0dmwji4zZWBdglhLEe9IISBEAZAM5+p+uAAAND2HNLtAQAAQhhdLsqEMAB0wgHAPPj9rfJf9Yry6SiAcfBz3ObKAJx9vSCEgRAGQDOfqfrgAADQ9hzS7QEAAEIYXS7KhDAAdMIBwDy4enXzuepMGHGbKwNw9vWCEAZCGADNfKbqgwMAQNtzSLcHAAAIYXS5KBPCANAJBwDzYqPYfe+LEMbue64IwPnUC0IYCGEANPOZqg8OAABtzyHdHgAAIITR5aJMCANAJxwAzIsXtvf+x15RPo0lfnZFAM6nXhDCQAgDoJnPVH1wAABoew7p9gAAACGMLhdlQhgAOuEAYF5cvbr5XJoJI352RQDOp14QwkAIA6CZz1R9cAAAaHsO6fYAAAAhjC4XZUIYADrhAGCe9Ird/y8WVwLg/OoFIQyEMACa+UzVBwcAgLbnkG4PAAAQwuhyUSaEAaATDgDmSW9791/H4koAnF+9IISBEAZAM5+p+uAAAND2HNLtAQAAQhhdLsqEMAC6b3W1f3FtrbjkSgAwj59RV9b3vrx+rV9GfRLLRtH/n1/Y3v1f0+9xX6wT67piAM0TwkAIA6C5z1QhDAAAtD2HdHsAAIAQRpeLMiEMAADgvESQIkIV37jx2g+2r3/zUbT1Y/njP/nTp1Gb1C1xX1ovHhOPjW0IZQA0QwgDIQyA5j5ThTAAAND2HNLtAQAAQhhdLsqEMAAAgDNVFCu9rf7G18ubfxtt+xs3bz354Y9+/OzBe+8/e/TxJ1PXBbFuPCYeG9uIbcU2Y9uxDxca4GSEMBDCAAAAgMXrzxHCAAAAIQxaLMqEMAAAgLMSM1ZsX3/5H8tXbn0W4YmHH37UWJ0Q24ptxrZjH7EvVxyat7ZWXHphu3z7X6y9+N+6Gt0khIEQBgAAACxef44QBgAACGHQYlEmhAEAADQtZqfY2f3mL6MtH4Mrnzx9emb1Qmw79hH7in0OZsYAGnNlfe/L6vJuE8JACAMAAAAWrz9HCAMAAIQwaLEoE8IAAACaEt+YHwMpow0fs1Q8fvzpudUNsa/YZ+w7jiGOxTMCpyeE0X1CGAhhAAAAwOL15whhAACAEAYtFmVCGAAAQBNiBoqvlTf/KWqMRx9/0lr9EPuOY4hjMSsGnJ4QRvcJYSCEAQAAAIvXnyOEAQAAQhi0WJQJYQAAAKf14s5Ld9LsF/MizYoRx+YZgpMTwug+IQyEMAAAAGDx+nOEMAAAQAiDFosyIQwAAODEimJl6/rL3482+4P33p+7WiKOKY4tjjGO1RMGsxPC6D4hDIQwAAAAYPH6c4QwAABACIMWizIhDIDuW13tX1xbKy65EgA0qihWiv7LP7tx89aThx9+NLf1RBxbHGMcqyAGzE4Io/uEMBDCAAAAgMXrzxHCAAAAIQxaLMqEMAB0wgHAScTsEhFuePTxJ6dq7z9+/OkgKBGzVsRAzLffeXewxM9xW9wX65xGHGMc62BGDGAmQhjLUS8IYSCEAQAAAIvVnyOEAQAAQhi0WJQJYQDohAOAWb2489KdaKefdAaMCEXEoMs7b741aO/HcuPVbz2L+uT1b78x+jn+TffHuvGYk4Y+4lhjO3HsnkGYnhDGctQLQhgIYQA0027qbfU3XAkAAM6jP0cIAwAAhDBosSgTwgDQCQcAs4hBRdFGj1kqThKEiBokHh9hi5jxohrkiMGY1Tol1ol14zHx2Lj/JAGQOOZ4vIFRMD0hjOWoF4QwEMIAaOYzVR8cAADankO6PQAAQAijy0WZEAaATjgAmNbaWnHpa+XNf/rhj348U5v+8eNPR+GL4wIUdSGMcUGO+De2PYs49jiHOBfPKBxPCGM56gUhDIQwAJr5TNUHBwCAtueQbg8AABDC6HJRJoQBoBMOAKYVgyRnrSFi9okbr35rNIvFcTNYHBfCSEGMNJtGbHvWWTli+wZ8wnSEMJajXhDCQAgDoJnPVH1wAABoew7p9gAAACGMLhdlQhgAOuEAYBq9rf5GtM0fffzJTAMr4zFp5oyoP+68+dbEx8TMFsftI7aRapnYduwj9jWt2H48Js7JMwuTCWEsR70ghIEQBkAzn6n64AAA0PYc0u0BAABCGF0uyoQwAHTCAcA0dna/+csUpphGCkfks1REwKJ626zisbGN2Fb1tlmPL87JMwuTCWEsR70ghIEQBkAzn6n64AAA0PYc0u0BAABCGF0uyoQwAHTCAcBx1q/1y2rw4bgBlbH+r379wZH7Hn740bMnT5+euD6Ix8Y2qmJfs8yIkQIhcW6eYRhPCGM56gUhDIQwAPTBAQCg7dko3R4AACCE0eWiTAgDQCccAExUFCvb11/+x2nDDWlWitPMdnFSs+47zinOLc7REw31hDCWo14QwkAIA0AfHAAA2p6N0u0BAABCGF0uyoQwAHTCAcAkva3+RvnKrc+mmb0iZpe48eq3nv3wRz8+1WDM09Qpse84hmlm7YhzinOLc/RMQz0hjOWoF4QwEMIA0AcHAIC2Z6N0ewAAgBBGl4syIQwAnXAAMMnXy5t/O22oIuqL17/9xqkHY562ToljmHYbcW5xjp5pqCeEsRz1ghAGQhgA+uAAAND2bJRuDwAAEMLoclEmhAGgEw4Axlld7V+M9vjDDz86tt0e68S6sUSdMc1MFE2HMGKf8dh0HLMcd5yrZxyOEsJYjnrhrPuHfvvb3z774IMPnv3mN7858Tbi8QeH++zHP559tqXYbzzuj/7oj55973vf62Sfa5zfSa+PEAaAPjgAALQ9G2eIHAAACGF0uSgTwgDQCQcA46xf65c3bt56Mk27PWqLWCLUcOfNt6YOQTQVwkhhith3/JyOZxpxjnGunnE4SghjOeqFs+4funz58iAg8Du/8zvPnjx5cqJtnCaEEcGLeGyEMBYtpDAvIYyf/vSng+dACANAHxwAANqeUzFEDgAAhDC6XJQJYQDohAOAcb5x47Uf/PBHxw/mfPTxJ0dCFw/ee//Zk6dPzy2EEfuKfVZDGXFsx4lzjHP1jMNRQhjLUS+cZf9QCk9EACP+/fnPf37uIYwIX1zo+J/+zzqEcVbbFsIA9MEBAEBH256GyAEAgBBGl4syIQwAnXAAMM729W8+yoMNkwZQvv7tNxobjNlUnRLHFNs7TpxjnKtnHI4SwliOeuEs+4f+4i/+YjCAP4Uovv71r9eH6Z48Gcy2kGZciCWfNWNcCCPWj9vqZmn47W9/OwonpMdWQyD/8A//MDjGunBIenw6nnH7SccX98dj8u2m3+vWqz4miWOJx8Y2xonHxDrpeKohjHHbHnd7/B77jfvimubrp+cwzSRSfawQBoA+OAAAtD2PMEQOAACEMLpclAlhAOiEA4A6q6v9i9POJHHnzbeevf3Ou3MXwohjimM7TprJI87ZMw8VRbEyqMmL4ksuxvxZWysunfb/rrPsH4oQxcEunl2+fPnzz4s7dwa//+Y3vzkSAEgzZcS/+c9pwH9dCCMFDyLYkQc2qsGNfIkgQXpsvp/07/e+970jj08zaVyYMBtEOpYILOTrp9vS8eXrpftTkCJuS8eSlrh2+T5jO/ljY/3YX7q2ad20n2popO72CF9U9xvbrIZYqscrhAFw9DNVHxwAANqeQ4bIAQCAEEaXizIhDACdcABQJ337/XEeP/500GZ/+OFHcxfCiGOKY4tjnKbuiHP2zAOL1taP/782tvf+bv1avzxJIOMs+4diRoULWTAgZna4MAwgTFovXzeFJqohjAgOXJgQwKj0R462k28rAg5pBoy4LbZ1IQuJ5CGONDPFuFkg8rBCmgEjHh/7iNvSrBbV9eL2OP50Pvkxxb/p8Wm/6VrFsabZQqqzfcwSwsivRRxLnHsKZKRZS8bNQiKEAaAPDgAAbc+xDJEDAAAhjC4XZUIYADrhAKBODOb94z/506fTBh2aHIzZZJ0ybUAkzjXO2TMPLFpbfxDCOFh6RfnZSQIZZ9k/VA0QpNtikH8enMhnh8jl6+RBgFkCGHUhjJjt4kJNqCAFPyLokO8zjvc46Rzy/eTbrIYj0uwgSZo9IwUwqgGVdHtarxquSAGSWUMY6VqkkEi67rFe2pYQBoA+OAAAtD1nZogcAAAIYXS5KBPCANAJBwCnqRcevPf+sxuvfmtuQxhxbHGMx4l9xjl75oFF+786hTDyJQ9kxDpra8Wl0/5/P6s0cP/OnTuHbk+D/vOwQQz6z2dfiHWq4YF8e7FuhBimCWDUhTDGBRliFoj8mNM+q+GQSSGM6rppm2n/ab04x7oQRZqFo3reabtpveqMHHH/hROEMNK1GDfDhxAGgD44AAC0PU/EEDkAABDC6HJRJoQB0H29rf5Gb7O87UoAcBb1QtOhiaa3F9uKbQphAF39v7ouhFEbyNgpfxl1QTWQcVb9QxFkONj82CXCBNWB/hEkSGGMC8PZIlI4IAUB8iWfveEkIYxq4CGte2E4TGCW8EEKN9Stm5/vuPXSeVdVQxzj1qtud9oQxrjtCWEAnOxzWQgDAABtzyFD5AAAQAijy0WZEAYAAFAnBupOUy+8/c67z17/9huDQZRpefz401MNxqxub9Zt5+vHtuIYpwlhpAHLnn1gUUwTwhgXyFjf2bsTgYyz6B+K4MTB4Q0G+Ed4oLqkgf91IYg06D/N+JBmgEhBgLg9whdp+5NmcBgXwkizcVRDHGkfad2ThDCqM2FUZwQZF8JIM1mMmwEkHdO4AEm6vRrCqJ5jdT/j9iuEAXCyz2UhDAAAtD2HDJEDAAAhjC4XZUIYAABAnVlCGDde/dYgxJCWRx9/cuL2f4Qs8m1Vl2m2na8fxzZrCMNisVi6upxXCCMFACLsUOfnP//5ocBCBAXittyTJ08mzkrx05/+tHZGjWlCGONCBem4UmDiJCGM6vGkwEgc76QQRtp39TpUr+W4GS5i1pC66zNuxo30+HH7je3FucTzIIQBMJ3V1f7F6oxTAABwFoQwAABACIOWizIhDAAA4DT1QgyenOe6Io4tjnGa9eKcPfPAov1fPUvwIgJ21cGhZ9E/lAIB42apiIH9EQaIJX5OszhEcCAeE7dVZ5aoCwKkx40Le4wLYaTb0mNjn7HdakDhJCGMtK94bJxPdZvjQhgpdBLrx30x00UcW3p8upbpmNJ6+awh+XbTbCTxXETAItbLZyFJx5OHXfL95tc1bkvbisdNM/uIEAYAAACcbZ+QEAYAAAhh0GJRJoQBAACcpl548N77g9km5lUcWxyjEAbQ1f+rJwYvtvf+LtaZ9K3cTfcPpZkfjpuhIsIVF4YzMKRQxoVhGCAtcVs1fJCHF/LHxX5nCWHE9mLGi3x/sU4+I8RJQhgRXMgDGSkEUV2vbptxDilYkpY4xnzWixRQya9X/JyuZ77ddFtaJ0IhdTNppIBGvt80C0bdtpqcEUMIAwAAAE7WJySEAQAAQhi0WJQJYQAAAHXWr/XLP/6TP316XHv94YcfDdrs81xPxDEeJ841ztkzDyySPISRBy/i/7PV1f7FabfRZP9QhCammS0hrRezLCTxcwQWIiyQ357CB3XbrdtO1aT74/FpBo6qcfucFMLIZ6LIwxezXJ9Jx5QfW6wTwY34edL1ifVSoGLS/qe5FmbCAAAAgPnoExLCAAAAIQxaLMqEMAAAgDpX1ve+PE244vHjT6cOOpy3FBCJY5ym7ohz9szDYTGQf31r77tXr24+52rMn1EIY8bgRXUbi9A/NO8mzXCBEAYAAAA03SckhAEAAEIYtFiUCWEAAAB1YiBvtMUfffzJsW32O2++9eztd96du1oijimO7ThxjnGuJxm8DF2XAlnq8vm0tlZcOu3/XUIYQhhCGAAAALBYhDAAAEAIg5aLMiEMAABgnO3r33z04L33pxpA+fq335i7WiKOKY7tOHGOca6ecThKCKP7hDCEMIQwAAAAYPH6c4QwAABACIMWizIhDAAAYJxv3HjtBz/80fGDSdNMEg8//OhQsOHJ06fnVjfEvvLASBzLtDN5xDnGuXrG4SghjO4TwkAIAwAAABavP0cIAwAAhDBosSgTwgDovt5Wf6O3Wd52JQCY1fq1fnnj5q0n07Tbo7aIJcIPd95860go46yl0EXsO35OxzONOMc4V884HCWE0X1CGAhhAAAAwOL15whhAACAEAYtFmVCGAA64QBgnNXV/sVpwxQpBBFL1BmPH3967rVD7DP2nY5jluOOc/WMw1FCGMtRLwhhIIQB0Ey7Kb4MxZUAAOA8+nOEMAAAQAiDFosyIQwAnXAAMMnXy5t/+8Mf/XiqtnvUF69/+43Wa4g4hmlrnTi3OEfPNNQTwliOekEIAyEMAH1wAABoezZKtwcAAAhhdLkoE8IA0AkHAJPEN7mWr9z67MnTp8e23WMmihuvfuvZtKGNsxD7jmOYZiaOOKc4N99WC+MJYSxHvSCEgRAGgD44AAC0PRul2wMAAIQwulyUCWEA6IQDgImKYmX7+sv/GIMkp/HgvfcHbfj497zNuu84pzi3OEdPNNQTwliOekEIAyEMAH1wAABoezZKtwcAAAhhdLkoE8IA0AkHAMdZv9Yvo10+zewSaUBlrP+rX39w5L6HH370bJpZNcaJx8Y2qmJfsc9pwyJxLoNa4+DcPMMwnhDGctQLQhgIYQDogwMAQNuzUbo9AABACKPLRZkQBoBOOACYxs7uN3/5wx/9eOp2fKxbnZUiBR9OM0tGmu0iD4Sk22Y9vjgnzyxMJoSxHPWCEAZCGADNfKbqgwMAQNtzSLcHAAAIYXS5KBPCANAJBwDT6G31N6Jt/ujjT2YaWJmHI6L+uPPmW6euEWIbqZZJYY9pZ8AIcQ7xmDgnzyxMJoSxHPWCEAZCGADNfKbqgwMAQNtzSLcHAAAIYXS5KBPCANAJBwDTikGSs9YQMUvFjVe/9ez1b78xaNs//PCjYwdjHreP2EZsK7YZ2551Zo3YvgGfMB0hjOWoF4QwEMIAaOYzVR8cAADankO6PQAAQAijy0WZEAaATjgAmNbaWnHpa+XNf0ozW0zr8eNPB8GHaNvHv5OCGMeFMOKx+bZi27OIY49ziHPxjMLxhDCWo14QwkAIA6CZz1R9cAAAaHsO6fYAAAAhjC4XZUIYADrhAGAWva3+RrTRZ519ohqgiFks3n7n3SOBjLoQRqwT66bZNI4LcowTxxyPj3PwTMJ0hDCWo14QwkAIA6CZz1R9cAAAaHsO6fYAAAAhjC4XZUIYADrhAGBWL+68dCfa6ScJQoRHH38yGHR55823Bu39WG68+q1BuCKCFunn+DfdH+vGY+KxJxHHGtuJY/cMwvSEMJajXhDCQAgDoJnPVH1wAABoew7p9gAAACGMLhdlQhgAOuEA4CS2rr/8/Rs3bz05aSgiefz400FAImapiIGYMeNFLPFz3Bb3xTqnEccYxxrH7JmD2QhhLEe9IISBEAZAM5+p+uAAAND2HNLtAQAAQhhdLsqEMAB0wgHAiRTFStF/+WcRbjjpjBjnIY4tjjGONY7ZEwezEcJYjnpBCAMhDIBmPlP1wQEAoO05pNsDAACEMLpclAlhAOiEA4ATK4qVmF0i2uwxa8W8iWOKYxvMgCGAAScihLEc9YIQBkIYAM18puqDAwBA23NItwcAAAhhdLkoE8IA0AkHAKf14s5Ld6Ld/sMf/Xhu6og4ljimODbPEJycEMZy1AtCGAhhADTzmaoPDgAAbc8h3R4AACCE0eWiTAgDQCccADSht9Xf+Fp585+ixnj08Set1Q+x7ziGOJY4Js8MnI4QxnLUC0IYCGEANPOZqg8OAABtzyHdHgAAIITR5aJMCANAJxwANGVtrbgUAynTrBiPH396bnVD7CvNfhHHEMfiGYHTE8JYjnpBCAMhDIBmPlP1wQEAoO05pNsDAACEMLpclAlhAOiEA4CmxQwUO7vf/GW05WNw5ZOnT8+sXohtxz5iX7FPs19Aw4piZVCTF8WXXIzu1gtCGAhhADTzmaoPDgAAbc8h3R4AACCE0eWiTAgDQCccAJyV9Wv9cvv6y/9YvnLrs5il4uGHHzVWJ8S2Ypux7dhH7MsVBzhZvSCEgRAGQDOfqfrgAADQ9hzS7QEAAEIYXS7KhDAAum91tX9xba245EoA0IqiWInZKb5e3vzbaNvfuHnrSYQnHrz3/rNHH38ydV0Q68Zj4rGxjdhWbHMw88XBPlxogJMRwkAIA6C5z1QhDAAAtD2HdHsAAIAQRpeLMiEMAADgvEQwMGas+MaN136wff2bj6KtH8sf/8mfPo3apG6J+9J68Zh4bGwjtuWKApyeEAZCGADN1Tu+CAUAgPPqzxHCAAAAIQxaLMqEMAAAgLbEIKUr63tfjlBF1Cex9DbL2y/uvHQn/R73xTpCFwBnQwgDIQwAAABYvP4cIQwAABDCoMWiTAgDAAAAYHkJYSCEAQAAAIvXnyOEAQAAQhi0WJQJYQAAAAAsLyEMhDAAAABg8fpzhDAAAEAIgxaLMiEMAABgkWuaWFZX+xddDYCT/18qhIEQBgAAACxWf44QBgAACGHQYlEmhAEAACyqqBViubK+92VXA+BkhDAQwgAAAIDF688RwgAAACEMWizKhDAAAIBFFX9kimVtrbiUbotARvU2AMYTwkAIAwAAABavP0cIAwAAhDBosSgTwgAAALpW55gdAxpUFCuDmrwovuRidPf/TSEMhDAAAABgsfpzhDAAAEAIgxaLMiEMgO5bXe1f9G3gACzi59cgSFEUK7M8Lv7wJIQBzYn3krq824QwEMIAAACAxevPEcIAAAAhDFosyoQwAHTCAcBprRf796PdHp851fvi9lh6O7t3q/elwMT6tX45uKEoVnpb5b3ezt6D9LjB/QfbH61Ts+0YJJ4GileXumMCpieEsRz1ghAGQhgAp+eLUAAAOM/+HCEMAAAQwqDFokwIA0AnHAA08VkT7fbq500ejIhgxaEHFcVKui8GK+Xb6RXlwwht9DbL23kgozqgKQ9hxDbS41PoI343IwacjhDGcvwfLoSBEAZAM5+p+uAAAND2HNLtAQAAQhhdLsqEMAB0wgHAaUU4IoUn8tsjRJECGHnYYnBfb/9yHs6I+0YBiq3+xqHtbJX36mbTyEMYk24DTk4IYznqBSEMhDAAmvlM1QcHAIC255BuDwAAEMLoclEmhAGgEw4AmhABjOpsFevF/v0UqqiGK0YBjYN/BzcUxUoM9q4LT6xf65d1IQ8hDDh7QhjLUS8IYSCEAdDMZ6o+OAAAtD2HdHsAAIAQRpeLMiEMAJ1wANCEmKVi0Ha/1i8HNxTFSvwen0Fplot8JotRQKO3f7m6rRj0HYGN+AyLJW07lnw9IQw4e0IYy1EvCGEghAHQzGeqPjgAALQ9h3R7AACAEEaXizIhDACdcADQhC9mu4s/D9kAAIAASURBVCjvDX7v7V+O3+NzaPD7zt6DWAYrDwMa1VBFBDjSjBrjlnx9IQw4e0IYy1EvCGEghAHQzGeqPjgAALQ9h3R7AACAEEaXizIhDACdcADQiGGwIgUtepvl7TwMkWaziFkxUkAjBTYG9w9DHIPbi/JhrBOPjSU+y4QwoB1CGMtRLwhhIIQB0Mxnqj44AAC0PYd0ewAAgBBGl4syIQwAnXAA0JT1Yv9+Clqkn9N9X8yU0d9IAY2Y+eKL+8t7oxBGb/9yvt0U4BDCgPMnhLEc9YIQBkIYAM18puqDAwBA23NItwcAAAhhdLkoE8IA0AkHAE1J4Yo0c0X++bO2Vlz6fKaM3bt5WGP02J29B4P7D7ZxZLvD+4Qw4PwJYSxHvSCEgRAGQDOfqfrgAADQ9hzS7QEAAEIYXS7KhDAAui8Gu8a3i7sSAJy1NFg7hSai5jj0mVSUD9N9EcSofl5Vb4/t5TNkTBO4GIU5DrbnGYHm3tfq8u4SwkAIA6C5z1QhDAAAtD2HdHsAAIAQRpeLMiEMgO6LDrjqIFgAOCsRtBg3G0UeqKjOeJFmykghjjRbxuD3rf5GfJ6l+9Jja0MYB+uOHndwLD4D4ZTv6a3yX6nLu00IAyEMgOY+U4UwAADQ9hzS7QEAAEIYXS7KhDAAOq4oVtLgVRcDgPOQBy2q961f65fjAhqfP7a/cSiocfBzr7d/Oe6L9eOPSrFMCmGEtN5gXZ+BcGKjWTCKvf/oanSXEAZCGADNfaYKYQAAoO05pNsDAACEMLpclAlhAHRbDFKNbwGPMIarAcCiWF3tX3QVoP334XpRfhA1+eq1nd91RbpLCAMhDIDmPlOFMAAA0PYc0u0BAABCGF0uyoQwALorvvnbLBgAAMykKFa+ur37eq8o/yEWAYzuE8JACAOguc9UIQwAALQ9h3R7AACAEEaXizIhDIDuWVsrLvW2ynuDAMZmedsVAQA4gWEY4YXN8u317fInk5YXiv3704QVop0W6x63vWmX5ve799NoQw7q8KL8QABjOQhhIIQB0NxnqhAGAADankO6PQAAQAijy0WZEAaLZHW1f3H9Wr9cL/bvp4FBxy3xOj9uu1fW97487famWaY5l+gQaWp/05xjrNPU/qbtzGnymsZz1PVzbPp1E++Taa4bAAB17a7d13s7e/8lgggb27v/2wsv7v/LScv65u53rl7dfG6qmuZg3eO2N+1yJvvd3Pt3a5u7z3sV6B+C8/D2O+8KYQCd+kwVwgAAQNtzSLcHAAAIYXS5KBPCYFH0tvobvaJ82NvZexDf7B+Dy6dZYrDRsRsvipVptzfNMs35xDfRNrW/ac4x1mlqf3Hs05xjo9f04Dnq/Dk2+LqZ6nUPAEBtbfDCVvn/DmYU29791y4I+ofgbN15861nL+68dMc7EejKZ6oQBgAA2p5Duj0AAEAIo8tFmRAGi6DX2788GAS1s3t3msH4AAAAJ/H7xfUrg5nFNst/62qwLGLGyfKVW5/pteS8PXn6dOrZLwEWgRAGAADanhldHwAAIITR5aJMCINFMJj9Yqu850oAAABnJWYTO6g9/ssL23v/+erVzedcEZbptR99L7/69Qc6LjlXD957f9Dv510IdIUQBgAA2p4ZXR8AACCE0eWiTAiDeZdmwYhBIa4GAABwVuKb2NWfLKut6y9//8bNW08effyJzkvORbzW/uzPv/PPX9u7+VfegUBXCGEAAKDtmdH9AQAAQhhdLsqEMFiE1+l6sX/flQAAAM6SEAZLrShWiv7LP4tB8TE7wZOnT3VicmZi1pUI/cRrLl573oBAl9qTva3+hisBAMBZE8IAAAAhDFouyoQw0HkAAAAghAExGD5mJYj3QSx33nzr2dvvvPvsr+//jcVy6iVeS9EPWb5y67N4fX3jxms/EMAAAACAkxHCAAAAIQxaLsqEMNB5AADAuSiKldS2i6XX27/sojBPhDDg8Puht1nevv4Hf/gTy+TlGzde+7+/vv/q/+NaHL+8uPPSnfVr/XJ1tX/RuwwAAABOTggDAACEMGi5KBPCQOcBAADnobezezd9u3os0c5zVZgnQhjASUSowGcaAAAAcJ6EMAAAQAiDlosyIQx0HgAAcB5S+CLadjHY3bdgM2+EMIATfb7tlL/c2N77O1cCAAAAOC9CGAAAIIRBy0WZEAY6DwAAOA8phBED3V0N5pEQBjCrtbXiUvp8u1AUK64IAAAAcB6EMAAAQAiDlosyIQx0HgAAcJZ6W/2NaNOlQaq9nd278fuhMEZRrKT1elvlvcG/vf3LdQNa475Y4ucY/BqPi8WV5rSEMIBZre/s3Rl9vvksAgAAAM6JEAYAAAhh0HJRJoSBzgMAAM5StOXSANV8SUGKGPje29l7ULfOerF/P4IW+fbyGTXSz9qLNEEIA5hVryj/0+izqNj7N64IAAAAcB6EMAAAQAiDlosyIQx0HgAAcJYiRJEHJuLnWFZX+xcHM2AU5cN8lozPQxm7d7+4be9Bvr389hTAWL/WL11pTksIAzjJ/xlfLOV/dVUAAACA8yCEAQAAQhi0XJQJYaDzAACA85AGqVbbeoNARVE+HIQyMvH7KHCx1d+obmewraJYcWVpihAGMIv1Yu9/qc7gVJ29CQAAAOAsCGEAAIAQBi0XZUIY6DwAAOA81IUwop2XZrOoe0ya7SLahNXtxGwZripNiuDP+tbed69e3XzO1QCO/Vzb3n+UBzB6RflZ/nkFwPLRlw0AgLZnxhA5AAAQwuhyUSaEwbyLb6PtbZa3XQkAgMVWF8JYL/bvV0MWubqQxmiwa2//sqsKQBviM6g6C8Zg2Sl/4uoALC8hDAAAtD0zhsgBAIAQRpeLMiEMAADgPNSFMNJt69f65biaZVwII8K6rioAbXih2Ps3tSGM+JwrihVXCGA5CWEAAKDtmTFEDgAAhDC6XJQJYQAAAOehLoTR29l7cNKZMIQwAGhFUayMC2CYqQlguQlhAACg7ZkxRA4AAIQwulyUCWEAAADnoS6EUReyyNWFNIQwAGhTb6u/MSmEEbNkuEoAy0kIAwAAbc+MIXIAACCE0eWiTAgDAAA4D3UhjKhJBt8aXpQP45vFDz0g+6bxGPBa3Y4QBgBteGGn/MHEmTCK8j+5SgDLSQgDAABtz4whcgAAIITR5aJMCAMAADgPdSGMCFpEACMFMdav9cu4LWqV0e07ew/qtiOEAcC5ywKCk5a1teKSiwWwfIQwAADQ9swYIgcAAEIYXS7KhDAAAIDzUBvCONDr7V9OgYsj3ya+s/egOpBVCAOAtsTMTMcFMHo75dNBqBCApSOEAQCAtmfGEDkAABDC6HJRJoQBAACcV/0RS919q6v9i4PZL7bKe/GHo97O7t3BukWxMm478RhXFYDzFJ9R08yE8cJ2+X+4WgDLWfMIYQAAoO05ZIgcAAAIYXS5KBPCAAAAAICTMeAWAJ8JAABoe9YwRA4AAIQwulyUCWEAAADAhQtX1ve+rP4EZmXALQA+EwAA0PasYYgcAAAIYfz/7N1RiBz5fSdwPcxDQAd5kV+TkBdjYg0rdxJNjzQzNbtWa7rXu6sNziE7sR8ucL7gYS+wRx4WdDbsuxFOHozJEvbBG4JxDufpbD3YLxtzDoHoggnGawwH0S4kaJeDW4eVQNe/1vxnS73dM909XV317/p84I+k7uqq6ur6t6r+//+3/+t8UyaEAQAAAEIYwGIMuAXA/wkAALj2nMAQOQAAEMJY55syIQyarrvb2+7u9A8dCQAAoEpCGMAiDLgFwP8JAAC49pzAEDkAABDCWOebMiEMNB4AAAAIYQCL0W4BgP8TAABw7TmBIXIAACCEsc43ZUIYaDwAAAAQwgAWo90CAP8nAADg2nMCQ+QAAEAIY51vyoQw0HgAAAAghAEsRrsFAP5PAADAtecEhsgBAIAQxjrflAlhoPEAAABACANYjHYLAPyfAACAa88JDJEDAAAhjHW+KRPCQOMBAACAEAawGO0WAPg/AQAA154TGCIHAABCGOt8UyaEgcYDAAAAIQxgMdotAPB/AgAArj0nMEQOAACEMNb5pkwIA40HAAAAQhjAYrRbAJB0d3vb3Z3+oSMBAEDVhDAAAEAIg5pvyoQw0HgAAAAghAEsRrsFAAAAsGpCGAAAIIRBzTdlQhhoPAAAABDCABaj3QIAAABYNSEMAAAQwqDmmzIhDDQeAAAACGEAi9FuAQAAAKyaEAYAAAhhUPNNmRAGGg8AAJhHDFTv7vZvxzValO7+wd3uTv8wHp+0/NaVXn+0XNG/F9f2j19z/da5otgoL9fpFBdGzw3XFc/Fn1vF4M5o/cPl0/pjufh3PD56fre3PXFHh+tI15Kx7Sjx99gfnyLTzm33n8C8tFsAAAAAqyaEAQAAQhjUfFMmhIHGAwAA5rk2i+vzVOI6rfzvCEiUlx9/PgUx0t/Lyx8PgC8Gd8Zfl5YfBUBK6zh+bv/gbnm7m5u987Ge8eXK+z0eAgEhDEC7BQAAAJADIQwAABDCoOabMiEMNB4AADCrCDuMQg8xW8UTj1+/lQIUx4/t9rY/DElcvxXBiDQ7RXlWjLR8GgCfAhdpxopud3AxbTcFLtKsGOVtjNY/tj+j5UszZcQ607ZjP3yilAlhANotAAAAgBwIYQAAgBAGNd+UCWGg8QAAgFlEyCEFG1JA4lhRbETYIYUjwnFgY//6rfF1lQMXaTaMJ0IYpeBEKM+MMT7bRgpVHL9muC9T9/Pc4yDGpNkzQAgDWIR2CwAAAGDVhDAAAEAIg5pvyoQw0HgAAMCsurv928dBie7g4knLnhSEKAcl0nrKIYzyrBbpmjDNkDG+qhTQSDNblNcT2xlfPkIcJz1PewlhAIvQbgEAAACsmhAGAAAIYVDzTZkQBhoPAACYVXk2jFTiWm00C0Up0FAOOpRnxyhLM1hMDE9MuCZM2xp/bjyEEaGO8X2cVqbtG+0khAEsQrsFAAAAsGpCGAAAIIRBzTdlQhhoPAAAYB4RxIjZLbr7B3fLgYYIVaRQw0mzWiRbxeBOFSGM2LdyQOSkEmERnyhJnA9xXm9e2f+4owHMKoKI5f+HAGj3/wndnf6hIwEAQNWEMAAAQAiDmm/KhDDQeAAAwKIiYJEGn46HJI7DGd3BxUmvTc9HaCL+vawQRnk9QhYArEIMuI0QlxmWANpNWzYAAK49SwyRAwAAIYx1vikTwkDjAQAAZ1UOYqTgQ/r3pF8GLwclJs2eMemacNYQRmz/OAAy3C+fDgBVi/970v9H8WcEDEf/vxXFhqMD0B7asgEAcO1ZYogcAAAIYazzTZkQBhoPAACYRQwoHV2bF4M748+lAEW36N9LA067+9dvjR7bP7gbM2YcLzx8Pn4xfHz5ZYUwyo91d/u3xwfAxvuI7cb++VQBWKb4vyz+f4n/Z9L/aaeVWWfPmHV9tpvfduM6aZ51xvWNoCk0k7ZsAABce5YYIgcAAEIY63xTJoSBxgMAAGZSFBsRwEhBjLhOi4GF8WcELcaDEOMDCmNQ6mjZ0sDU8vLLDGGU15UCFzFYMQVDRo93Bxd9qABU+f9m/H90Wpl1toxZ1jVPsd0GbXfGc2UU8hlez8S1T1zfzBosAVZHWzYAAK49SwyRAwAAIYx1vikTwgAAAGbV6RQXUuBivIw6fMYGGk5bPgYOxowU5WWXGcJI65v0S+SjUIZfjwYAMhVB15gNY9L1D1AvIQwAAFx7lhgiBwAAQhjrfFMmhAEAAMxrNPivO7g4mtkiZpQ45Vee0y83R/Bi6q9Cl34FetL24vEIdYw/F4/Fc7HMtG3HdqNMej0AQI66O/3DCLvOOssHUD0hDAAAXHuWGCIHAABCGOt8UyaEAQAAAACQl9GMY6MZvvq3HQ1oBiEMAABce5YYIgcAAEIY63xTJoQBAAAAAJAfA75BnQQAwLVnYxkiBwAAQhjrfFMmhAEAAAAAkB8DvkGdBADAtWdjGSIHAABCGOt8UyaEAQAAAOfOPbV18BvuPwHIiQHfoE4CAODas7EMkQMAACGMdb4pE8IAAAAAIQwA8mPAN6iTAAC49mwsQ+QAAEAIY51vynIJYXT3Dr4W+6soiqIoiqIoiqIoVZTLVwf/dRTC2D34quOhKIqi5FC6u9f/rLt38KZjoSjqpKIoiqIoitKytsy9wRtCGAAAIISBEMapIQxFURRFURRFURRFURRFURRFURRFURRFURRFUR4XIQwAABDCQAjjxBDGU1sHv+ETAwAAoCpx3zmaCWPn2hVHA4AcpF8/dSRAnQQAoH2EMAAAQAiDGjsEhDBouvjsu7u9bUcCAACo+t5DCAOAnBjwDeokAADtJYQBAABCGNTYISCEgY4rAACWdd0WZXOzd97RIEdCGADkeP2l3QzUSQAA2kkIAwAAhDCosUNACAMdVwAALKvDx7U7ORPCACA32s1AnQQAoL2EMAAAQAiDGjsEhDDQcQUAwDLENVuUTqe44HqRHAlhAJAb10GgTgIA0F5CGAAAIIRBjR0CQhjouAIAIGdbxeBO4zubyIIQBgC50W4G6iQAAO0lhAEAAEIY1NghIISBjisAAMpiJotps1nEdfnmZu/8wisvio0zr2NsfXG/cFpnU7yf2O6ss3TEskvdT7IghAFAbuJaZdWzkAEAANAMQhgAACCEQU2EMMjlPBXCAACo7lorrrfjequ729vu7h/cTaGGbtG/F4/Fct2d/mF6fPTc/vVb4wGF9Fy6dk8D2kcdQUWx0d3t335iHcN/j1/nx35Mu/4v72t52fEy6TXjJd7P+Prj/cT7+siyw2OSjgPrTQgDAAAAAMiFEAYAAAhhUBMhDHI5T4UwAACqu9ZKQYMPgxf92/Fn+d8fhhE+DFJsFYM74x0+00IYseyHYY8P1xHrLK9jnhDG49DIh6GJeD5KWr4cHIntx3NPbHv49/L60z6O3udwvek6dPx9sb6EMAAAAACAXAhhAACAEAY1EcIgl/NUCAMAoLprrfLsFjFjxeiJ4Z/l2SC2rvT66TXjM1yUO3ymhTAi2PDENX1p/Z1OcSE9PE8I4yP7UhKzWjzxvkq63cHF8W2Xly/vz7Ttsp6EMAAAAACAXAhhAACAEAY1EcIgl/PUgDcAgOqutaaFD1IgImbDmNS5M3quO7g4/lj52n1aECKk2TfKs1csK4SRlh2freMj7+1ov54Ibez2tp0Z7SSEAQAAAADkQggDAACEMKiJEAa5nKdCGAAA1V1rTQtaREDhcSihf3v8uQg3jAcoTgxhlMIaSQpCVBHCSOuJP2OZ8ZLeW3ld6bHR/u70D0f7XJrpg/UnhAEAAAAA5EIIAwAAhDCoiRAGuZynQhgAANVda42HEcafK4ckkkkBipNCGJO2vYoQxmmlvK6YDSOFS8olwhnuR9pBCAMAAAAAyIUQBgAACGFQEyEMcjlPhTAAAKq71jpLCGNS4KJJIYwIVcTrppXubm97fDudTnEhZsIYD2S4J1l/QhgAAAAAQC6EMAAAQAiDmghhkMt5KoQBAFDdtVYTQxhbV3r98eVjRopZQxjd3f7tFMI4y/EZBTKK/r1px4j1IoQBAAAAAORCCAMAAIQwqIkQBrmcpwa8AQBUd621ihDG5mbv/LR1lNefwhMRuBhfflIYYloII0Icx48Xxcb4uuJ1EbBI/x6FLXZ72+XHjrfbHVw86X2wPkbnwd7Bm5tX9j/uaAAAMK+4z5g02x4AAFRBCAMAAIQwqIkQBrmcp0IYAADVXWutIoQx6Xp+UggjhSe6+wd3U+Ah/kyzYIzvawyaT48/MdipKDZSaCOCHR8JXKTnuoOL5fc6mjljLLQxaQYOAIAmMOAbmnd/5b4BAIBVEcIAAAAhDGrsEBDCQMcVAEC7r7WaFMKIwEV6TQpFHIcspoQh0uMR3ChvKwYkjq9rfH2T9idtI8IbaZ3uSQCApl7LaTcDdRIAgHYSwgAAACEMauwQEMJAxxUAQLuvtZoUwgijmSr2r99Ks1WMAhHdwcVYx6R9fTxTxsHdeDxKedaLeE05XJFeHzNufORgxOwZO/3DJ4Iaw30YhTH8wjQA0NBrOe1moE4CANBOQhgAACCEQY0dAkIY6LgCAKCRimJjVJa5vjmUwxwAAE2k3QzUSQAA2ksIAwAAhDCosUNACAMdVwAAAACQH+1moE4CANBeQhgAACCEQY0dAkIY6LgCAAAAgPxoNwN1EgCA9hLCAAAAIQxq7BAQwkDHFQAAAADkR7sZqJMAALSXEAYAAAhhUGOHgBAGTReffXe3t+1IAAAAAMCHDPgGdRIAgPYSwgAAACEMauwQEMIAAAAAAMiPAd+gTgIA0F5CGAAAIIRBjR0CQhgAAABw7lynU1zo7h28uXll/+OOBgA5MOAb1EkAANpLCAMAAIQwqLFDQAgDAAAAzp2L+864/9zauXbF0QAgBwZ8gzoJAEB7CWEAAIAQBjV2CAhhAAAAgBAGAPkx4BvUSQAA2ksIAwAAhDCosUNACAMAAACEMADIjwHfoE4CANBeQhgAACCEQY0dAkIYAAAAIIQBQH4M+AZ1EgCA9hLCAAAAIQxq7BAQwgAAAAAhDADyY8A3qJMAALSXEAYAAAhhUGOHgBAGAAAACGEAkB8DvkGdBACgvYQwAABACIMaOwSEMAAAAEAIA4D8GPAN6iQAAO0lhAEAAEIY1NghIIQBAAAAQhgA5MeAb1AnAQBoLyEMAAAQwqDGDgEhDHRcAQAACGEAkB/tZqBOAgDQXkIYAAAghEGNHQJCGOi4AgAAEMIAID/azaBZNjd75zud4oIjAQDAKghhAACAEAY1EcIgl/NUZzIAAFA1IQwAcqPdDAAAoL2EMAAAQAiDmghhkMt5qjMZAAComhAGALnp7va2uzv9Q0cCAACgfYQwAABACIOaCGGQy3kqhAEAAFRNCAMAAAAAyIUQBgAACGFQEyEMcjlPhTAAAICqCWEAAAAAALkQwgAAACEMaiKEQS7nqRAGAABQNSEMAAAAACAXQhgAACCEQU2EMMjlPBXCAAAAqiaEAQAAAADkQggDAACEMKiJEAa5nKdCGAAAQNWEMAAAAACAXAhhAACAEAY1EcIgl/NUCAMAAKiaEAYAAAAAkAshDAAAEMKgJkIY5HKeCmEAAABV63SKC929gzc3r+x/3NEAAGBem5u983FN6UgAALAKQhgAACCEQU2EMMjlPBXCAAAAAACgybRlAwCwSkIYAAAghEGNHQJCGOi4AgAAAACAs9GWDQDAKglhAACAEAY1dggIYaDjCgAAAAAAzkZbNgAAqySEAQAAQhjU2CEghIGOKwAAAADIj3YzUCcBAGgvIQwAABDCoMYOASEMdFwBAAAAQH60m4E6CQBAewlhAACAEAY1dggIYaDjCgAAAADyo90M1EkAANpLCAMAAIQwqLFDQAgDHVcAAAAAkB/tZqBOAgDQXkIYAAAghEGNHQJCGOi4AgAAAID8aDcDdRIAgPYSwgAAACEMauwQEMJAxxUAAAAA5Ee7GaiTAAC0lxAGAAAIYVBjh4AQBjquAAAAzp3rdIoL3b2DNzev7H/c0QAgB9rNQJ0EAKC9hDAAAEAIgxo7BIQwaLrubm+7u9M/dCQAAIAqxX1n3H9u7Vy74mgAkAMDvkGdBACgvYQwAABACIMaOwSEMAAAAEAIA4D8GPAN6iQAAO0lhAEAAEIY1NghIIQBAAAAQhgA5MeAb1AnAQBoLyEMAAAQwqDGDgEhDAAAABDCACA/BnyDOgkAQHsJYQAAgBAGNXYICGEAAACAEAYA+THgG9RJAADaSwgDAACEMKixQ0AIAwAAAIQwAMiPAd+gTgIA0F5CGAAAIIRBjR0CQhgAAAAghAFAfgz4BnUSAID2EsIAAAAhDGrsEBDCAAAAACEMAPJjwDeokwAAtJcQBgAACGFQY4eAEAYAAAAIYQCQHwO+QZ0EAKC9hDAAAEAIgxo7BIQwAAAAQAgDgPwY8A3Nu57s7va2HQkAAFZBCAMAAIQwqIkQBgAAADwmhAFAboQwAAAA2ksIAwAAhDCoiRAGOYhfDuvu9A8dCQAAoEpCGADkRggDAACgvYQwAABACIOaCGGQy3mqMxkAAKiaEAYAudFuBgAA0F5CGAAAIIRBTYQwyOU81ZkMAABUTQgDgNxoNwMAAGgvIQwAABDCoCZCGORynupMBgAAqiaEAUCO/3d1d3vbjgQAAED7CGEAAIAQBjURwiCX81QIAwAAqJoQBgAAAACQCyEMAAAQwqAmQhjkcp4KYQAAAFUTwgAAAAAAciGEAQAAQhjURAiDXM5TIQwAAKBqQhgAAAAAQC6EMAAAQAiDmghhkMt5KoQBAABUTQgDAAAAAMiFEAYAAAhhUBMhDHI5T4UwAAAAAABoMm3ZAACskhAGAAAIYVBjh4AQBjquAAAAAADgbLRlAwCwSkIYAAAghEGNHQJCGOi4AgAAAACAs9GWDQDAKglhAACAEAY1dggIYaDjCgAAAAAAzkZbNgAAqySEAQAAQhjU2CEghIGOKwAAAAAAOBtt2QAArJIQBgAACGFQY4eAEAY6rgAAAAAgP5ubvfOdTnHBkYBm0JYNAMAqCWEAAIAQBjV2CAhhoOMKAAAAAPKj3QzUSQAA2ksIAwAAhDCosUNACAMdVwAAAACQH+1moE4CANBeQhgAACCEQY0dAkIY6LgCAAAAgPxoNwN1EgCA9hLCAAAAIQxq7BAQwkDHFQAAwLlznU5x4fJe/9u/1bn6a44GADnQbgbqJAAA7SWEAQAAQhjU2CEghIGOKwAAgHPn4r4z7j+3dq5dcTQAyIF2M1AnAQBoLyEMAAAQwqDGDgEhDHRcAQAACGEAkB/tZqBOAgDQXkIYAAAghEGNHQJCGOi4AgAAEMIAID/azUCdBACgvYQwAABACIMaOwSEMNBxBQAAIIQBQH60m4E6CQBAewlhAACAEAY1dggIYdB0m5u9851OccGRAAAAqiSEAUBuDPgGdRIAgPYSwgAAACEMauwQEMIAAAAAIQwA8mPAN6iTAAC0lxAGAAAIYVBjh4AQBgAAAAhhAJAfA75BnQQAoL2EMAAAQAiDGjsEhDAAAABACAOA/BjwDeokAADtJYQBAABCGNTYISCEAQAAAEIYAOTHgG9QJwEAaC8hDAAAEMKgxg4BIQwAAAAQwgAgPwZ8Q7N0d3vb3Z3+oSMBAMAqCGEAAIAQBjURwgAAAIDHhDAAyI0QBgAAQHsJYQAAgBAGNRHCAAAAgMeEMADIjRAGAABAewlhAACAEAY1EcIAAACAx4QwAMiNEAYAAEB7CWEAAIAQBjURwgAAAIDHhDAAyI0QBgAAQHsJYQAAgBAGNRHCIAebm73znU5xwZEAAACqJIQBQG6EMAAAANpLCAMAAIQwqIkQBrmcpzqTAQCAqglhAJAb7WYAAADtJYQBAABCGNRECINczlOdyQAAQNWEMADIjXYzAACA9hLCAAAAIQxqIoRBLuepzmQAAKBqQhgA5GZzs3e+0ykuOBIAAADtI4QBAABCGNRECINczlMhDAAAoGpCGAAAAABALoQwAABACIOaCGGQy3kqhAEAAAAAQJNpywYAYJWEMAAAQAiDGjsEhDDQcQUAAAAAAGejLRsAgFUSwgAAACEMauwQEMJAxxUAAAAAAJyNtmwAAFZJCAMAAIQwqLFDQAgDHVcAAAAAAHA22rIBAFglIQwAABDCoMYOASEMdFwBAAAAAMDZaMsGAGCVhDAAAEAIgxo7BIQw0HEFAAAAAABnoy0bAIBVEsIAAAAhDGrsEBDCoEk6neJCnJflslUcfHVY/nL88VjWEQMAAAAAoAmEMAAAWCUhDAAAEMKgxg4BIQyaZHOzdz4+71lKLOuIAQAAAADQBEIYAACskhAGAAAIYVBjh4AQBo1rKNjv//TUEMZwGUcKAAAAgDaLNtPubm/bkYBmEMIAAGCVhDAAAEAIgxo7BIQwaJruTv+wW/Q/mBbAiOdiGUcKAABYpphtb2v34KuXLu18zNEAIAcGfIM6CQBAewlhAACAEAY1dggIYdA0nU5x4bSZMGIZRwoAAFimuO+M+42tnWtXHA0AcmDAN6iTAAC0lxAGAAAIYVBjh4AQBk3ULfo/O2EmjJ85QgAAwLIJYQCQGwO+QZ0EAKC9hDAAAEAIgxo7BIQwaKKt/YOXpoUw4jlHCAAAWDYhDAByY8A3qJMAALSXEAYAAAhhUGOHgBAGTdTpFBemhTDiOUcIAABYNiEMAHJjwDeokwAAtJcQBgAACGFQY4eAEAZN1S36PxsPYMRjjgwAAFAFIQwAcmPAN6iTAAC0lxAGAAAIYVBjh4AQBk21VRx8ZTyEEY85MjC/7m5vO4ojAQAwnRAGALkx4BvUSQAA2ksIAwAAhDCosUNACIOm6nYHFz8yE8bwMUcG5qxLu73tVIeeuf7CjiMCADCZEAYAuTHgG9RJAADaSwgDAACEMKixQ0AIg0Y3GuwN7h+HMIZ/d0RgPimAcfeffjIqghgAANMJYQCQGwO+QZ0EAKC9hDAAAEAIgxo7BIQwaLLLxcGrKYQRf3dEYHblAEYiiAEAMJ0QBgC5MeAb1EkAANpLCAMAAIQwqLFDQAiDJut2BxdTCCP+7ojAjHVnQgBDEAMA4GRCGADkxoBvaJZok+vu9A8dCQAAVkEIAwAAhDCoiRAGWTQc7A3uR3EkYDYnBTAEMQAAphPCACA3QhgAAADtJYQBAABCGNRECIMcXC4OXo3iSMDpZglgCGIAAEwmhAFAboQwAAAA2ksIAwAAhDCoiRAGWZynV57ZieJIwMnmCWAIYgAAfJQQBgC5EcIAAABoLyEMAAAQwqAmQhg0RadTXNi60usXvRuvXvvM739379oL9+Nzn1TiuVgmlo3XxGsdQdpukQCGIAYAwJOEMADIjRAGAABAewlhAACAEAY1EcKgTt3u4GIEKVLg4vNf/NLDr339G4++d+cHo0Hh995+Z2KJ52KZWDZek4IZsa5YpyNL6+rSGQIYghgAAB8SwgAgN0IYAAAA7SWEAQAAQhjURAiDlSuKjTjvnum/+FZ8rnH+vfmjHz96//1fLnx+xGtjHbGu0SDy4bpjG7EtB5x1t4wAhiAGAMBjQhgA5EYIAwAAoL2EMAAAQAiDmghhsEoxWDwCEv0bNz+ImSzOErw4KZAR645txLZim44861ynlhXAEMQAABDCACA/QhgAAADtJYQBAABCGNRECINViM9ur/fcP8fn+Nrr33r04OHDys+Z2EZsK7YZ23b+sG6qCGAIYgAA7l2EMADIixAGAABAewlhAACAEAY1EcKgUkWxUfRuvBqf39e+/o1KZr44TWwzth37EPsS++SDIXdVBjAEMQCANhPCACA3QhgAAADtJYQBAABCGNRECIOqbG72zhe953/47Is3H9x7+53az6HYh9iX2KfYN58QuVpFAEMQAwBoraLYGAUwiuJXHAwAcmkn6O70Dx0JUCcBAGgfIQwAABDCoCZCGFSh0yku7F17/t9eevmVR/fffa8x51HsS+xT7Fvso0+K3KwygCGIAQAAAADzMTsNAACrJIQBAABCGNTYISCEwTKlQeJxXj14+LBx51LsU+xb7GPsq0+M3OrWKgMYghgAAAAAMLvoc9kqBnccCQAAVkEIAwAAhDCosUNACINl6XYHF+Ozeu31bzX+nIp9HAUxhvvsk6PxdavGAIYgBgAAAADMJvoxGj8QDgCAtSGEAQAAQhjURAiDZel0igt71164n0MAoxzEiH2OffcJ0lRNCGAIYgAAAADA6YQwAABYJSEMAAAQwqAmQhgsRVFs7F9/4acvvfzKowcPH2bzXRT7Gvsc+x7vwQdJ0zQpgCGIAQAAAAAn29zsnY+2Mz/8AwDAKghhAACAEAY1EcJgGZ4+ePE7z75480FOAYxyECP2Pd6DT5ImaWIAQxADAAAAAE6mPwMAgFVeezZ6Bw2RAwAAIYx1JYTBWRXPPP+H/Rs3P7j/7nvZfifFvsd7iPfiE6UJmhzAEMQAAAAAgOmizSza9xwJAABWce3Z6B00RA4AAIQw1pUQBmcRU6sXvRvvfu/OD7L/Xor3EO8l3pNPljrlEMAQxAAAAACAyS7vDd6IvhdHAgCAqglhAACAEAY1EcLgLK4+PfjK57/4pYfr8t0U7yXek0+WupwWwIhZW+I7+8HD1VW72NZLL7/y6K2f/0IQAwBYexHK3to9+OqlSzsfczQAAFiEEAYAAKsihAEAAEIY1EQIg0XF4KRcfq1/VmkwudkwqMMsM2CkQESUVQQxZt2eIAYAsC7ivjOua7Z2rl1xNAAAOE0ELuL68bRyea//V44WAADLJoQBAABCGNRECINFXf30c38dA7PXTbyneG8+YVZplgDGqoMY825HEAMAWAdCGADk2KbQ3ekfOhJQXx08LYDR3e8/3LrS6ztaAAAsmxAGAAAIYVATIQwW0ekUF+Izuff2O1M/s/ff/2Vjz6eT9i3eU7y3eI8+aVZhngDGqoIYi65fEAMAyJ0QBgC5ifbd+CV+RwJqUhQbs8yEob0ZAIAqCGEAAIAQBjVZ9xBGd7d/OzohdXAs19WnB185aRaM++++92iWjqe6yzSj2TCG79EnTdUWCWBUHcQ463oFMQCAnAlhAJAbIQyo3+X9/jdPnAmj6P/MUQIAoApCGAAAIIRBTdY9hBEdkKNOjt3etk97efauvXD/zR/9+NTP7At/9MePnv29P3j0vTs/qOTX+ucZVB77EPsS+5QGiU8T7y3eo0+aKp0lgFFVEGNZ6xPEAAByJYQBQG6EMKB+qZ1vWrlcHLzqKAEAUAUhDAAAEMKgJms/E8ZO/3AUwhj+6dNeUodSd3AxjulpA7RTyCGFH6KcZbD5WQaDp+3Hvozv37SB6KPzZvhefeJUUo+WEMBYdnBi2YEOQQwAIEdCGADkRggDGqAoNk6cCUM7MwAAFRHCAAAAIQxqsu4hjOj8iPc46ujYP7gbf4/1TCuxvLPiZFf3n3spBmnP8pmVB3e/9vq3Ro/Fa++9/U7l50xsI7YV24xtjw8qPymEEeK18V594izbMgMYywpQLDuAIYgBAORKCAOA3AhhQDPEbBfTQhj6HQAAqIoQBgAACGFQk3UPYUQH5Em/QDVeFgp6tEzvM5/9u/KMErOEMJL33//lozjf4rn4M/69bLNu47QQRrzHeK8+cZapigDGWYMUVQUwBDEAgBwJYQCQGyEMaIY0g/RHyn7/u44OAABVEcIAAAAhDGoihCGEschN/CwzWZwUcjhtlopFB6DPM9vGaSGMeH3jGyzISpUBjEUDFVUHMAQxgFX7xCc+8euXLl36XJTNzc3zMz638clPfnJ7+PitWGbSemP5tEyU+Pv4+oH1IIQBQG6EMKA5tvcG98v9Dd2i/0HUUUcGAIDKrkGFMAAAQAiDeqx7CIPlSgOSZhmsfVrIIQ3Mfvb3/mBUZpldY5p4bVrPrAPcT9u/eI/OO5ZlFQGMeYMVqwpgCGIAq9TpdC4Oy6MoTz311JfLz126dOn76bnhPzeiRKDiU5/61L30+FF5oxzGiLDF2PPHZVpoA8j/nkcIA4BcCGFAc2wVB18Z/+GnTqe44MgAAFAVIQwAABDCoCZCGMwjTam+jJBDeSB4ClF84Y/+eK5B6rFsvCaFOOYZSD7L/o1+rWz4nn3ynKnerDCAMWvAYtUBDEEMYJUuXbr0jxGQiD/TY+UgRQQv4rFyYCOCGBHaKP+7tL5b5dcOlxuk4MbRchuOOqyPFMLYvLL/cUcDgBwIYUDzriU/LP1/dVQAAKiSEAYAAAhhUJM2hTBiIHS83+7+9Vvdnf5huWPEmbD882XWEEby/vu/fPTa698avS62ce/td6YuG8/FMrFsvCZeu8g5dZrYhuniOev3zqoDGKcFLeoKYAhiAKty6dKlz5VCEx8bXe899dSgNIPFxaPlbh0t8/1zR0GK8msjuHH02D+mwEV6bTwXs2Ck9QPrYXOzd3577+D/dPeu/3dHA4BcCGFAs3SL/s9SCONycfCqIwIAQJWEMAAAQAiDmrQhhBGDoLtF/175F6jKHZPd/YO7Ecw4VxR+xXiJ58u8IYzk/rvvHQcsvvb1bzwRsIi/x2MpqBHLnuWcmiWEsVUM/otzg3l0OsWF+L76nZ2DZ+oKYEwLXNQdwBDEAFahPOtFzG7x+Lu588b47BhpNotp5ZOf/OR2LBdBi/LjsY7ha2+nQAawHn6z8+lf3SoO/nJY3r50aUfACoBsCGFAs2ztH7yU+iGib8IRAQCgSkIYAAAghEFN1j2EEYOhjzs8iv697m7/9kdCGEcBjXjOGbG882XREEby1s9/8egLf/THo/V8784PRiX+Ho/Fc8s4p2YJYXT3D/7lySnkFeXk0t07eLO73/9/dQcwJgUxmhDAGA9ibF+70futztVfi+/4WcpMX1ZFsTHr+mbe7oxhrGVvN36Re9b/75a53VifY92sYx37t/Rj3fDPeJFjnY7nUUjiOHQxHsooBzWmlZgpI+1LBDKmLPfGLOej+uS7a92O9Uzvt8bjPM+2L+9d/8LvFgd/0d0b3L+82/+fw9f+ijs/AHJrrxPCgOYo90n4cR8AAKomhAEAAEIY1GTdQxgpdFEOWIyHMGLg0mg2jKJ/zxlxyvHcv35rVSGM5M0f/fjRs7/3B6MSf1/mOTVLCOPqM8//xbnfKv6DT59Zfep3n346zq/XXv9WY75DYxaZ1Plbnl2mbnGMHgdX+v931pDLLJ/B1s61K8sO18Q6Z23oXOp2dw++Ost2L+/1v73sMJFjPeX/wuGxqeVYD/dv2e95lu3G9Vddn/Eixzqu6eK1MUtFKUzxufT3CF+k9Q8f//7R89+f9Tv+E5/4xK/H+sqzaMQ6fXf57mrbd9cs77fO749Ftr211/+uGTAAyLV9VwgDmmV7v//T7b2Dv3MkAACo/NpTCAMAAIQwqMfahzCOwhXlX4gdD2GMltvpH8bjM/96rvNlZSGMEL/av+xf7jcThmImjHqlmTC29p/7j09d3h/EoMpZykxfVkXxK7Oub+btzvir2Mve7qyDQWM2kWVud/PK/scd68ni2NRxrGP/ln6sZ/uMN+r6jBc51uXjGbNgjM1s8UTYImbFGA9nRHgjZtGIoEUELuLxoxDHG/HncJGN8dfGLBm+u3x3te27a6b3W+P3xzzb/s3Op3/VnR4AubfXCWFAs2xd6fWjbjoSAABUTQgDAACEMKjJuocwRgN8i8Gd8cfGOyajU+TxjBm9bWfFcs6XZYYwqjqnZglh/M5u/7/NPNgLzn04yPGp/WuDuoMY5QBGCjM1IYiRAhjPXH9hxxkDVKU8A0YKS4w9/7HxkEb6e8x0ce4ocFF+PIIdEdIovc5gNwAAaiWEwSrEjxylYIFyevntq/3/tH21958di9nKIn0/qJeKeqleKuolPCaEAQAAQhjU2Em31jNhFP174zedE2fC2D+4u+g2nC/rHcLwi2WcRQS76gpiTAtc1B3EEMAAVtfpuXm+HLI4dxSqKIvZLi5dunRrPIwRAY3SYhvlIEZ5uXi9Iw0AQJ2EMKhUUWzsXnv+z6Mtp3/j5gfRXqooyyzRRplmGH764MXvxDmn4qmXinqpXiqKesnshDAAAEAIgxo76dY5hBEdkKMZLvav3yrfhJY7JtMg6dHNqQaLE3W7g4uzhivWIYQxOneG79knz5nqTQ1BjNOCFnUFMQQwgFWKgEQpMHHrlMU3jgIVGzOs8+JpywEAwKoIYVCZotgoes//8NkXbz546+e/0LFFpW2Z0W745T/503+Pc04/jXqJeqlegnrJ7IQwAACgZdwGNauTbq1nwjgKDUTZKgZ34v0+DmUc3I1gRpoBY/TYTv/QGXGy+AziWM0yaDv3EEa8R7OjsCyrDGLMGrBYdRBDAANYlaPZLT6XZq/41Kc+de+c0AQAAGtKCIOqxK8sxyC/++++p1OLlYhzLQYxf/rZz35TDVQvUS/VS1AvmY0QBgAAtIzboGZ10q1zCCO9xxS0mFZGHZV+LWLmm/h7b78z02fW9HPqJPEeG99gQVZWEcSYN1ixqiCGAAawSp1O5400A8ZRMasVAABrSwiDqqx6ZlcI8Svyce5tbvbOq4XqJeqlegnqJbN9DzV6B1VZAABYLrdBzeqkW/cQRogGiJj5Ijoku0X/XgpejP7dHRiYN4feZz77d9+784OZPrOmn1MnifcY79UnzjJVGcRYNFBRdRBDAANYtaeeeurLMRPG8M9BzIrhiAAAsM6EMKjkvmqOGZFh2fo3bn6wdaXXVxPVS9RL9RLUS04nhAEAAC3jNqhZnXRtCGGwPFf3n3spBmvP8pk1/Zw6SbzHeK8+cZatiiDGWYMUVQUxBDAAAACgWtFmGm0NjgTLFP0Gs7QBQxWiz0rbvHqJeqlegnrJbIQwAACgZdwGNatxSAiDecTMIbP8qkvOIYx4b/G8WVKorB4tMYixrADFsoMYAhgAAAAAecql34D19O2/+dtH1z7z+99VE9VL1Ev1EtRLTieEAQAALeM2SOPQvBYNYVzeG7wxGky/f3A3/t4t+vfi35PK6Pnd/u2YtnNzs3fe2THd3rUX7r/5ox+f+pk1/ZyaJt5bvEefNFVaRhBj2cGJZa1PAAMAAAAgXwaVUqfv3fmBQaXqJeqlegnqJTMSwgAAgJZxG6RxaF5nDWHMWyKsEQOknSGTXX168JXTptdd5LivukwT7y3eo0+aqp0liLHsAMay1iuAAQAAAJA3g0oxqFS9BPVSvUS9JA9CGAAA0DJugzQOzWvREEanU1zo7l+/VZ7tIt5zlJj1ImbIGIUu4u/dwcV4vBzcMCPG9OMax+fe2++s3fdTvKd4b/EefdKswiJBjKoCGGddvwAGAAAAQP4MKsWgUvUS1Ev1EvWSPAhhAABAy7gN0jg0r0VDGBGsSOGLk47BKIix0z88ft1u//b4Yzzp6qef++vTZsPI0WgWjOF78wmzSvMEMaoOYCy6HQEMAAAAgPVgUCkGlaqXoF6ql6iX5EEIAwAAWsZtkMaheS0cwjgKU5z42qLY6Bb9ezErRnooZsA4LbzRdukYzfPr/U2XBpGbAYU6zBLEWFUAY97tCWAAAAAArA+DSjGoVL0E9VK9RL0kD0IYAADQMm6DNA7Na+EQxli4Yupy+9dvlQffdzrFBSGM0119evCVz3/xSw/X5bsp3ku8J58sdTktiHH/3fcexXf2KgIYSQpivPXzX0x8XgADAAAAYL0YVIpBpeolqJfqJeoleRDCAACAlnEbpHFoXguHMPYP7sZrt670+tOWSYGLcggjjkv8O/50lkwXx6vo3Xg3GnnWoaEq3otZMKjbLDNiNIUABgAAAMD6MagUg0rVS1Av1UvUS/IghAEAAC3jNkjj0LwWD2E8nuEiZsSIIMZoHUWxEc/F37vdwcWtYnAnLTN6zU7/MP07AhrOkpMVzzz/h/0bNz+IX+jPVex7vId4Lz5RmiCHIIYABgAAAMB6MqgUg0rVS1Av1UvUS/IghAEAAC3jNkjj0LwWDWFEiCLCFGmmi5NKDHpOx0QAYz5PH7z4nWdfvPngwcOH2X0fxT7Hvsd78EnSJE0OYghgAAAAAKwvg0oxqFS9BPVSvUS9JA9CGAAA0DJugzQOzWvREEYYBTF2+7enhS9iJoyYESMtHwOfBTDmVBQb+9df+OlLL7/yKKcgRuxr7HPse5ohBZqkiUEMAQwAAABojmjfvbw3eMORYNnnlUGlGFSqXoJ6qV6iXtJ8QhgAANAyboM0Ds3rLCGMslhHuQhbLE8cy71rL9x/7fVvZfNdFPsa++w8oMmaFMQQwAAAAIBmEcKgqvPKoFIMKlUvQb1UL1EvaT4hDAAAaBm3QRqH5rWsEMZJx6HxN6cZiBlF4jjmEMSIfYx9Lc+CAo2tWw0IYghgAAAAQPMIYVDVeWVQKQaVqpegXqqXqJc0nxAGAAC0jNsgjUPzWkYIY3Ozd358JowoW1d6/a1icEcIYznSYPE4rx48fNi4cyn2KfZtFMAY7qtPjNzqVh1BDAEMAAAAaCYhDKo6rwwqxaBS9RLUS/US9ZLmE8IAAICWcRukcWheZwlhxMDl6IiMdZxWnBHL0ekUF/auPf9vL738yqP7777XmPMo9iX2KfYt9tEnRW7qCGIIYAAAAEBzCWFQ1XllUCkGlaqXoF6ql6iXNJ8QBgAAtIzbII1D81o0hNHtDi7OEr7o7vZvx0wZzojlieNZ9J7/4bMv3nxw7+13aj+HYh9iX2KffNbkbJVBDAEMAAAAaDYhDKo6rwwqxaBS9RLUS/US9ZLmE8IAAICWcRukcWheC4cwdvqHo5DF/vVb8fooo38PH4+AxujP/YO7W8Xgzrmi2HBGLNnwmBa9G6/GMf/a17/x6P33f7nycye2GduOfYh98TmzDlYRxBDAAAAAgOYTwqCq88qgUgwqVS9BvVQvUS9pPiEMAABoGbdBGofmtXAIY//gbrw2zXyQQhjxvo+XOZotI2bDcEZUI477Xu+5f47j/Nrr33r04OHDys+Z2EZsK7YZ217k/IEmqzKIIYABAAAAeRDCoKrzyqBSDCpVL0G9VC9RL2k+IQwAAGgZt0Eah+a1aAgjXlfuhJwUwggprGGWhGrFoPFn+i++1b9x84NoGKpiZoxYZ6w7thHbim068qxznVp2EEMAAwAAAPIhhEFV55VBpRhUql6Ceqleol7SfEIYAADQMm6DNA7Na9EQxlYxuPPETWdRbEya9SKOw+jx7uCis6Jiw88gjncEJOKYx/n35o9+fKZARrw21hHrGg0eH657FLQRqqEFlhnEEMAAAACAvAhhUNV5ZVApBpWql6BeqpeolzSfEAYAALSM2yCNQ/NaNITR3ekfptkwOp3iwuixon/veIaMo0H68fdFt8HiIvRS9G68unfthftx/D//xS89/NrXvzFqNIrB4PfefmdiiedimVg2XhOvjXXEugRpaGVdWkIQQwADAAAA8iOEQVXnlUGlGFSqXoJ6qV6iXtJ8QhgAANAyboM0Ds1r0YBEvCZeG2U0M8JQd//6rfRYd//gbgplxN+dEfWJkMzWlV4/ghTRYJSCGZNKPBfLxLLxmhSwgTY7SxBDAAMAAADyJIRBVeeVQaUYVKpegnqpXqJe0nxCGAAA0DJugzQOzesss1RsbvbOR0dkCmHE7BcpeFEuMZjfGdFQMWPJ0awlwHSLBDEEMAAAACBfQhhUdV4ZVIpBpeolqJfqJeolzSeEAQAALeM2SOPQvM4SwpgoghjdwcWYFWMUvjDAH1gT8wQxBDAAAAAgb0IYVHVeGVSKQaXqJaiX6iXqJc0nhAEAAC3jNkjj0LyWHsIAWGOzBDEEMAAAACB/QhhUdV4ZVIpBpeolqJfqJeolzSeEAQAALeM2SOPQvJYRwtjc7J2PdZxUzIixBMNjmI5np1NcqLpBQUAHJjspiCGAAQAAAOtBCIOqziuDSjGoVL0E9VK9RL2k+YQwAACgZdwGaRya11kG2nd3+odbxeBOGrB/UjGYf0FFsRHHuVv07006rt39g7vd7uBiFQ0KPjc44ftvQhBDAAMAAADWhxAGVZ1XBpViUKl6Ceqleol6SfMJYQAAQMu4DdI4NK9FB9rHwP9ZwhcG8y8ujlmELI4DF0X/XnT8dvev34o/nwhj7PZvL3O2EZ8bzPA9WApiCGAAAADAehHCoKrzyqBSDCpVL0G9VC9RL2k+IQwAAGgZt0Eah+a1cAhjt387Df43UL8CMQPG0ewX8efE2S5imaPPYbTcTv9wmQ0KQhgwy3fh4yCGAAYAALAONjd757eu9PrRrqUoyy65tTMJYVDVeWVQKQaVqpegXqqXqJc0nxAGAAC0jNsgjUPzWnSgfRp0vMzZF/hQBCrSMe50igunnWuTlo3B4amDOx6Pv8csGh/Z1nC5NMNG/L38+U46N2IwRpqNI8q0TvRp2z/t/UB29XX3+v/q7h/8iyMBAABkqyg2dq89/+fRFtC/cfODaNNSlGWWl15+5XhG16cPXvxODm2KQhhUdV4ZVIpBpeolqJfqJeolzSeEAQAALeM2SOPQvBaeCWP/4G4Un3R1N/Sj2S0mhCYmDZQ4njWjNBtGdBKnx9Lz5YaCCEnEZ5geL29zYghjuJ2tYnBnfPlUIpxR3q1p2ze7Buvmt3eu/4/f2e3/dFXbKwecHH0AAODMhvf7Re/5Hz774s0Hb/38FxpYqcyDhw8f3f2nnzz68p/86b/HOdf0IIYQBlWdVwaVUheDStVL1Ev1EtRLZieEAQAALeM2SOPQvBYOYRzN1JBmTmB5Njd75+cNLKTgRLlj+DgEUfTvjUIzu/3bcV6Ob2P0XHdwMR4rBzDGt19+bhS4iI7yCIAM1ztp+anbN3sKZ5Rmb5m1VD37Snf3+p919w7eXNX7T3Ur1WcAAICziFkJYlD8/Xff07jKSsS5FqGfTz/72W82uW5EW5kZXVk2g0qpk0Gl6iXqpXoJ6iWzE8IAAICWcRukcWhei4YwohMyZkV4PLi+t21g/fLE53E8a8WMxzXOtxSoSI+lgdqjx7uDi+XlU6AiPsNp6yqfG0+ENiYEb9L6ImgxcfvCOiz5+3XajCyTStUzRghhAAAAOYv7i5idAFYpZl2Jcy/anNRC2sSgUupkUKl6iXqpXoJ6yXztJY3eQdUVAACWy22QxqF5nWUmjBjAXx7oHP+u65fo10nMMnEcwpj189jtbY+/pjwTxfjy6bnyzBlJOQSSzo0IcZy0T/NuH876/Zq+c+IcPa1UHRITwgAAeNIotD+8r4nrFUVZdqk6ZN02qQ3gwcOHGlZZuf6Nmx+MZluFlrVrGVRKXQwqVS9RL9VLUC+ZnRAGAAC0jNsgjUPzWjSEUZ7loAm/RL+OAyAWmgmjFHg4KWhx0iDu8qwX6XMrr39SyKYcyJll+3DW79elnVvDOhbn+Uy/vHm07PjyywxhRGDttH2ZVH/jdcJuAEDthtdLu9ee//O4VomBtXFPrCjLLC+9/MpxO8PTBy9+x6ycy7m/iuMKdYh6fXX/uZfURNr2vWtQKXUxqFS9RL1UL0G9ZHZCGAAA0DJugzQOzWvhmTB2e9vz/FLlTAOcGYmB1POGV2JmkvFB6ScFLdL6p/2S/rQQxixlfPtCGFTx/brouVUOOHV3+7fL5278e1Kdizo5PvNPCiXF8uUQxmn7Nq1upzp8vO79g7vpe3a8rpbrdpTYj/KMRPE6ZwkAsHLD66ui9/wPn33x5oO3fv4LDTRUJmZsuPtPP3n05T/503+Pc04Qox3tV6ynb//N3xrchO9dWCGDStVL1Ev1EtRLZieEAQAALeM2SOPQvKqepSLCF2bBWOyG/qSQxLgYsD0auL3TP0yPnRTCOOm5SSGQcghj1veQttHdv37LJ8qyv1/PGsJIoYpYR5yj5WDF+HdYORwxvvzjx/p/dZYQRjmAEdsv/zvt56QQRnpu9JrhPqXvgdFj3cFFZwoAsEoxK0EMir//7nsaZ1iJONci9PPpZz/7TTVw/duvWE8GN+F7F3zvqpeol+qleol6SVMJYQAAQMu4DdI4NK+qQxhpQLIzYj5pkHcMrj5tFpH41ftJA7tnCWFMGig+aX3x57yzc0z6BX9Y5vfKWUIYaRaL4yeKYmNiQOKoLkbgofx41MvjIEdx8K+LhjDKIY9RYOnoV3zj8fJMHZNCGMePl3759/i7Q/gJAKihUzJmJ4BVillX4twz++b6t1+xngxuwvcu+N5VL1Ev1Uv1EvWSJrd3NnoHVVcAAFgut0Eah+Z15hBGUWxsXen14/2Ol/JAYWfEfEYDsIv+vceDqQ/uxuwUk5aLwMSHyz056PqkEEYaKB7rfmKwyvDzLA/8Pj434vGj7UxaX5wDoxkChvszvg0hDKr4fi3PRHFSGQ9DPBF4GD+P08wSpRllTpqVphxOGtaPvy/v26whjKg7074ny+ufFsKYVBdT3XamAACrkq5bHjx8qGGGlevfuPlBXAerievdfsV6MrgJ37vge1e9RL1UL9VL1EuaSggDAABaxm2QxqF5LRzCiEH5R7+4Pu8gaGZTnpEiHcc4r2JwSQwSTwPG06/0l38NP5wUwij/+n5aJkoKWkyaEaA88D0GeMf+xfOxL8ePdwcXx5cXwqCK79c0m0Wc5yeVcqAiNZaNXlsKDI3XmfSdFeGnk2aAKdejrb3+P5T3bdYQRvm9nLT8pBBGBKamDYAUfgMAVn199tLLr2iUoRbR9nJ1/7mX1MT1br9iPRnchO9d8L2rXqJeqpfqJeolTSWEAQAALeM2SOPQvBYNYZQDAjF4+PgX5PcP7pYH8fs1yrOJQeDlsMWkMi3kcFIIY/wzHP/M0jbHz41y4GLS68brgBAGVX2/LhrwOilUcRxuOApuPBFoGAs5ja9v+N33k1n2bXz7qU5NW35SPT6pbgthAADuf2mbb//N3xocof6SKYOb8L0LvnfVS9RL9VK9RL2kqYQwAACgZdwGaRya1+IhjP7t8q/Jp4G/aVBw/Hv0K/RF/155dgQWM5pxYnisR7NV7F+/FX/GY/FL/NM/o8fLn/T5jkIeMbPGcJ3xZ/y7/NpJ6z9+zU7/cFTi850wQD22e9r2YdHv1ypDGOXvsbT8tLpWCqP971n2bdpMGNOWPw64lWb0EMIAANz/gsER6i/q7+ra43xT4HsX37vqJaiX6iXqJe0jhAEAAC3jNkjj0LwWDmFEuGJYyp2S44OCY9Bymh3DGQEs8/t1FSGM9B02bfkIJB3PBLPX/4fT9q0ckBgPYZS/T48VxUZavrw+IQwAwP0vGByh/qL+rqZ+LNL2AL538b2rXoJ6qV6iXpI/IQwAAGgZt0Eah+a1aAhjNOi4GNxJ/06DkccHBacZM06asQFg3u/XVYQwRt9hRf/etMBD/BpmaSaMvx9/7CPL7/QPx7f/xPJjM8qUAxVCGACA+18wOEL9Rf1dff0QwsD3Lr531UtQL9VL1EvaSQgDAABaxm2QxqF5LRrCSIOAy4OGUzCjHLj4/+y9XYgl17XneR7yocGvuqC3fpiGGXOdheW6duWpj8zIKtXJc7KsktJorkv2tRnwg8e4qGsQ42EENZriPvXDmMJyD0a0of0gQ+ORwW40MC6YVmN9XAQDt8qYwYw0xdxuykYtJLnRyEJVTc75R551ap2dOz7PV5wTvx8EeTJix947IvbaETti/fcaz/Le3d+kVQDArPrXRYkwfKSKCXHGdu+0ovwc9XuD/7u703893eCiVyjNRPqRoGOifJde/acXZ/j0ErTl1dNAhAEAAACMfwHnCMB+AfudnX0gwoAm9LsvvfTSxHLnzp3Du3fvpsv9+/cbYc+q1/Dw0r9Av7vOdmm299FHH2WmkV02zUaxf+xy3e+XsjXdH+0+mWejQB+DXUJZEGEAAAAAALQMhkF8xK5KXRGGd0w2gYU5JGud8tRi64iEAQCz7F9NaFBm8Q4TVUUYEklIHDEWQwz7NOvXrL87tTP4yViE0XkYAShM79f78n2EDMvTRBlWtq8TIgwAAABg/AuAcwT2C9jvYuwDEQY0od8d7pa73Lhx4/Ddd99dqj2/9tprh88880z6FxbDK6+8kjr589y0WLs0u7t27VpmmhdeeGGcruo1WkVWzf5VzyZdF+xyOruU+ELtL3Z/3NzcXNr9cdbtrGntdpH3t2X0MdglGIgwAAAAAABaBsMgPmJXpa4IQ6KK0Dl460xvEHOAVjpaBADMsn9dmAhDJMlGd3fveii+SKNTaNv23gtehJEKN4b94Vh8kQox9q77qBdh+Uqv8pWv+sy0DsP0sTohwgAAAADGvwA4R2C/gP0uxj4QYUAT+t3hbocXLlwYz6xvizkldgocwmFtvwdWnhWc56bp7bLjHLyzZtqX43enRSKMNtgO45lm2qUEGLo/6po++uijqQBKogvdHyVQtPXLEGLMup11WhRtpgnHil2CgQgDAAAAAKB9L46Aj9iVqCvCMFJH4+3eaftfjsah8/M0+QMANIok2UgXxzERRph+CsZCjlHEIQAAAADGvwA4R2C/gP0uzj4QYUAT+t3hbqnYIgs5mHYyHMLv3LmTCjTkzJjlDK795LCqNJp9Oou8vPS/rfe/Q7K2mcNsXj1j+dgxq27aP8sp3tIrjY7RpytbX1+mfsvZV4vK9udSZfh1IXnHGh6X/ldan87WWbvw6Xlumr9ddkaiJ/2N2YuufWc0A38nIsLIa4t+uzmN2/XOalNF+RlyVtd2y0fpstp9mX4jz66z2rE/hln3E2XLtCglWbZjZcTOd9gH6Pff//3fT1yvMseBXc7OLk2AofOsNh7ir3fY7rOuT5n2n2d3+l3UzqrYWFZ+sfYYu7epHLXrrL4m734T9h8WoaLovGSVWfTckXV/y7pWqldZm/XPCmX6NewSDEQYAAAAAAAtg2EQH7GrMq0II0qSbChPRcugJQDAupMrwihA/aQiakhsEUa2OHkyeWQc1WJKMQcAAAAA419YV3COwH4B+52nfSDCgCb0u50CEYY5hHunQjkd+tn4bZHzoUf7mIjDFjm1eofiMnkpTWfkCCuHyE5GdA6rqzlLZuUth9M8rDyls2ggvl7eGdecVzvOMV6L6inMab6ovlamOYj6xW/359GjeoTnOjxWy0N1s7JtsTYQltOpEG1hHZ+b9A512m9RVUUY1m7DayysfVi7C+3SrplvC94J2bftsK2F5ZXJz9L57WpLZqd+tvmy/UaWPVpe9r/qEbZjO4ZZ9xNlysyznfAcdVxkhdi1sTQ///nPM8+R1aMoCgN2Wc8u5Vhv1yEmwPD3Of/bbMD29e22TPv31z9md1ZGVjuramNZ+cXuSVaOXxe775W93wi1XztO/fW//XkvU6bZfmhrKs8EMnnH6vsrlRfmo3LDPs3qED4r5D1X8Z4BPIgwAAAAAABaBsMgPmJXZS4iDACAFjGNCMM+SHSTwb004sW5wVVFGNI9xAQYijDEWQYAAADGvwA4R2C/gP0u3j4QYUAT+t1OjrOgHCA7I2fI2Dpz/tVfmzHcnDS1rjNyWpSDok+jdVXyCh0kzTEyVlfL2xxoi/KO4R01LQKG0ofRB/wxGubQ6h3abT/vUBrW15dpzrb62wmcSLVYfjb7duxYVQ87Vlvny7CZ3WP52TF4Z9O2PjeN36Pu9N/Qe9U6jt91RBh27b2DvbUZm+Het0VrA7G26NdltYGwrZTNz6/Tb+XnncitDZW19Tx7DEUYRe14lv3ENLZjghDrC21duK8vQ+fQzqcdR17/gV3O3i5NQBcTQ2XhBQ0WPUHXt859s4zd+XY2jY3F8gvvgzoWlRGrj50r/yxR1mZMXOHFXWYzJh4pW6ZPp+1e4GHXMe9YbV2RzZotxo5RZcbu+bxngCwQYQAAAAAAtAyGQXzErsq0Igw5D+sFmj5IynlYxx1biIoBAOvKtCIM60tNiOGX1NmDKBgAAADA+BcA5wjsF7DfpdgHIgxoQr/bcbM7+8XPOu1n0TbnRJtF3ggjPviZ4w05JFr+dfKy/axufj/Ly2aWz8o7dO6MYeWF4hSrl9XDxBnmTGpkiR9iTqahY3lYpl2DMHpIJyLWyDrWojLsfJqzKSKMSZsaT2aTDD6t4/hdVYRhwp9OEI3Brqf+xkQYsbZos7OHbTF03g9trGp+4Wz0ZgNVbT3PHsN2HIsG4+1ilv1E2TJjtmPnLDxHZre2PuvaWBl+f9s3jEqCXc7OLmP9dhF2/b1wsUr7L2t3eWKfOjaWJ0wI22NWHbNERWXtNLwnewFD2TItb38OwueOMiIMO9/hubR0PopO7NyG91TeM0AeiDAAAAAAAFoGwyA+YleltggjSTZiDsNZC9E2mo9efOo6yRm8CfVRPVQfBDzQdGYhwvA2aOK1ptgiAAAAwLqMf2E9wTkC+wXsd572gQgDmtDvdkZO/rHFzwJteIdJL9ow50dz8JdTYqdg9u2yeYUOkuZE6Z02rTxzxrT/lVde3jGsvNAp1Mr1+3oHT+WtbTbzdhilwDujhvUNj9Ffn9ChN8thNEtIk3Ues/JDhDFpU7FvUt7xu+hda1URhl0v/fUO0GozagvW5kL7KtMWQxFC2LbDmfWL8suyc2t7oXCqyNbz7DEUYYTHMM9+omqZMRFGeI7C+mWVYf2HP0cmcsmbaR+7nM4us65HHrE2V7X9l7G7WDubxsbyhAmx41eb9PeZWB3L3m+sfds9Uuu96LBKmWZroVij7LHaulDcEe5r5yRLqJN17LxngBiIMAAAAAAAWgbDID5iV6WuQMK/QNtK9m91d/euZ0XBIBLGar0UbcrHZdVD9VG9uDrQZGYlwgAAAABg/AtQHZwjsF/AfudpH4gwoAn9bmfk+CjnQltslnU5IoZOvubkmLV4B/JOgTNk2bxiDo2qm4kTYiIHc6IsyjtGlgOlzoXfV7NhmxOoytN6OXVb2d7p2py95Vxq+fjZs/NEGEVRC/KOs4MIY2qbKpokbOz4vTv4vSK6h47fdUUYfmZ7a+Ohw761MbWrsC2aiKNT4LwdW182P7PhsJ/IEgrNwh7LtuNZ9hPT2I6VERL2J3mO274/DdsCdjkfuzT7C/vfPLLsq2z71/5l7il5Yp86NlZGmGCUve9VsVPt46NvmZ1av1K2TEtT9Rpl3VOz9g1tNhRYIcKAKiDCAAAAAABoGQyD+IhdlboijO5u/3b6kqy7v8nVXg+6273T+rCsl51NqA8iDFgd20GEAbCStju83/EcAwDQrvEvrCc4R2C/gP3O0z4QYUAT+t1OhnOmnyHeY46ecorMw2bfzouEUTavmEOj5a99TTTio3ZkzT5fhqJIGLbenEa9s6gIZ+cWqqedT3Pu9fXNE2F0Ahe4LAf3omNdhAjDHKDXyabKRmwPHb+3dvvX5PhdV4ShNqW2pHZmbTx0cLb/rS2Gwqm6Ioyy+Vm6sO1Z/xG20SJbL9Nuqzh3z6qfmMZ2ss5RlkN3zO6sz9A2O46y5xK7rGeXEiJZ/5snJlRbtzZVJMIoumZZdlcmEsY0NlZFhGG2Hd737FzVEWF4VH+L9GJpypaZZWtVj9WLJsO6dZyAcloRhrXPvEko605IWTZPv/AtYzkgwgAAAAAAaBkMg/iIXZXaIoxkcE8LVxrmBSIMWBUQYQCsGEmy8filp18cf+Tb7p3mpAAAtGP8C+sJIgzsF7DfedoHIgxoQr/byRBhyOnUHD+9I6I5NYfiDKWRI6o5SGY5o8q51BxMy+YVc2j0s8Gbw6Z3zjRnzLB85S1HynDmfo+V52fMF+YILSdoO5ZO4NTtHXdDZ1idT+2jfG12/rDMOiIMcxi1ehm6Bv5YFynCaOsySxGGtWO1FbUZPyN/6PxrDti+LZqN+LZYVoRRNj8TBIRtz2zD8itr63n2WEeEMat+oqrt+OM0x+3wHIVirzzHbRPkWP9RJToDdlnfLs0O1MfGhBjWfnwki9g1tHSx9u/bWczuYveUWDsrW0aMWH5Z7TF237P9fR3L2IzqpPThvdKO2dp52TJjAkfb3wQcZUQYWUKnrL5oWhGGxgNlljCaSx5l8/RLaiu7/duIMRYLIgwAAAAAgJbBMIiP2FWpHwlj73rdfSGbKi9o6jidpktDjyecIQQRBqwKiDAAVojhfTDpXX710sGV++9/8OHhT376EkIMAIAWjX9hPUGEgf0C9jtP+0CEAU3odzsZIgxhjohejGBOzTZDv5wlzcG6EzgtmohD2306czoum1eWQ6OJGTqRqBU+b+2XV88QK8/OjRwsdS7C2cgtP63XOu2n35ZOf2MClk7EUXYaEYY5ldqx6tjNIbdT0SlWeAdY5Z03C/y6PzeVmXHfO3grMmr43WIaEYZ3NPZO/KHzb1ZbNOdla4tlRRhV87N91daUxmzA8qvSb2TZYx0Rxqz6ibJl+vzMduT4HZZh57PjoiwUOW57m64ikMIu69ulFyN2RmIMi6pioh4fnSHLvny7CO+Hvp2VtbtYOytbRtZxhvlltUdrh0X3vbI2Y+dR51TnUWVbvcPIPEVlmq3Zvv4c2D03dn/Ls2PLx9tfaLN1RRhNs0t9R9fYREKMKlE3YDoQYQAAAAAAtAyGQXzErkpdIYVehikSxlayfwshRvGLxjRM6HbvdPpyZHje/DnTbxMc2KLzunWmN8jKV9v8zBfpB+GYwGK4ToIZlelebN7rbg9uhumtrvZxWS9x0vTnBlez2oDl6V+Oqm6qvz8e5ZnVTvSiyEQ9ltbOFSIMWAUQYQCsCMP73oXBwW9MgGHc/u3v0vvP2fP7z3OSAADWe/wL6wkiDOwXsN952gciDGhCv9vJEWEIm5nbOxPK4dA7JHYyhAWxdHK49E79ZfLKcmg0kUgnw8FUeVuUCL8UOTBbecrTO7HKaTOcodw76HbcjOmhE7rwkQRCYcM0IgyhusaO1de3ivN6HYfvNjl7jx28d/pvKE3ehFHTiDCEOWD7NhM6/2qbpfO2ZhEUOk5Q1Ckhwiibn+1r/YT2UVuMtamy/UaWPdYVYcyin5jWdmL2qf+983aR47aPiFBWGIVdTm+XOtcmFPCL7EDX0Avt8qIIlWlnsXuKbCtmd/7e5AV5de55sfyy2mOsjmrz/v6Wt39M8BDmZ32JiVvKlhn2R2HflWWjWffUMJ8sm10XEYaQzegbPGOUxYEIAwAAAACgZTAM4iN2VaaJZiFH+dDRfhYhONfxRaNED14IYedcgoXxy8fd/m2bweLhur3rx867EyykYUdH+abiCh+CNBVgPMzLizYsvb8ux0QY5wZXrYzo9Y9s93Wzl0ATApBgpvHwRawXb9hvRBjQdEIRhuzK7I2zA9CcjxM7Fy+/d+3Z5w7vP3hw7HkIIQYAQDvGv7CeIMLAfgH7nad9MLaHJvS7ch70TqQhcnLMSiOnRjk4y1nROzjG8lC6PMfhvLysDuH+Sqf1oQNkVvlKl1dPwxwoTcCg/b2YIUR11nZfP4sS4NeZw2hM9JJ1jLHjy0obHmvZMmLr/bklEsZxB299eyk7U3gVu4zZmv4P19k1C9uzzdIfa4s2U3yeLYXri/IL62n1yXJOrtJvZLXPKu14Vv3ErGwnry/Ms2s7v52RI3jbxzOLtku7PiYwympLWXYUawN57b+M3ZVpZ2VtLJZfUXssuu9VtVPtqzpryXomKXuvLbK1Ksdq+cTOY9VjXBW7NN8ConsvBkQYAAAAAAAtg2EQH7GrUleEIWd/71xftLQ1WoZ/0ShRgV6IjIUPEkmMzqG2+cgUXpzhhRISc4zFF+7ligki0hcBo3wmXnK6tDZLRijyCEUYehEaq8O4zJHAwyJ26BpHxSM6ThNsDI93fJzu+FWmvXgNI4MgwoCmE4owvC1wdgCWT5EAw3j7nbuH/Sf++pPHLz39YjS6FMAKoucr3Zf0vKZnqjQ62/C5TIv9r21KQxh7aMP4F9YTRBjYL2C/87QPRBhAv9tMysxiXQebVTtP0EG/2zybquPg3Ra7tFnnfTQLOStr5nnNZA/L7z+wS+6XwP2y+nfJwU3GKYsBEQYAAAAAQMtgGMTHlKrUFUiYk3wqBnBOXFlLW526soQQYjxThRcmRM/xQ0HDOOqFj3ghhvuHUUfGAo+RSGLi5cxwf6uXXZtQhJHW0cQaw2vs91cZ4f4mEEkFJbEXQlb30XnwkVRiDoOIMGBVaIQIY9gHYC8AMfvsnT4/OPjTD37441wBhvH+Bx8eXjq4cj/pXX4VIQasInqG0rOfxEQ7F5983+5HX/vmtx9obBJbtM3SaR/tW/cDOTD+BcA5AvsFWCf7RYQB9LvNZdYiDM1c/+ijj6Z53rhxg353hdC3imnHr+tul2rTnVGEBtmMxBedNRYbLZpp+w/skvslcL9knNJcEGEAAAAAALQMhkF8TKlKXRFGXoQEmGwHY6FFgEWHkGhB1yBcJL6oEpkidMAbR+AYzW4cLmGUkqgIw4Qiu/3bsbpLeGHrvGgkVp4JOsxJPO/c+DaGUzk0nSaIMKxM7AXA2+aR2O8nP63mkIEQA1YORRcbtvcLg4PfqM2r/ard3/7t79L2XKXtax/tqzyUl/JMBbTYAqzJ+BdwjgDsF7DfqvaBcxPQ7zaTWYsw5JSuWezlQK0oAfS72OW6oUgYJr6QYMBHxoDZ9B91zyl2yf0SuF8yTmkuiDAAAAAAAFoGwyBeDlWlrggjjYCR4TwPk+0gFDYYJlooWiyyhI9eUVSudwIvWvJEGF7M4Wet0fUPo3uULc8ie+SdG39+cCqHaB80bHtqG2n7lfPp0D4kDkqX4bZwliX9r/TWZlOh0/B32P9J4JSmG7ZT5VVmJvBT2/2XT+30/9HKjYkwrPys9mzHEy1reHwmZlKaUIRlL1vNnvxxArSVnfNPPlFHgGF8/PGfD689+9zhzsXL7yE4hSaj+5Ta6eCpK5+qvd/7wx9nNk5QXspTeauMWHQ1AJwjAOcI7Bdgne0X5yag3wX6XewSALvELgG7ZJzSXhBhAAAAAAC0DIZBvByqSm0RxjgSAo6+Re2gSIQhMYt+5y3pOR/N6F1VhCERR17e5lyaVVdFu7CIGvpf6WMRLB6KLPq388pT20nzDSJ9ZJ0fRBiQ1z5SocQoysqE2GfYPr3jtNmEiRSORVqRkGPUJqNiqIjjqWzSBEkTZY/6R2+rRdEx7HhiohAdS159YvXl5Su0mbPn95+XHWhG/2m4/+ABQgxoLLoH7e49+Xu1dX0UVHudF8pbZagslcnzP+AcAThHYL8AbbFfnJuAfhfod7FLAOwSuwTsknFKe0GEAQAAAADQMhgG8XKoKnVFGHJYTh3qk8E9OQPjnJjdDrIcosdClt3+7TJ5eSfuovNtQok0/+7+5jR1NfHHOCLHyFHdIloYY6f4YH1ReVnHf8xJHiDS3rzoQG3dr7c26+1HfZYtShtGgrE2qXavvs0LILwteVHUqaT/H4fp7qQRKALBRMx+847H98epyGOUn45F5fs6ma1qHxOiyP70P30ytJVZCTAMOZ/reS7pPfVB2fspwDxR/64PgBbpRVFbFoXKUpkqW3XgXgM4RwDOEdgvAPYLQL8L9LvYJQB2iV0Cdrl4+0CEsRgQYQAAAAAAtAyGQbwcqkrtSBij6Ahll1pCjzVpB1kiDO/0feJE7zPh9nRdkmyEA/0sYYWuiTmiT6QdRZ6IOfGVqqsiBIycvlUn+x3ub20iS1QRppczeZZTuheRIMKAGF5sEdqDb1tmW2F0mKw2fqy9aduobXvbGIuOhtu623s/6u70X7f0PjKHpa8lwhhF2Qjr5AUgdnxEjoHWM7S98/2DlwdPXfn07Xfuzvx5yRzPiQAAy0Tt7/zg4E8aY7z/wYdLGz+obNVBdcEmAOcIwDkC+wXAfgHod4F+F7sEwC6xS8AuF2sfiDAWAyIMAAAAAICWwTCIl0NVqSuQCGehR4SR3Q6yRBhe0JAKJbzgQo7fIwfsidn3R1Eo5OQdzphvs/xbPg8jVvRvh+ff6uWd0XOjdozyehjt4rjQwjuZpw557ngkqrDoAybG0PE/TD+4aem13rcvnMqhqA86tnHYlibaYqx9ZrTd2KzeXjDlX7pZ++xu770wFmF0Hka5mUqE4Y4hViel83aNCANazdBekt7lVy8dXLk/T8d0hBiwTM7uPnHNol80BbMJ1Y0rBDhHAM4R2C8A9gtAvwv0u9glAHaJXQJ2uRj7QISxGBBhAAAAAAC0DIZBvByqSl2BhJyCzQm4zBJGdGhTO8gSNvjtY+fw3b3rR8uRACOcsd8LN0y84GfdVwSArLSqg72UiYljckUY3f1NX09fjmciOoFEF+cGV9NIASY2GR5bbnoXYSUrCgCAbzvHolpYmw0iW0yIIIL+KC8qS7ivRZ7wNhSKMGL5VRVhFKXP2h97gbYhm7wwOPjNvAUYxutvvnXkdH5+/3nOPiyE4T1r++LlH6nd3f7t7xo3llCdVDfVsa3P+4BzBOAcgf0CYL8A9LtAv4tdAmCX2CVgl4u0D0QYiwERBgAAAABAy2AYxMuhqrQ5SsWi2kGeCENoRm0vlvCChJgzWxpVYiRQGIsikv1bUWHEcP9Y1BKtC2fyLqqrL9Mc0fOOeVJc0r+dRvsoUb+jY++dtnxwKocY46gsspOc7VERRkabzRJ0+KgtJizLE2HEyqoqwrA6xaLOlDlegDag++HOxcvvXXv2ucP7Dx4s7NnJnM4RYsDccVFe7v3hj40dT6huqqPqihCD8S8AzhHYLwD2C0C/C/S72CUAdoldAnY5X/tAhLEYEGEAAAAAALQMhkG8HKoKIozmIEdvXYs8gUPomFcl/TgqyYKwaCml6jc6Fu1DS4AymOggUzSUFwkjoHIkjGF7nXUkDBM5mY366DNVzgciDGgLVQUYH3/859RRXIs+oGj5+S9+Nf6tCBe2vQwSYvSf+OtPBl/+6j/H6RzmhaJLLCrKy7SojqprGhEDGP8C4BzROvv96KOPDl966aXDu3fv1tr/xo0bh5ubmxr71M4DsF8AnpsA6HexS8AusUuANthlOsFjbPJDmDmIMAAAAAAAWgbDIF4OVQURBgCsIuNIGMngXtZLsaNIGUcRX/JEEH5bTAgUE1WMo9AMt4UiDL34rCLCUJle1BGui9XJRFUmckKEAW1Cdn1+cPCnn/z0pVwBxtvv3E2FFt/41ncmojNJuKFnNL9c+srXJ9L84Ic/ToUZec7v5nTO7P8wD87uPnFNbbHJETBCVNc0Ssyw7lxBxr8AOEe0y34lnNCnfwkxqnL//v10X4kwtL/+bzs6n8888wz2C0C/C0C/i10CdoldAmCXsEQQYQAAAAAAtAyGQbwcqgoiDABYRUx0MI5O4fBRJEzAkBuJwkW2MNHGRH67e9fTbbv92w/XHUWu0LYJEcYwr61k/1ZYluqYJarQ/SIUYfgyJPTw6Y9F5nDnQ/WhdcA6IxtVW5cAI4YiXmibF1zog0nZSAISdSjKhfIwYYZEHFoXAyEGzLOdZ7W7JqM6Z91PgfEvAM4R62u/04gwptl3XdG5aIsrBfYL9LsA9LvYJWCX2CV2CdglNBVEGAAAAAAALYNhEC+HqoIIAwBWES/CUDQM9bkSJHhBg8QQlj5XhNF5KLQwIYPykgPpRDnOodRHxzi10//HrZ3B/5mG/x3Wxc+m78swcYbylFBEYoyxwGO0n++PJ8vY/1lap+F+lo8XXJjDbrp+mIZ+HdaRnfNPPqE2rugWIV58YaKJvCgZZZHIoihflS2xx4XBwduxyDUAVVAbskgvq4rqrmPAHhj/AuAc0R77jQkpXnjhhXE0h48++ij9reW1114bR7tQGkXA6IwiYWj7u+++O85DabXuwoULE/uFZWifGzdujMuz37Ze+1+7du3wzp076XblY+uVbxm0j47PjuOVV16Z2G7rQ8L1Ph/VX7+Vlz8njz76aHpOLI3fV/VVvbPOie1jx67zqmPXNbI89L9di9hx+jKU1l8TX4bOp8rwdcR+AXhuAp6bsEsA7BK7BOwS1gVEGAAAAAAALYNhEC+HqoIIAwBWER/5IRQ+mKjBO38WiTA0g70XXBzL79zgapjeR7zwixeC+F28UGIi7+ExWNkT/fGwDC8OCY8vjAAS1odWAuvE2fP7z8ciA0gQEYok5oGEFvrwougYWt5+5+6xekiIsXPx8ns4nsM06OPeOnxg1jHwoZLx76KRk7A5GTexnEXVbxHoOJp0LDhHLN9+YyIMOeprnRz0OyNBgf7aOpElwpBzvwkRbL3t68UPtt7yMPcDW688tNh2/db++uvzLIrCoTr5etp+EiiYCMKXH7yrnVgvYYP+118Tglhedk5iIozwnPhj8mIKK8+Ou+jY/fn0ZZh4xNKZgMXKUL19WuwXYLWem6C90O9il4BdYpcA2CWUBxEGAAAAAEDLYBjEy6GqzFuEIUdERB4AMGtMtGARMBQ1ors9uKn1ts6ntygZWvLyTfM5N7iqfCyvzD4sSTa0vbvdv72V9N/VfpY2syyJN4ZlpNEwhukVtUKrJdCI1TusUyo6Ge0T62+t3KLjBFglsgQYilIh4YVEEfMSX4R40UcYkUPb9Oy3c/HJ93n2gTqYWE9te9XRMYRRpIDxbww/e70W/Q5nly+LOQvPm7rlLKp+C3r31KhjwTli+e+v8kQYXqigv52RiMDQPuG+Jhzw/YHKkNO/nP/DMrTOR2uIlW1iEOXho0LY/nmYUMLEDl6sYHXslBBhKCJIrDzrB7U9q7+wc+IFF/rdcQIOX57ytGPXbzt2O0/62wkEFMonLMOura9zx4lQrM7rar9pxMtwUgaABvS7ADw3YZeAXWKXANglzB9EGAAAAAAALYNhEC+HqlJXhGEOyoUfK88NrjIjOwDMGi/CWL5Txt4L3Z3+61wVgBmTJBvn+wcvXzq4cv/eH/448fzy+ptvpc8wetaS+GHRSPQh8YeiXyhKhsdEGjifQ1V29578vdrPuqBj0TFxZRn/ZuFnWJdzrzk5dyIO1VXymzeIMOYrwpBze9VZ9XGOWP77qzwRhnfoFyYmMEIRhgkjYm3M8jRxQVYZtt5HbJFYohMIFoSJKbLIEmpIfKD8TYTQKSHCUF5WXljnvP7Czq8XrxgWkSIsz/ehdo7DYw/r3MmIamH9c3iss4iI03T7lX2Uef8JsOh+F2Bd+13sErBLwC4Bu4QmgQgDAAAAAKBlMAzi5VBV5irCSJINzUyvMjRDO60CAGYFIgyANWf4DJH0Lr8qAUYYFcBEDvoQMg2heKIqqpdEGBJjZNURIQaURVGP1GambZdNQseiY9KxcYUZ/4aYQ7Ech82ZWui3zdgeczbOAxHGQt89ze1YLFoBzhGr9f4qT4ThbTxmC6EIw/KKiQGsfUisU6WMrDqWsU3bLxQwlLWLcL0dr/Vz6vPseLLqlFcHi15hgohYPcocu+pgdbLoRLaYcCSvjLogwgD6XYDFwnMTdgnYJXYJgF1CeRBhAAAAAAC0DIZBvByqShURhhwJTXzRTQb3tNj/sUXblX9doQcAQBaIMADWlxMnep/pffnpN772zW8/CMUNFgFDkSimQflYJIuwjCooCofy+Ma3vnMsIofV9ezuE9e4qpBLkmzsXLz83rTCoqZ+sNSx6Ri50Ix/PeZIHToEp33r/fvpes1aH1tvTsHhdu9MrBngLV3o3GxoFnptl8OxnJhj6TTruxyklcZmrQ+do62c2DH69VmO3mE9yswsr/TKXyi9OXLbLPVhOqXRdtvHzqfK1gz3Spc1K7+dA6XLcsD29cmqZ9Z19OV6Z++sPHGOaOb7qzwRRqxddHJEGLLfToYII0xbtoysOublEe4nOyh4J1tKhGHHaH2Lbc/rL/LqYMI168M6NUUYFilENhiKMGyx6BodRBgAS+93Ada138UuAbsE7BKwS2gSiDAAAAAAAFoGwyBeDlWlqgjDCyvKLKlYg1mgAWDGIMIAWE8UOUsO2xI2hKIGCS+mFWBoZn49n1kkDZUzbVQNE2Lk1fns+f3nubqQ94w9eOrKp2H78W2syvP3spasuuvYGA8w/g3xkTDMqTcPpZEIoDOapb3jnJZtBnxzJpbjvjkRWzov2FDZ3tHfp/OCAHNI1qKyLU8r372HKeUEHv4vh+msemQJR8IybR87N53AydrOsdXZnLz9sWmbbVdaX7afsd8EEr6evpyYw3y4XtfRjtnXWeITXUdEGKv7/mqWIgyhdqAla98wEkZRGVl1zMsjry2n97hhm/WiqVhfIBFTp0Cw4O3C+sOwTirL7CbrWKeNhGFpYmVk9UFtcG5ChAFN7XcB1rXfxS4BuwTsErBLaBKIMAAAAAAAWgbDIF4OVaVOlAo5SG4l+7e6u/3bOs6sZetMb8CstwAwD9QPqe/SjPnLrgsiDIDZ2XWWAOPeH/6YPrP85Kcv1X7mkSBC0S8UtcJHv9AHFeWt5zaJNOqg/ZR37NnPhBhJ76m/47kIYlwYHPwmr22rfZnQ4ee/+NVhllhjkagOqovqJJvKEmEIHZuOkSvN+DfEnH/lfKyZ3CWACCM5hGlNJOGFFCawsDTm0C/MAdo7Fdus8V5wYU7QEiMYlr85eytPi+DRmYEII1YPc4L29ch49zM+Vjtnqme4b8cJKMy5W8dhx+bL1m/L09LZ9THnbq3T9k5NEYaJPaxc/Q3rUsYhHueI5r2/mrUIw+zD9wlqf9aGbP2iRBjW7n19wnqbsMin8YInq4PyCsVnYX9gdfJ5xdaZnfr1nZoiDC8YsT7U+kfVz4vZOogwAJbe7wKsa7+LXQJ2CdglYJeMU5oEIgwAAAAAgJbBMIiXQ1WpI8IQ3XODq1q40gDQdhBhAMzCjnqnTWQRczCXk/cPfvjjWs86yk/75jmwS5Qh8YeEFK+/+VatcpRHVqQObbt0cOV+0rv8KkIM8EhMqHYjoVHRM7sJibRME71lFh8hrR7W3vNEGCaiaoJwEpo1/pVjr0QNPrJFZySYkLOvdwLuRIQJchiWY3E4c3wYRcKc/A3lE5vp3ZyslWfWjPAqqzMjEYZFlcjaLy9CiJXpZ+H3+9q560Qia+TNdq9zY9EHLF1YR1vfqSjCMAfvMJ1dxyKn+lV2jmjD+6tZizBMFKRFAgBtM1vW/1XLyKpj2TbnxRTa3yLuaDF7s+OwPsxHzuk4oYPtp/Sqk9KGIjDLS3lYfa0Otm/WOenUFGEIE5pZGV54VlQGzk0Ai+13Ada138UuAbsE7BKwS8YpTQIRBgAAAABAy2AYxMuhqtQVYRiatbrb3d885kw5XIejFQC0AUQYANPa0EMBRtYHDzl714lS8fY7d8fRL4qc3K2saaJiSOSh8rKEHggxIESR49QuyjyzC7Uta6dq12rji0JlWdQL1cG38zwRhtAxplHygPFvBhIcyMFYQghzKjZn4SwxQEgZZ2wTUZgAwi/mLO1FGFnCgs6UIgzLv6geOe9+js1WL2w2fds3VjdzbvcO1WEddZ4snZywPX7mfV+fIhGGReoI8yt7HVfZOaIN769mLcIwe7U23RlFaQlFVosSYdj+efWRwELbwz7MImQY2sfWdZz4zNu8j/rh9w3roN9hX9GZQoQRK0P1CPuLDiIMgKX3uwDr2u9il4BdAnYJ2CXjlCaBCAMAAAAAoGUwDOLlUFWmEWFIaKH9Y4N8rdO27u7edcQYALDOIMIAqE9y4fLfWISKGBJC1Jn130e/yIqukYXEGnI0V7lVHdxVjvbLOh4JMb77ve9/cmFw8LaErLQAePzS0y9mCZDCZ/bQNrSfiYbKiIzqorxVhtlTTKBUJMLQfjpWrjjj3zKYs77NMG/Ow3J4zqOMM3ae+MEWlZ9XZqekCCN0vK5ajzKRMEJs1npzDO/kiDBiYggfDcTShU7bdUUYeeWWuY6r7BzB+6vpUJuzSClNQHUJBVB16mv9W15edeuwSucd5yag3wVYLDw3YZeAXWKXAIxToDyIMAAAAAAAWgbDIF4OVaW2CCNJNrrJ4N6R0KJ/O9ws8YW2mRCDFgEA6woijPnx2GOP/cVnP/vZf6rlxIkTn8nbztlaPc6e339ezwm3f/u7zOcUOW5LEFGFaUQUhsQUElKofhJzVBFx6Hi0X1YkDeV17dnnDncuXn5v0UIM2VGeTQnbjl0thp2LT76fZwP+mT2rvRcJJOpSRehRJMLQMepYueKMf9N+8P79VCSgyBdZmIBBjvtCYgWtC/PxM8BXEWFoZveiOnYiwgKLpNEpEGHIcTlcX6ceOe9+xhErYsdqjtOxumUdmz/vqp8da5jO6h6eg/BYwv2zytV6fxyIMHh/Be0C5yag3wWg38UuAbvELrFLwC4ZpzQVRBgAAAAAAC2DYRAvh6pSV4TR3R7cTAUW5wZXJciIpVG+EmpooUUAwLqCCGN+nDx58mfD5VDLY4899uu87Zyt1aKMAENihaI0Yfq6woks6go6tE9WNAyr65EQ48n360Ykq4OES86m/uHYs9vnP7/vtiOinTOKFqf2qggpZZ7Z81D7VLtTOn0knKb9a1/lobyUZ5m2X1Q/HaPSECGP8W/axu7fT0UVHSey8PgoETbTu0Vo8LOyS8TRcZEayogwhJXt89LvGzdupHlamRIVhOksmkMnIq7wQoK8dOE58LPZ+3oUvPtJF59O+ajOXgzRyYnS4c+v7W/n3Z8rpfXpLNqGz9fOVSydF11Yuf6c6vrFrmOVWf5xWmrH+ytYT3BuAvpdAPpd7BKwS+wSuwTsknFKU0GEAQAAAADQMhgG8XKoKnVFGBrYp+KKDAGGYRExut39TVoFAKwq6ictus+xfg4RxtzwIgstn/vc505nbedsrQjD54akd/nVSwdX7ufNqi8sokQZZ3I5eJtYoqxooywqX6IOizRQpj4SYJSJ4GFRBrrbvdML688+//nvmt1IdOE2bXzhC1+4p/X6q/9psIu5t5R9Zi/7gVB2UNcWtI/tr7yqjCnmNe6A9Rz/+mgKcrqXA74EBRIgmEO/fhte1KC0cvCXM78XEpQVYZjTv5UR/m/od2ckSlB5lo+JJwwTg0hgoN8SjJgYopMhwvD1UH559ch49zPeV/mqXKuXyg/Thfiy9Vvl2f4mhvB1tnT2f5ivCS7sHCidRdXwIgw7V5afXUedK7uOlpeOw9dllZ0jeH8FsLr2q0locG4C+l2g38UuAbBL7BKwy6bZB+OUxYAIAwAAAACgZTAM4uVQVRYmwligcyEAwKwpEmFsJYNXOUuzJxRhhI7hBSKMDTmYD/e5+dhjjz0TCjhgCTgBRpmZ/yV80FLmg4hsU89dH3/857k9MykagBzTJa4oEpDYrP9ljnMJQoyo2CJHnDG2J0XHOHHiRDSSgdbLzmRzyku/s9LCEVtneoOvffPbD8o+s5fFR4Up016FRX3RPtq3aiSNMvXTseqYufKMf407d+6MI1z4RQ75sQgZijRhwojOyElfeRhlRRg+LxMe6K/yC6MvqB4mpuiMBAphftonFDFoXZguVg+JUfwxWT1KvPsZR4sw0ULsvHUyRBhWtj//qofWTfQnw/x1PP48+XNiWASPjhNYWPkSY+SVq9++XB8lpOynZJyW2vH+CtaTJtuvnlv07hMRKdDvAv0udgmAXWKXgF02zT4QYSwGRBgAAAAAAC2DYRAvh6oyjQhD++o4s9J4p+WTJ5NHaBUAsI6cOrv/t92d/hucidnjRBZjsYUEFZHt42eg4fa/kBO4F2+4hZfSJdhKBv/mSzuDn3zxTP8rs7uWySO9Lz/9hpywywgT5ACu54e8mfyVz7Vnn0uFEa+/+dZCnpt8VIwiR3U5tCtN2Y86yjO5cPlvFnGNJZBwgovvSizhbOzXlk7rM+zpZ5/97Gf/qaXT75jNSeQhm8Sqph8vVBFhGBIlWXtVOTHb0zptUxqlrStkKlM/lZM3doD2jn/ldC8n/FAAkYUc/sumLVO2BBlFlEmjvFS3edbDvfs5JoKoS5nzWbZ+Vc7BLK8jTkvteH8F60lT7VfjFwkwcGwC+l2g38UuAbBL7BKwyybaB2OVxYAIAwAAAACgZTAM4uVQVeqKMLzAQsfa7e5vnjjR+4xmudY2rdtK9m+lMzvv9m/TIgBgXTm1s/cN9XWPPXYOR+OZO74ciSwkvLDfcuq22fUzRBjXvaP4aPb+f3DrNjmz+Wwlg1/bPb67PfjTl5L+v1I7L4p+lX0dk0d2Ll5+T4KJsrPra1Z+lZ+V3rYrz3lGv8hCog+JP1R+FhJgVHkWlOBEx3T2/P7zi7QvE17Yby+ukP24NP8wssVjYo1QKJWVDuqPF+qIMLy9qK0qD0VekV1psSgs2lYmWsa09UOEQXuGmb77KR0log3gtIT9AvY7S/ReU+800/eZNcdAAPS7QL+LXQJgl9glYJfztA9EGIsBEQYAAAAAQMtgGMTLoarUFWGI7nbvtDlpZi2aNY4oGACw6qgf0wtN/1JTfaD+3zrbv9ZN+u91t/u3LUpQd3fvet2+Ffx5fxgJI5ip/7q2+xn6bR+JNEZijZtBXhP7QjZehDFxT9/Z/09f2u7/Ymtn8J1OkvyTsrZTVYAhTGSRhYQX2l4mqsa8kAN7nghDH2qqPguaECPpPfV3877OilARRq4I7cMJoSSkSB3QFDnD2d1GYHfjyBeyWQk6iISR8yx9bnB1ESIM374UoUUCIi36nRdtpuqYoggd69ndJ65x5ZuHxPTTRj/COWLh734QYQT33LY6LelZK50QA/uFFbZfP8lLmaVKmy+bp57LNJ6X8EJ10W/G9ND27wbAcxN2CYBdYpeAXTbXPhBhLAZEGAAAAAAALYNhEC+HqjKNCCN11DzTG5jT8YSj5m7/djrTLTPGAcAa4KP/+H7enDNObR85ahzrC88NrnL2pnEqeyjCSK+Dc/4eOXc/40UYinLhZ+P3edlM/3IS58wW3NszRBjh8qWz/X/9V0cRMqKCDBNrSqxQ5yOHHMTz0HZFm1gWcmJXRIwsTFBRFQlLLh1cuZ/0Lr867+cob1Mj2/DlbYQijciyGdqei5px3UfVgIiNLFiEISSGkn1pqSKMmkX9EGE0/zlna2fwYXd770epIKNi/4NzxGJ55pln0gUePje01WnJxiSnd/pv6P1MHUFGHfu9f//+4d27dw9feeWVw48++mgt29WNGzfW1s50XC+88EIj8vYiDJv4oGipMtlL2TxTAcbw2Uz2wGQywHcD4LkJuwTALrFLwC4RYYBAhAEAAAAA0DIYBvFyqCrTijAmnWWTR9K8EF4AwJo6J8ZEGBb1Z+vc3v9y5DjS/8dT20dO7N2k//bWuYtnWKovcuwPRRhDNmzGfa0LRRj+f3MOf3iPGud1+Jd/+ZeP6pqyxJdhG/4/yogw/LK1s/e/KULGY4+dS6MeTCPAsI8cRc9REmAUCTXmxdvv3E2PWxE5siiK5pGHF2L8ZbL3z7pJ8l/N4tqGjpkSSTib+VnOtujixU6f//zn9zPSXNezIbZ1fNna7V9btAhjnmOKInSsqUgbGv2cM3x2+eQo+tHgwy8l/X956khsVzi+wzkClgkijPGY5NM6gow69ru5uTmOyCIxxjoiMcG83BlMxLLE98dzE5hUzRunQ+C7AQDPTdglYJfYJXYJ2GV1+0CEsRgQYQAAAAAAtAyGQbwcqsosRRgAAG1wToytk5OT1p08t/cFOSx2d/rvV3ViZwmc+s9dPBMRYUw4emu2/UCE8Rc5kTDGaZU35zhPUNH/f6bZ/1TS/7f6O41AQuKNoucoCRVUjv4uGtXv2rPP5aYxEUaeUCMPi6SxtTv4zzO7ttv9/8nbRZ4IQ3jRU9n+UgIoH2FDy+dOnv8vsK34gggDmvacMxHRK+n/uawgA+cIWCaIMGL2+1CQUTSzf1X7lYCgM3K01+91ZZ4ijDt37swt7wa8m0aEAYBTKfDchF0CYJfYJWCXc7YPRBiLAREGAAAAAEDLYBjEy6Gq1BVhaIZrHWPZpewMjAAATXdOjK2L9XG2rS1Ct1nPEJ8RCSPFCyq8CMNv098TJ06k18U7mmu98ibaSPZyamfw71YhEoaQ0EMRMRbNpa98/fD1N9/KTTOrSBhfSHpffex07+lZXFu7PkaRCENRLLRNYgyzJwmhhv/flNBJwiflMRJd/MyLn2xfiz6DbR1fuuf6/93X/ptvPyj7zN70MUURX/vmtx+YaBGa+5yTtXS3Bx+P/v4pJsjAOQKWCSKMAvs1Qcbu4Pfdc4OroSCjqv0qgoM+87/0Uvw576OPPjp89913S+VVNp3lW0b0EcuzTJ2Ut08zKxGGyg554YUXKuet8z7tea1yk1csDAAAgABJREFUvvPOU15dOogwAHAqBZ6bsEsA7BK7BOxy7vaBCGMxIMIAAAAAAGgZDIN4OVSVug7CGthXcc4k2gYArItzYriuu9u/nfVijv5vOrJEGJppP0uEEc7A/9hjj/3a/y+Hcc5sPlvJ4Ndl7u1fOtv/13915IT7T2L5TCPE0EeOMpE0JMCYJuJGHd5+526pCBcWyaIqXoCRNeP8rCgSYYS25u1Jv4dJVL+NYP0/+P8l2MCq8u8tZZ/Zmz6mKJPm1M7eT7vbey+wNGs5tT34X6uM7SYEGTuDn0iQ8Ve7e9/EOQKWhZ4bwmf1Nr17qmS/TpCxtdu/JkFGlfdXJkzwixzyxWuvvTaxfXNz8/CVV16ZEE7Ydgk4LF1RWdr/xo0b6e9HH3003bdMnkqjOl24cGG8Xr+1zu+v39pXeXdGAgIJDEIRRlZ9LX+PIl1YflauiRbCc1gkWLh27dpEeuUrEUfwPjgtw8Qdlqf9zlovgYjlGaL6Wr52nvy59Nc4rAsiDID1+G4A6/vcRL+LXQJ2iV0CrLZdIsJYHIgwAAAAAABaBsMgXg5VpXYkjHODqxrcx5atZP/W+AP/bv82kTAAYF0cZWMijKwXnYgwpidLhBFsmxBhDNn43Oc+d1qO384J/J5m5des/ZzVYrJEGN2d/f/0pe3+LxTxIkt4cfw6JY/sXLz83rVnnzu8/+BB6eeTslEkJFhQOv1dFBKV6HjKfKip+ixowo2k99TfLeJaF4kwRra26e3J0np70u9Q8GRCDYugAcfR83HZ9rvqIgyz1a2d/pvdnf7rLM1aTm33byPCKEZOzFUci7P20+86+UD+PbdqFK+2LtOKMOSYL6d7feaXMEICDBMxdJxIQkIHOehrnUQEvv1bOhMHZBGm9XmaMCAvz1C44ffXNsNEDtqmNH6/TgkRRijWsPOj/fXbhAv63yJI2Lqi6BZ2XlWG0vpj8Pt1AlGH0tl6levPoa23fsiOX8KRsO/SetvHzovWqy46NjtHXtTSQYQBsDbfDWB9n5vod7FLwC6xS4DVtktEGIsDEQYAAAAAQMtgGMTLoarMy0FYTmXd3b3rR845vdO0CABYZRBhLAc5dstJPCaekGO3ttkSvxcdpeFMVsOLMFIH26T/r04dRbyoFZWhjhDDRBhl0isShiJiLIpLX/n64etvvlWYTnWq8ixoAoyz5/efX+Dl3jAbKhIpOXvaKMpPwo2CdDBi5+KT7+val3lmb/qYoqh961i54s1/ziklvEj6/zK8L7TBOSJ0tK67X6dg9n+oTpudlspEwvDCC02ooWezad5fyQG/M4o8YZgzviIreCQ28FEWzB68MKPIdkKhhgkYzPHf0nlhhbc1LxAQEjFoEdoWSydBQmirnZIiDBNJWH4WycNEHlX6EwkddK78eVUe4fFa3WIRMsJrZetNKBHLL3YcyiO8biYS8dEwOogwANbmuwHw3IRdAmCX2CVgl821D0QYiwERBgAAAABAy2AYxMuhqszVQThJNrrJ4J4WWgQArItzYrguq49DhAGrylYy+Dea2fyLZ/pfmVWecvbrffnpN772zW8/KDPrv8QXsp8yzukSO5SJTDEL3n7nblqvjz/+c2HaKuIQm8E7uXD5b2iB7eLxS0+/qOgqZZ7Zmz6myEPHqGPlijf/OWfScbv/56NISIMPY8KLtjlHzEqEAbMHEUaO8GKn/4bShMKLaew3FGGYkMGLLQyLnqB9vD2EURfybMf2LcrTp7M6+ogZYb4SNli6UDSgbZ0aIgw7F0UihKr9gtVVi0Wo8GVY3UIRTN5621911rUzYYowEUoozBCKwGF1sWvhRR4dRBgAa/PdAHhuwi4BsEvsErDL5toHIozFgAgDAAAAAKBlMAzi5VBV5u0grFkWcUIGgHVyTsxbF76Yo/8DcCTJRtK7/Oqlgyv3ywgxfvDDH6dLEcqrrDBiWuRIXkbwYXUqc5zKk8hh7WXrTG8gmyjzzN70MUUeOkYdK1e8+c853aT/SVnhxbo7R8gxWc7GRp7TtDlIhzPuF+1XB3OAjpUVS4tzxPq/e4oJL9TnKkLpPN5fhSKMLCGDsEgJljZLWBHDiyXK5BmrY0xEYPsrAkReuk4NEYblVxTpo2y/IDGERRkJl5gIo+gY/Hq/v4kprM+w/71YRtEusuqCCAOget+NUynw3IRdAmCX2CVgl9B8EGEAAAAAALQMhkG8HKrKvB2Et5L9WzgWAsA6OSfmrQtfzCHCAAhwQox7f/hj7jOKomDIhhQVowhFnXj9zbfm/tx06StfL1WOImCoTkUgwAA5yKoNFNnDKoswdGzaXtYZGJb3nLO1M/iwu733ozQSUgnhxSqOf8sgcYMcis3ZWM7EcqyOOU3LidvW2yLnay+QCPfrOKdoKyMUVNgs/H5m+lhZoeO41ddmyv/qV79aqQycI1bz3VMd4cU09psVCSMWdSJLMFFGIJSV1vI0gUDMNq19x8QAXmCgvLPSdUqKMMzGisqNHVtRX+T7FcOiVMxShGF5qu+wY/J9g50nnyZ2fWN5Y78A6/3cBDw3YZcA2CV2CdglrDOIMAAAAAAAWgbDIF4OVWUuDsJJsqE8LQpGNxnco0UAwDo4JyLCAJgNZ8/vPy/7kNAiC4kvitIYEj2UiVAxDW+/c7d0xA0JMFSnvGNTfXcuPvk+fQRcGBz8RoKcomf2po8pstCx6Ri50s1FTtup8KIF498ymIO2HJAlfDBBhne0Ftqm/7VeDsxazLHaO0zniTCsLOXl0YzzHefsbI7OcnKXA7zK0u9OIMSw+nRGTtDKt6gM/cU5YnU5eTJ5ZFqR27QijFg7D9fnCSaysLRh2w0jZGTlKRuWPYSY7Vg0jk5EjGTH6PONCZq8OCGvXNVV58uOpcx5sDooP1+miaxmKcKwemsJBRm+vwj3seNAhAHQ3ucm4LkJuwTALrFLwC5hnUGEAQAAAADQMhgG8XKoKnUdhE/t7P/MHIyLlu7u3nVaBACsNCNx2UR/GVvnGG+rOJM0QFsoI8SQ83aZiBLvf/BhaYFEXVSXMkIPi+CRVZeHAozL78lxkpYAioQyeOrKp3lRX8o+dy9zyWrvOjaivTD+XbH3KsccrWMO2RJadCKz9JuDd5aDuM/HHLi9aCOWh/4PHbGFiUNsfScyU72VEUYpCMvAOQL7LUtMhGFCIbU9a48SHIRttI4IQ3+tnUogYHmG6UJMrKC6+Tp1AtFFKCRQWWbfPt9Q0KR0PjpNXrmWn+0b/h/DCzwsnZ3TcH1nBiIMq3esb/CiM9VLx2XCDL8+K2/sF2B9n5uA5ybsEgC7xC4Bu4R1BhEGAAAAAEDLYBjEy6GqzFOEsZXs39o60xvggAwAAAAxkguX/0bPDFlRIyRkuPSVr6cfPYpQutfffGtuz0xl8pfDudJlHY/EIt/93vc/uTA4eBsBBjw0hGRDopwy7XwVP1jq2BgPMP5dFcy5PHQglsNxJ3Bm7rjIFH4x52qbZT9PhCHkDN5xog85PnecaMLKjpUVm9G/ExFWhE7VVkYo/sA5AvutYidehOEFCXLIt3at315oUEeEEYoDlKeP4JKVp0QBfh+rk0V7MLywwdfbfhsWIcLXRefAfmedC593eA61LU+wYHn7ukkM4sUfsWgcWf2NXx+W6/MJRVvCjsMfk86dP2dZeWO/AOv53AQ8N2GXANgldgnYJaw7iDAAAAAAAFoGwyBeDlWlrghDjoM2y3tsOXGi9xlaAQAAABShGfL1PKJIE1kfPCRsKIpyof2VTs9fs14UuaJMpA2JL1SHWEQDCTAuHVy5n/Quv4pDOoRIuDzvaC6LRseSCrMlygbGvytClghDmNOxT5e3mON5kQjDIghYeptd3s98X1RWKMIIsTzMad7K9I7oOEdgv2WRs77adSyKg7ZJJCCBT6x9SVDhI1vk4W3HolP46BJhnnl2nVcnoTyVt/JRfjqOWL7++OwYsso3UZYWnauw3lqnMr2YJURlqE9Q/irXzrnqYfvauYnVQeuy1vuIOYYJPGLXVuX4c2T9jv7648jKG/sFWL/nJuC5CbsEwC6xS8AuYd1BhAEAAAAA0DIYBvFyqCp1RRgAAAAAs8ILMWIChm986zuHP/jhj3OfaSRy0MeReS1FUTBUvo7h9m9/F92GAAOK2N178vdZYqRVRMeiY+LKMv5dJWwm+JjTcscJHEyEEYtOYYs5aBeJMMKoFDbzvTlslynL0nYyRBjabjP7C/31s/LjHIH9NtF+q0TNAOwXgH4XgH4XuwTsErsEwC5h1iDCAAAAAABoGQyDeDlUlVIijCTZyIt6UWbB4RAAAADyUJStnYuX31PUiVCIce8PfzzMi5axbDTjv0XhCJEoQ3VPek/9Hc9DkIeJkSTaWXVMlKRj4soy/l01vFjB8JEvhEQNnQzBQ0iRCEOY8MJEICbI8GWrXiXeCWXWSTPcd0YRNvS3ykz1OEdgv8sAEUY7wH6BfheAfhe7BOwSu8QuAbuEpoIIAwAAAACgZTAM4uVQVcqIMLRd6aZZiLYBAAAAReQJMUzMEIs0sUxUT9U3r85nz+8/z9WFMujj3jp8YNYx8KGS8e+qYo7fL710JPxTpAqJIjqBwMHSScxgkSi0j4k4bF0ZEYYJI0yMcefOnYntyk/rX3nllTRfLSqrE0Tt6OSIMEzgYYtF6sA5AhBhAPYLQL8L9LvYJXYJ2CV2CYBdwnEQYQAAAAAAtAyGQbwcqsoiRBjd3f5tOVXSKgAAAKCIEyd6n+l9+ek3vvbNbz8IIwK8/uZbjRJimADjG9/6zjEBhtX17O4T17iqUBY9M58fHPypqVFfyqC66xh4/mf8u6pIACEhhT5jmvjBhBX+06ZEDSaa8Ns7o2gTRhkRho+sEYt4oWgYsbp0AsFGpyA6h9XXCzdwjoCm2q/syMRQsL5gv0C/C0C/i10CdoldYpeAXVZD0Ye75wZX6SnmDyIMAAAAAICWwTCIl0NVqR2lIkk2tpL9W91kcE/H2u3ub8ppUovy0zrbjgMWAAAAVH3OSHqXX710cOV+KMSQg7eeX/QhZJmoXhJgXPrK1w+z6qiPIVxMqPMRrYlRX8pg0V9o+4x/Vx2LNCGxgiJdSHChvzHxgrbduHFjnFaCCU+4n37H8rF0inaRhfK2slQ/le3JytuX0QlEIjhHAM5NgP0C0O9Ce/j5L35Fv4tdAnaJXQKsuF3KPk7t7P+MnmL+IMIAAAAAAGgZDIN4OVSVuiKM7u7ede2r48xKYxE0JMSgRQAAAEAlkmTjfP/gZQkx7v3hjxPPLxZlQs9aYQSKRSBHc4kvJML4+OM/T2xDgAGzQBFU1I7Ctt9kVFeivzD+heYiYYmiaMQibaw6OHFjv4D9AtDvApRD7zEYs2GXgF1ilwCrbZeIMBYHIgwAAAAAgJbBMIiXQ1WpK8KwKBdykMxLpxcAKoNoGAAAAFCHs+f3n49FBVD0iW986zupGGJREQMk+DCRhWbDCrfp2W/n4pPv14oyBhCwffHyj2LRYJqI6qi6qs5cOca/0Cw++uijNLrG5ubmWkbBEDhxY7+A/QKsEltneoPBU1c+pQeARaP3FrUjo2OXANgldgnYZaPG8YgwFgMiDAAAAACAlsEwiI/YVan7EsEiXJw40ftMXjoTYTAbNAAAANQlS4jhRRESZMxLjKFoF3IQk+BDy9vv3D1WD82OtXPx8nsIT2FmJMlG0rv8aiwaTJNQ3VRH1bVIoA2Mf2HxvPTSS6n4QsuNGzfW8hhx4sZ+AfsFWCX0Pl1j2HBcCTBv9M6k8Y6E2CVgl4BdAnZZahyPCGMxIMIAAAAAAGgZDIP4iF2VuiKM7u7e9VRcMfybmaa7v6k0zOICAAAA07Jz/sknYhEohEQSoRhDwohp0ez+RfmqbAkwLgwO3kaAATMnSTYUXSImQmrSR8k0AgYCDMa/OHE3EkXCePfdd9f6GHHixn4B+wVYNVYp6h2sB2pr3/3e9z853z94GQvELgG7xC4BVtsuEWEsDkQYAAAAAAAtg2EQH7GrUlcgYTOQaNEgv3tucFXHrIgXNvBXpAyLmEGLAIBloj5KC2cCYMVteficoWcLCSNieDGGFokj5NhV9kOdBBZyKlceinhRFGFD+RIBABbB2d0nruW1/WVgtqa6cYUAJ25YJjhxY7+A/QKsHKOod3Lym9UkAgBZaBZ53l1gl4BdYpcA62OXiDAWByIMAAAAAICWwTCIj9hVmSZKRXd7cNOcHPMWZoUGgGUjMRgvJAHWxJ63e6fPDw7+JAfwvA9v+miiqBkSUfjnEgkz9IzmFxNc2PKDH/748PU338oVbyDAgGW1fbXZZc4AqLJVB9VFdeLKwCqNf2E9wYkb+wXsF2AlGY4jNcuyH6tqDCu7YGGZdlFb0v198NSVT9W+Hr/09Iu8u8AuWbBL7JKFZT3sEhHG4kCEAQAAAADQMhgG8RG7KtOIMFJnsO7+psQYPvLFVrJ/S/9vnekNFDGD1gAA80RCL/VjWYIvi9xT9EJSeeTlk1d+Xr3KfkhI01Z4uavjsjrTCqCNdr9z8fJ7+uhWZgY0Rci494c/pov/wGK/Jbiw7WXQzGv9J/76k8GXv/rP+VgKi277clS0qBhq24vCR5pRHRBawyqOfwEnbsB+AfsFaCJ6t6MIrrIHFpZZLYpayDca7JIFu8QuWVjWzy4RYSwORBgAAAAAAC2DYRAfsasyrQgDAGApJMmG+lkTf9mi/yUMs2R6CRmL0OPz0Uv7WBqtj71sswg/EpyF4g6tD8u0OkX72mH5YXrl6/MJ90vFb8Fxj+uBMzi0iKpCjFkhAYZs7uz5/ee5CrAsFIFid+/J36stynlxnjagvFWGylKZRL+AVR7/Ak7cgP0C9gsAAAAAALDq43hEGIsBEQYAAAAAQMtgGNSswW9bRBg2G7scsjRTBDOzA8C8UV/jBQ6pIGP418QJ+l/p1C91d/eup2l3+7e13rYJL4BI8xqm9QKH8CXmOO0wr/FvJ/qw9RJSSMRhZds+x45jJOQY7zPM62FdjvLy/akEGD6/tAwnItF+CDGgTegZ5MLg4DeXDq7cf/+DD+f+3KSIGQgwoGn3Q4mRBk9d+VRRKspGcymD8lKeyltlqCzOOKz6+Bdw4gbsF7BfAAAAAACAVR/HI8JYDIgwAAAAAABaBsOgZg1+112EoRmozWE4Oou8HIS7+5u0BgCYNWOxQ+AQqv4sFCPYuvCFpK0fizZMvDCKsmHbfB850cdt90778MS2zzEhhKJtjIQdE4KK4f5jAYY7DqXx4oyJfZzIw5eR9sejbV5kAtAKhraQ9C6/Om8hhpzRzfY56dA0G1C7lCBJbVS2oPaqqC1VbEJptY/2VR7KS3mmbR6BH6zJ+Bdw4gbsF7BfAAAAAACAVR/HI8JYDIgwAAAAAABaBsOgZg1+11qE4ZyKixaEGAAwa0xwoEgTRWmzRBjjqBORCBXp9iCqhr1sG4sgAiSEUFn6G26ziBu+vlZ+7EVpTATiRSNe/GGMo4NkHA/AWjN8LjnfP3hZM/a//c7dmT8vIcCAVUH3B90PHr/09Is7F5983+4bX/vmtx9obBJbtM3SaR/tqzxi9xqAVR//Ak7cgP0C9gsAAAAAALDq43hEGIsBEQYAAAAAQMtgGNSswe86izDGzsvJ4J5EFt7pWA5bynPsdKxZ4QEAZoiPIqH+KIxK4ckSYYz7qOH+sf1su98vFrkixPpA3QdsscgWPq+YMCOss++j7ZjVp2pduJgIo/EvBAHmyNnz+8/LBjSb/yy4/+BB6qSe9J76AFEprCJ2T9I94uE9ae+/P3Nh/38Y/z/cpjSILqAN41/AiRuwX8B+AQAAAAAAVn0cjwhjMSDCAAAAAABoGQyDmjX4XWcRhjkU+xniQ+TIZQ7BsZnhAQCmwcRgflHflM5UnyQbli4zEsYomkZWP9Y9N7iaJcKI9puKEDTaJ2vxeeWWP8wrLMtHxyhaaB3QZmYlxJAA49qzzx3uXLz8Hs8xsG7jlLxneIB1Hv8CTtyA/QL2CwAAAAAAsOrjeEQYiwERBgAAAABAy2AY1KzB7zqLMI5mb+/fLkqnGd7TtMweDQBzQGIvzeBtUSXG0THODa5amkWJMLwoRPv4KBWxqBq5YrYCEYaPshFbmM0c2s7O+SefkK385Kcv1Xo++vjjPyPAgPX9cLTTf0MLZwLaOP4FnLgB+wXsFwAAAAAAYNXH8YgwFgMiDAAAAACAlsEwqFmD37UXYSSDe362+RiIMABgkZiwwfdPWSIME0ZIPBHLK7Y9T4QxFoBIoBb0japPWIe88tVnjvMb9Z+K8GHrEFkAFGM2U1WI8f4HHx5eOrhyP+ldfrXoOQdg1fCR6r54du/xeZen+6XGRWmUKmD8C4ATN/YLgP0CAAAAAABMPY5HhLEYEGEAAAAAALQMhkHNGvyuswgjdwb3EZo52py8mEUaAGaFHEglTIiKu1wECXP4NBGG+i2f1CJdZEX18VEnwnVhv2llxERnvi/0L0VNpBZ7URpGvQjziTmz6rzU6c8B1hnZyvnBwZ9+8MMfH95/8KDwuQgBBsRQPx0uuodY9KFV6nsVPWprd/Cfj+6Lg1cXMSbKutcB418AnLixXwDsFwAAAAAAoPo4nvetiwERBgAAAABAy2AY1KzB7zqLMMbOy8ngXjq7bXd/M52ZPUk2lF/q4GUz0mc4OAMA1MELHkKBl0WQ8JEwvHjB93d+NnAJIiy6RCryGAkkwqgTeZEw1NeFog05gGu9RcJI6xXU1aJhWB/qBRih4MKiZ6h/nRBiDPd72OfuXaeVADxEfcDOxcvvXXv2uVwhxtvv3D3sP/HXnzx+6ekXEWBA+KGlaFH/vApijNM7/TeszlvJ4O68y9O9ykQrtCTGvwA4cWO/ANgvAAAAAADA9ON4RBiLAREGAAAAAEDLYBjUrMHvOoswvMNv0UIUDACYRx/7UEDRvy0RgwkUYlF6bJsJJazfM0HZQ4fUyX4tzCdXhOHySkUSo7IkvFB6E2J4AUVY3lis4UQgviz1p5bGjscfdxrtA+dxgGMUCTFu//Z3qQ2dPb//PGcLYh9a0j72TG+gPtmWNCrTsL/2/XKT+2AvPowJDQHaMP4FnLgB+wXsFwAAAAAAYJVJ3037idpgbiDCAAAAAABoGQyDmsPaizDEaMZ273g24UzsZpYHAJg1coZNZ9d2fZD+1/rQCTYVL4wEC1q8OEwvKkMxRJpvd38z9rIts9+UOG1Y9lh8IXHIsB+0sqy+ad72cnS4j8QbdhwSk6T1zytL+wzT+eNOhR3DfOhzAfKfWy4MDn5z6eDK/fc/+HD8LIQAA8p8aMl9Zla/bEK7UR+e9XFMS6W+eph3ZvpRBLqY8EP7hPVN71HJ4FMn/Ps0Vl/dt6yuRdWzcqaJAmL7VxJu5xw7MP4FnLgB+wXsFwAAAAAAAGBaEGEAAAAAALQMhkHNoRUiDId3wCLyBQAsmpn1OzNy5pxWDKHjKTWrurbhgApQycaT3uVXTYjxk5++dOSMzqxRUPChpeiZ2SIYpRGJgjbnIxb5yEdhfvrfCwFN1GdRmcb7atv24GYoHlRZun94YaHyMHHi8PfLx0XT/ZetnjFxtQkEjx3v0GasfhPpldbdlyxyVVq/4LyEx+AjjsTOi90Tj0WRGuYzi/EMtGP8CzhxA/YL2C8AAAAAAABAGRBhAAAAAAC0DIZBzWHdRRhydpIzFbOuAwDUQ060FgEjFJHIATXqzAsA05MkG49fevrFhw7cCDCg+ENLoQjj3OCqiR58WzNRg4kZUqGDEy/4qEsmNkjTujRhhCTblkZ/8oILFyVJohCfxxeTi5+PCR7GwobRfcfyOarnMI9RfiYEORoH9E5H01okKCfaiIowjgQht/3x6Px5AYj+D8+L3RfHQhUn4pg478D4F3DiBuwXsF8AAAAAAACAKUGEAQAAAADQMhgGNYd1F2HYjL44LgIATHevMIfb1IlVM4t7p1LnnAsAs6W7O/j/Tu0M/h1nAsp8aCmOhDESIDjxgO/jJ8R2qQjhKHKGFw94sYHWh+VlRdGwckyk4EXS4ygcO/3/ebjfp5GIHJ/q3mPiBi+2ED4yk+Vr9yl/rELbTUhhxxsTYfjzMjGWcNExtM0iauSdF18/ovEx/gWcuLFE7BewXwAAAAAAAIBZgQgDAAAAAKBlMAxqDmsfCcNm+w2crwAAoGJ/6mYUn3CMpX8FqPTcpaVshK7U6Xx77//d2n78X0xbtspMRVTd/U0ihK3vh5asZ2atGwsdAvFcLIqEbzeheGBCbBC5B/joE2EdwqgZ3jaOxAuD/5AVCePU7uBFE5GUicBkx5umHQkl8mwzFGE8FHNPHkfKML/wWIrOi53n8NiB8S/gxA3YL2C/AAAAAAAAAHVBhAEAAAAA0DIYBjWHdRdhyEEqdTjUDLa7/dtyelI+WUuRgxYAQJuRA64cd9Wvpk6k9JmATTwie5CzthY5XueJHMpEKvCYE/ipnb2fTlNP1ck7s8ec7WE9PrQULXomDkUAXkwQez428YAJN7zYINbWs4QWXrgQRoPweeYtXzpz4ZwXeUiolGVvE6KPZP+W6pOVNibCKLIXE4TYdl9ezMbNnrE/xr+AEzeWiP0C9gsAAAAAAAAwKxBhAAAAAAC0DIZBzWHdRRh+xt8ySy2hBwAAALSKVJA0ckzPdHaPzJ5f9XkjFXXs9P/9qe29m9PU15zF9be7u3ed5531/dASWyRA0DNxLAqL2nLZ5+SY2CCvHrF2lrVfWRGGRBeyrdgxalsoDrSoeBN5jITZPm2eCMNHDYmNM2RTZc4LIgzGvwA4cWO/gP0CAAAAAAAAzBpEGAAAAAAALYNhUHNAhIEIAwAAAMrjBRg2u76eH7Rev72DuDln+xfhVZ83tnYGvzx1dv9vp30BH41MAGv3oaVq+5Iow7dXjQ2yFst3mSKMre3+v7B6qz2Hz/qhzaUkyUZMvOGFUlOJMM4NrpY5L4gwGP8C4MSN/QL2CwAAAAAAADBrEGEAAAAAALQMhkHNYd1FGAAAAACzQs7Yuc7e7vnKz9zvX4SHzzT6HUYn8OSKMJJkQ/un+QURAMIX8HnPUiq/TD7Q/A8tdZ6Zq4p0linCKBI4pNsL2rBs19Ka7cVEGCa2yhJNhNsRYTD+BcCJG/sF7BcAAAAAAACO0LtXTV7FmZg/iDAAAAAAAFoGw6DmgAgDAAAAoBw2k353t3+7MO3u3nUt/vnFz6x/bFb+IK0wp+1TO3s/9evTaBzDOhyLEpDs3/IfNbIigpkTeFqPSD7aj48jq/mhpc4zs7UBHxliYrsiQThhwzxEGKdPX+yVFWF88Uz/K8cKVbSLkShCwicTFnkR1ETa0TGbLURFGCMb9ev8B8RQaIUIg/EvAE7c2C9gvwAAAAAAAPBwHB97twqzBxEGAAAAAEDLYBjUrMFvG0QYcpTSscrBUYN9LXKs0jqcDAEAAKAM3sm77ovwdP9RPhJN+Fn5td6nj4kwvKO30qdij3ODq+O6Df/a7P6q50RUjmFa/a889PzjxRvpc5LyGTmnax1XfPU+tNQSYQzbibWdVCDgBBfWfny7mmckjEkRxN4Lfp1vs2HeFqUmtaFh/VXXLHv1+eRFwpiwNUW+GZ0XrTfb9IIsRBiMfwFw4sZ+AfsFAAAAAACAh+N4RBiLAREGAAAAAEDLYBjUrMHvuoswvHNj1pI6GjqHMwAAAACPn/neHLfrvAg3R/GJ55rhM0jMuTwmwvDO315Iqjo93LZ3PVauz1uCi+gs/y5KQF2xCSzvQ0vdZ2YfNUXtMxUsj0QMWnxbW5YIQ2yd6Q0eCiP6t01gHUZ5SfcfCTPGabcHNyeO09lJTIQROy8aM0xEsFGUkJLnBREG418AnLixX8B+AQAAAAAA2jSOR4SxGBBhAAAAAAC0DIZBzRr8rrMIw8/+bI5VcsCS42H6e+RkyIzPAAAAkId36J7mRXhMJCHGAorhM0q4zkQYXggSey7KqmNUhDESqcqxnKhg6/OhZRrhsp6bvcjARA5eaCCWKcIQEmKEIhH9r/WhqFrr0md/l9Yiv8QifsQ+CobnxdIdsxsnpoqdF0QYjH8BcOLGfgH7BQAAAAAAaNM4HhHGYkCEAQAAAADQMhgGNWvwu84iDHOYyhNYaJbnaWe2BgAAgPXGPy9M8yI8K8JELDJFKMLwzu/6HS5ehOGfaWJO8V7Qkc7wf6Y3QIwBvn2swke6tM2WjGaXHtOUke8YKzD+BcCJG/sF7BcAAAAAAADKjeMRYSwGRBgAAAAAAC2DYVCzBr/rLMIoOyOwiTViTpEAAAAAXgBR1xE777kkNhP/WIRxdu+m/vdCkKLFl5FVrsr0EQIs+oHW42wOfKQDxr8AOHFjvwDYLwAAAAAAQN1xPO93FwMiDAAAAACAlsEwqFmD33UWYciRUM6FRbPe2uzTdcoAAACA9rzIToUK3f3NafavKsLQtvR5xUW60Lq8pSgSxsRz0HbvdHd7cNMLMvQMxRUHPtIB418AnLixXwDsFwAAAAAAoM44nve7iwERBgAAAABAy2AY1KzB73qLMPaue+fFKEmyYU6HtAgAAADIfq7o3w6FEllsnekNUjGoi7I1rQjDR+Oo8lxUZR+rBxHCgI90wPgXACdu7BfgiJ//4lfYLwAAAAAAQMVxPO93FwMiDAAAAACAlsEwqFmD33UWYZw8mTwigYUW7e9nhRZaZ0INHA0BAAAgDy+CyHtumEh3bnDVvwgvEmHoucTWhSIMPcf4SBjHCpawNBKl41i5w3TpM1DGMVi5vi4AfKQDxr8A04EIA/uF1eXas88dnt194hqWCAAAAAAAUH4cz/vdxYAIAwAAAACgZTAMatbgd60jYZwbXN1K9m+Z86Et4TqJNPQSIFy84yQAAACACRRMpCDB5/i5o7u/qWcHi7DV3R7cDF+EF4kwvLgiFGGkZZh4VCLTQESh8uw5J7dciTVGUT2OiTlchLA6z14AfKQDxr8AcRBhTIeijA2euvIpLQkWzf0HDw55NgYAAAAAAKj+Ho73u4sBEQYAAAAAQMtgGNSswe86izC8o2SdhRcDAAAAMIFECiOxQ96SCiGGacMX4dOKMBQNwwQUR0KQ/u1UOGrCj+HfMuVKPOLFqDomnw/PQMBHOmD8CzBbEGFMh0UEe/uduzQmWCi3f/u7w8Y7tAAAAAAAADTwPRzvdxcDIgwAAAAAgJbBMKhZg9+1joSx3TutY6y7hDNMAwAAAKTPGN39zVS04AQRJr5Inx8CIYS9CJ9WhJGSRrLYu+7LTss9N7jqI3MUlZtG7tge3CybDwAf6YDxL0B9EGFMz/bFyz+6dHDl/vsffEiDgoWgtvbd733/k/P9g5exQAAAAAAAgGrv4Xi/uxgQYQAAAAAAtAyGQc0a/K6zCAMAAABgEWh25qUULLFHRPBRp/5LOwYAPtIB419oAT//xa8QYczguSfpXX5VTvGKTnD/wQMaFswNRV2R6EdtbhbP2wAAAAAAAG17D8f73cWACAMAAAAAoGUwDGrW4BcRBgAAAAAA8JEOGP8CzI9rzz53eHb3iWtY4pQkyYaiElgUL51XCVwUaYSFZdpFbUn3icFTVz5V+3r80tMvIsAAAAAAAACo9x6O97uLAREGAAAAAAAiDFji4BcRBgAAAAAANPUjXXe7d1q/u+cGV5tQN9Ujrc+wXlyp1WLrTG8gx1reysCiUcQG3mvMHp1P9cmKMMLCMqtFYindL4gSBwAAAAAAUB9EGIsDEQYAAAAAACIMWOLgFxEGAAAAAAA09SOdfms80JSPdqqH6qN6caVWCznU6tq9/c5dXszAQrn9298dNv6DOAAAAAAAAADAjECEsTgQYQAAAAAAIMKAJQ5+EWEAAAAANJNTyf6trXN73+dMQJs/0slxXmOBkyeTRxphl4gwVprti5d/dOngyv33P/iQlzOwENTWvvu9739yvn/wMhYIAAAAAAAAAG0AEcbiQIQBAAAAAIAIA5Y4+EWEAQAAANBMtnYGvzx1dv9vORPAR7rmgAhjxUmSjaR3+VU5xSs6wf0HD3hJA3NDUVck+lGbU9vDAAEAAAAAAACgDSDCWByIMAAAAAAAEGHAEge/iDAAAAAAmgkiDJgXerbWWCB9xk6SDf3dOtMbKOpELF13e3Az/dvd38x1JB7lNZF/BipLZXbPDa5q0W+LduE/0j2sQ++0bcvNe1gHSzNxPMP1qr8/nqIxhvbv7u5d9+cKEcYaMLyOikqg66jl2rPPHf78F786/N9v/VsWlqkXtSW9Zxk8deVTta/HLz39IgIMAAAAAAAAAGgTeperd76cifmDCAMAAAAAABEGLAlEGAAAAADNBREGzHMcYEICExX4Z26JD/x6v3R3+7dNLOHROm0L08fEChJcxPK29F6EYXW1/yWgSOsx/Jv1gc/yMsfnrLqN8w0cpE18EabdSvZvWfmIMNYDtXl9EL745f/6lywss1rO7j5xLSZsAwAAAAAAAAAAmCWIMAAAAAAAEGHAkkCEAQAAANBcEGHAPMcBqZAhGdwzYYXEBeYw7AUYciROHdU1e9lIyKD9vHBBESYm8+qdTqNcjNJLvGBplZcXNVjkDBM3pHns7P2PVsZxEcZxkYVnLNLY3buerlAEDKvb8K/qOo6uMVpveY9tb1ivh6KTvevaJxSlIMIAAAAAAAAAAAAAgGWCCAMAAAAAABEGLAlEGAAAAADNBREGzHMcMBYZBGHhvUhCgoeJHSVoMCGG22aihby8LHqGiRlSYUYgohiLQyTkkGBid+96KMIQY1FFpH7junf3NyfyHO4TRvCQ6CSsn/6GkUHG5ToBCCIMAAAAAAAAAAAAAFgmiDAAAAAAABBhwJJAhAEAAABtRc7icuo+5sRd85lKeaX5jRy/Z0HTRRg6d+kxB473sBrjABMTWPSLcJuPXjFx3Xf3roeiiCzRgrBIFya4yEvrRRGnT1/sHQkt9l44JsIY1UFRL8I2aSIOW2eij3FkjNDORgISE1X4c5P1UQsRBgAAAAAAAAAAAAAsG0QYAAAAAACIMGBJIMIAAACAtmKO2dM6UnuH7Vk7ZjddhBGLUACrMw7IElpI2GCRI0xc5BeLhGHX3Ue7CCNbhPi0KjuWvxdp+MgTSm9iDomdYkKJcd2dMGgcuWP4N3o8o6gaoQgjW4RylB8iDAAAAAAAAAAAAABYJogwAAAAAAAQYcCSQIQBAAAAbeXkyeQRPV+EUQCqYg7ccuaeRX4eRBiwjGvnhRB5i9p+2k7P9AZ5kSM8XoRRtNjz/1ay/9+Oyvu47L6+LlX2mcVS5vxXOQ9llrI2GIrGpl3KjtFmfY6bXO5ENJcydrQ9uDmLiEwAAAAAAAAAAADQPhBhAAAAAAAgwoAlgQgDAAAAYPoX3KkjbXd/c9Z5I8KAZVw7iyZhkSfyFqWvHQnjTG+Qm/cor4m6DtfZ9u7u3vXU9nb6P9D/f3Vu8PRR3oPf+LHDw0gYe9fDMv4y2ftnW+cuntHyhbO9k1q3tdu/luazO/hlrF7dZP//Sus/TJd1TgpxxzGLRaKyMsVKIDDLcouut7/urSm3wrWV+MKisTDeBQAAAAAAAAAAgKogwgAAAAAAQIQBSwIRBgAAALQVOb/qWcg/Y+h/LWk0iyTZkLCie25wdbwusv9YhLG7dz3ML81jlE6O7elfiTUijrxWtn7LoTotOxm8JhFGWFdts/S+PNVRaVWXopnVLY+ievljSdMNz4elRYSx2uOArGvn23WZvPzM/7Fn9omoM8N240UY09RV+U5E5Ej2bx1FFphs+xbZo060iJgd2DazV4BpOOq3j4RPtCkAAAAAAAAAAACoAiIMAAAAAABEGLAkEGEAAABAWzHHbO/06qNa2Oz5fvFO3LZ/uEwIKSJ5WISBcOb6cdnbvdPj3zv9fy8RhpUlAYQ5mk/kd6Y3MId0v6j88BlKDr+xPCz9sRn1TXyRDO5NpB3+r/ogwljdcUB2JIyHbTD2DG5iHC9MsrYeOpHHBBrjyBTbg5th3qndDNd7IUVeXa0tywayonEUiUokWtL+djyyf0sf2oM/NzjMwyxJBW5D2ygb5QMAAAAAAAAAAAAAEQYAAAAAACIMWBKIMAAAAKCtxEQYJjQY/1VEiVSQsXfdCzSU1mb39w7mfrZ/L1rQ/to2kY+cbYMX5b5s1W9rp//mhAjD6iVn3e3eab/eFjmTa8lydPfiEaVL66XoGe7YvROwr7P2Dc8HIozVHQfkXbuJtjUSXKQCHid28AIFL07QvhbNJRaFIkxrz/n6O45mMWxjZepq9fE2e+xgnD3KLlKbH647EkodteVj7d7Zr9L7tIgwYB6kbUz2FhEnAQAAAAAAAAAArBJ6d8p3g8WACAMAAAAAABEGLHHwiwgDAAAA2khMhOEFCuFs5D4aRfiCO3zJ7R3VfbQA4SMD+Nn+vXO3lb21M/ilF2GEju8TeQUzqNts/qlz+QgvGvFlp8hRfSzcGG0brstyOPdl8zFlNccBeddO7SwrYkq0/XQmBTth1JTQDnx0ilikGN+W8+rq26EXSR2rm8RDQTQXX7+8iBdh3ew4EWHAPOyS/hQAAAAAAAAAAFYd3nMtDkQYAAAAAACIMGCJg19EGAAAANBG8kQYsY8DEl/EtsVEGHn5pHmZ2MEJOh46tz+cBT0UYYTRM9K8MiIAeOd0czA3Z/bUyT1aryPncqt3GOkj6zj4mLJ66HqqPcTEFGOSZOMoqsre9TQKyvCv/g8FCxNtQlFVhu3a0meJInwdlFaLfqftLBBAFdVV67W9UBQxzPcon8HNcf2G+4YCEV/u+FiG++jYlYfVh/EJzGN8Tn8KAAAAAAAAAACrDu+5FgciDAAAAAAARBiwxMEvIgwAAABoI3kijNTZOvLcVFWEEUbNMOTQHeYVm8n/uAhjUmgxUVbEQT0UUFi5Em6Y47tfQlGFF2GUPQ4AAKg/Pqc/BQAAAAAAAACAVYf3XIsDEQYAAAAAACIMWOLgFxEGAAAAtJE8EUbsuaOKCMPWZc3MH8srFnEiFGHE8surc5inpS1aLOKG1TPrJX7WOQEAgHrjc/pTAAAAAAAAAABYdXjPtTgQYQAAAAAAIMKAJQ5+EWEAAABAG5mnCGOaSBiLEGFsJfu3tC5vOapn7zSRMAAAFjc+pz8FAAAAAAAAAIBVh/dciwMRBgAAAAAAIgxY4uAXEQYAAAC0kTwRRkzsUEeEkfWRQSKIo4gTe9fDfOYhwjhxovcZfwzdZHCvzDlSnpbHyZPJI+F2RcxAhAEAMLvxOf0pAAAAAAAAAACsOrznWhyIMAAAAAAAEGHAEge/iDAAAACgjcxThLF1pjcYix2SZGMio+H/to8iTYT5zEOEYf/7yBYxUYXyV/QOE23ob6yu4TY+pgAAzGZ8Tn8KAAAAAAAAAACrDu+5FgciDAAAAAAARBiwxMEvIgwAAABoI/MUYUhoIQGGCTHS/IbrUpGDrd/t347l4595TiX7t7bO7X1/ViIMMY7CMaqXxBRaTDgSCjS624ObYyHG7t51bZNQw9YhwgAAmN34nP4UAAAAAAAAAABWHd5zLQ5EGAAAAAAAiDBgiYNfRBgAAADQRuYqwhjS7e5vmuAiXLQ+jEQRE2GcOLP7Xz722P/P3h2EyHHfCx7XYQ6BuY4hp92jN2zUSG5nNTXyzNQkq57p8XvZxPhBQtDJJxOhLBhyMIh9ObzrW/Gy7D4ea1jDyhezBhtycHTwHmIMZlkyMb7ZGHKQTfZhKxDkRySY1a+tEp1xj1TdM13/+ld9PlBI09PTPVPq/k///11f1eYTVfRwGhFG3G8VYsz83o6c8WISXcz4OeKyiDJEGACnNz83ngIAAACQO+tczRFhAACACIOEk18RBgDQRxEbxGuh6dcYsy6rxGWTM1kciRTisllxRIgzTHz1NePr8YZDRAvVWTFmvS6rzkxx3H3P+r6q73nW1x37vd2//zjzRXw/1fcVHx8NQypxefWmSWzTZ9CYtU8AWGx+7s1pAAAAAHJnnas5IgwAABBhkHDyK8IAAACA9PNzb04DAAAAkDvrXM0RYQAAgAiDhJNfEQYAAACkFXNeZxYCAAAAIHcijOaIMAAAQIRBwsmvCAMAAAAAAAAAgJMSYTRHhAEAACIMEk5+RRgAAAAAAAAAAJyUCKM5IgwAABBhkHDyK8IAAAAAAAAAAOCkRBjNEWEAAIAIg4STXxEGAAAAAAAAAAAnJcJojggDAABEGCSc/IowAAAAAAAAAAA4KRFGc0QYAAAgwiDh5FeEAQAAAAAAAADASYkwmiPCAAAAEQYJJ78iDACAli6eb+/+3dOb4+ftCQAAAAAAIAeDwWh1OCzX7InlE2EAAIAIg0TqRhhxnZi8Lbq9ffMdEQYAwJzWt8dvXnhm/2f2BAAAAAAAANNEGAAAIMIgEREGAEB7iTAAAAAAAACYRYQBAAAiDBKpG2F8/sXtw1uffrbwdufOlyIMAIA5iTAA+jU/v7C9/5o9AQAAAADUIcIAAAARBonUjTBSE2EAAH0kwgDo1/xchAEAAAAA1CXCAAAAEQaJnEaEEWe5OPjgw8O3b77zcHv3vfcnZ88QYQAALE6EAdCv+bkIAwAAAACoS4QBAAAiDBI5SYRx9969w1devTEJJI7b4rYj0hBhAADMT4QB0K/5uQgDAAAAAKhLhAEAACIMEjlJhBFfNx1cXH7hxcll8ef05VdfelmEAQCwABEGQL/m5yIMAAAAAKAuEQYAAIgwSGTRCOPWp589jCwOPvhwclaMafHxRx9/8vA67773vggDAGBOIgyAfs3PRRgAAAAAQF0iDAAAEGGQyKIRxts335mEEY/72ldevTG5XvwpwgAAmI8IA6Bf83MRBgAAAAC5i2M7iq3Rhj2xfCIMAAAQYZDIohFGFVfE2S4e5c6dL2vFGiIMAICvE2EA9Gt+LsIAAAAAIHfWuZojwgAAABEGCSe/JzkTRvz5KAcffCjCAABYkAgDoF/zc29OAwAAAJA761zNEWEAAIAIg4ST30UCiSquePa5nxzevXfv2OtdfuHFWrGGCAMA4OtEGAD9mp97cxoAAACA3Fnnao4IAwAARBgknPwuEmHcufPlJMCICd3Vl14+fP2NtyZhxq1PPzv86ONPJtFFXB6fj+3zL26LMAAA5iTCAOjX/Nyb0wAAAADkzjpXc0QYAAAgwiDh5HeRCCNUZ8N43Pbue++f+DEjwgAA+kiEAdCv+bk3pwEAAADInXWu5ogwAABAhEHCye+iEUaIM2K88uqNh2fFqLb4OC6PM2OcBhEGANBHIgyAfs3PvTkNAAAAQO6sczVHhAEAACIMEk5+TxJhzIoylkGEAQD0kQgDoF/zc29OAwAAAJA761zNEWEAAIAIg4ST39OKMD7/4vbkzBfxpwgDAODkRBgA/Zqfe3MaAAAAgNxZ52qOCAMAAEQYJJz8niTCOPjgw8P4+pjYHd0uv/Di5PMiDACAxYgwAPo1P/fmNAAAAAC5s87VHBEGAACIMEg4+V00wnj75jsz44uj2+tvvCXCAABYgAgDoF/zc29OAwAAAJA761zNEWEAAIAIg4ST30UijM+/uP0wsvj7f/jHw3ffe//w1qefHd69d2/yZ3wc8UV1nbhMhAEAMB8RBkC/5ufenAYAAAAgd9a5miPCAAAAEQYJJ7+LRBgRWcRk7vILL07Ci+PEbcf14qwZIgwAgPk8vTl+/qlnRkN7AqAf83NvTgMAAACQO+tczRFhAACACIOEk99FIozqLBcHH3z4yOvFGTDieovchwgDAACAvii2RhvF5viKPQEAAABAzkQYzRFhAACACIOEk99FAolXXr1RK8K4c+dLEQYAAAAAAAAAQA+IMJojwgAAABEGCSe/iwQSb998ZxJGXH7hxUde7+//4R8n14szZ4gwAAAAAAAAAAC6S4TRHBEGAACIMEg4+V0kwvj8i9uTMKIKLG59+tnXPv/ue+8/vE78XYQBAAAAAAAAANBdIozmiDAAAECEQcLJ7yIRRoj4ooosqi3OjHH0sjgbxkmJMAAAAAAAAAAA2k2E0RwRBgAAiDBIOPldNMK4e+/e4ds33zl89rmffC28iC0uj8/H9UQYAAAAAAAAAADdJsJojggDAABEGCSc/C4aYUzHGLc+/ezw4IMPJ9FF/Bkfn0Z8IcIAAAAAAAAAAMhDsTXaKDbHV+yJ5RNhAACACINETiPCaIIIAwAAAAAAAAAAviLCAAAAEQaJLBphfPTxJ4evvHpjcuaLz7+4LcIAAAAAAAAAAICGiDAAAECEQSLzRhgHH3x4ePmFFydRxPR29aWXD+/euyfCAAA4RYOLO0+eP7/5hD0BAAAAAADANBEGAACIMEhk3ghjOsCI8OLZ537y8OPX33hLhAEAcIrWt8dvXnhm/2f2BED3xZy32Bpt2BMAAAAAQB0iDAAAEGGQyDwRRpwFIyZwEWJ8/sXtr10e2/TlIgwAgJMRYQD0a35+YXv/NXsCAAAAAKhDhAEAACIMEpknwojrxQQuoovjPvfRx5+IMAAATokIA6Bf83MRBgAAAABQlwgDAABEGCSySIQxy7vvvT/53Ns33xFhAACcEhEGQL/m5yIMAAAAAKAuEQYAAIgwSGSeCCMmb8dFGLc+/WzyudffeEuEAQBwSkQYAP2an4swAAAAAIC6RBgAACDCIJHTjjCcCQMA4PSIMAD6NT8XYQAAAAAAdYkwAABAhEEiIgwAgPYSYQD0a34uwgAAAAAgd9a5miPCAAAAEQYJJ78iDACAdhJhAPRrfu7NaQAAAAByZ52rOSIMAAAQYZBw8jtvhLHIdtI4Q4QBAPSRCAOgX/Nzb04DAAAAkDvrXM0RYQAAgAiDhJNfEQYAQDuJMAD6NT/35jQAAAAAubPO1RwRBgAAiDBIOPmtG2Hc+vSzhbc7d74UYQAAzEmEAdCv+bk3pwEAAADInXWu5ogwAABAhEHCyW/dCCMlEQYA0EciDIB+zc+9OQ0AAABA7qxzNUeEAQAAIgwSTn5FGAAA7STCAOjX/Nyb0wAAAADkzjpXc0QYAAAgwiDh5FeEAQDQTiIMgH7Nz705DQAAAEDurHM1R4QBAAAiDBJOfkUYAADtJMIA6Nf83JvTAAAAAOTOOldzRBgAACDCIOHkV4QBANBOIgyAfs3PvTkNAAAAQO6sczVHhAEAACIMEk5+RRgAAO0kwgDo1/zcm9MAAAAA5M46V3NEGAAAIMIg4eRXhAEA0E4iDIB+zc+9OQ0AAABA7qxzNUeEAQAAIgwSTn5FGAAA7STCAOjX/Nyb0wAAAADkzjpXc0QYAAAgwiDh5FeEAQDQTiIMgH7Nz705DQAAAEDurHM1R4QBAAAiDBJOfkUYAAAtXTzf3v27pzfHz9sTAN03GIxWh8NyzZ4AAAAAIGcijOaIMAAAQIRBwsmvCAMAAAAAAAAAgJMSYTRHhAEAACIMEk5+RRgAAAAAAAAAAJyUCKM5IgwAABBhkHDyK8IAAAAAAAAAAOCkRBjNEWEAAIAIg4STXxEGAAAAAAAAAAAnJcJojggDAABEGCSc/IowAAAAAAAAAAA4qcFgtDoclmv2xPKJMAAAQIRBIiIMAAAAAAAAAADIiwgDAABEGCQiwgAAAAAAAAAAgLyIMAAAQIRBIiIMAAAAAAAAAADIiwgDAABEGCQiwgAAAID0BoPR6nBYrtkTAAAAAEAdIgwAABBhkIgIAwAAANoxP7+wvf+aPQEAAAAA1CHCAAAAEQaJiDAAANrrQrl/c31z9+f2BEA/5uciDAAAAACgLhEGAACIMEhEhAEA0F7r2+M3Lzyz/zN7AqAf83MRBgAAAABQlwgDAABEGCQiwgAAaC8RBkC/5uciDAAAAACgLhEGAACIMEhEhAEA0F4iDIB+zc9FGAAAAADkLo7tKLZGG/bE8okwAABAhEEiIgwAgPYSYQD0a34uwgAAAAAgd9a5miPCAAAAEQYJJ78iDACAdhJhAPRrfu7NaQAAAAByZ52rOSIMAAAQYZBw8ivCAABoJxEGQL/m596cBgAAACB31rmaI8IAAAARBgknvyIMAOimwWCw+q1vfetfx3b+/PknZlxlpfp8/N0eax8RBkC/5ufenAYAAAAgd9a5miPCAAAAEQYJJ78iDADopvPnz/94OBwexvbUU0/dOnMktIj4ovr8gxCDlhFhAPRrfu7NaQAAAAByZ52rOSIMAAAQYZBw8ivCAIBumo4wYrv/8bXpz4sw2k+EAdCv+bk3pwEAAADInXWu5ogwAABAhEHCya8IAwC66WiE8SDEeKL6/OMijLhu3EZsIo001rf3frW+uftzewKgH/Nzb04DAAAAkDvrXM0RYQAAgAiDhJNfEQYAdFMVYdz/87dPPfXUrQfBxcNF7+MijHPnzu3H18wIOH49GAxW7dlmF88vbO9eticA+jE/9+Y0AAAAALmzztUcEQYAAIgwSDj5FWEAQDdNnwnjyFkxzsbnZ0UY8bnqsgg3zp0799PpICM+tmeb8fTm+Pl4DXT+/OYT9gZAP+bn3pwGAAAAIHfWuZojwgAAABEGCSe/IgwA6Kbp8OLBx7+tzowRH8+KMO5/7trU16xM3davp7+WJSvLlaIc/259e/ymnQHQn/m5N6cBAAAAyJ11ruaIMAAAQIRBwsmvCAMAuulohDF9lov43KwII85+8eCy1467rft/d2aGpb9GG//PjXL8/wYXd560NwD6Mz/35jQAAAAAuSu2xtetczVDhAEAACIMEhFhAEB3HY0wQsQV8fGD2OLsdIQxHWXc//z16ds6d+7c/nTA0dd9OhiMVuM1yfQWlz3u64bDcu3o1x3diqL8N+vb4xcvbO/9Pl77XNjevexRDNCv+bk3pwEAAADI2frF0bgox7cc39EMEQYAAIgwSESEAQDd8PT27uUL5f7NOHtC/N5cL/f/z6wIYzq0uP/53x53Joz7n/v19O2fO3fup9V1I96I+5hnW9+8dPFxP8NX3/98t3vc9rj7itcVp3Vf61t7f/vYn217/Hrd24uzYPzb4TP/yqMaoH/zcxEGAAAAALma/IdT5fiWNa7miDAAAECEQSIiDADIXFl+I4KLyZkTNsevx5kUIngYXNx5claEEe5ffm0qqPiLCGP6c4PBoDrDw0pEGVPxxhNxH/Ns8X0+7keJ73ne2z32/h6/31ZO677On9984nF3F1HF425nuLn7lAc0QL/n596gBgAAACBHsbYV71UVW+Pr8R6MPdIMEQYAAIgwSDgRFmEAQL6Kcvy7ydkvti6Njn7uuAgj4orqjBdHI4w4y8X05fevd336uvGxvQ4AS/idvjXaKDbHV+wJaPi5V+yfjfWxeP5FCFVnq3swSd3bq7sNh+VaG+/T/fpZ7WP3a4zy/LGP/az2sfv1e8Dzx/32+2etzvRd7Oxes9LQLBEGAACIMEhEhAEA+Xp6e/dy/I487swPx0UYRz83HWGEb3/72xsRW0x/Ps6Ece7cuf37n/a/FwEAkL1YZyp29g4mZ5R7cNBIhBixVva4bTAYrda5jzq3Nc9W535T3Kf79bPax+7XGOX5Yx/7We1j9+v3gOeP++33zxr/uUjd2+R0iTAAAECEQSIiDADI1/r2+P/+u3Lvvx/3+TjjRcQV04HFlJXqcw8+vzLr6yO8iD/tbQAAuiIODFkv929GhOEgEQAAACBXIgwAABBhkIgIAwDyXlj9zsW95+wJAACoL854EQHGcFiu2RsAAABArkQYAAAgwiAREQYA5L2wur556aI9AQAA9RTF/tl4HR0hhr0BAAAA5EyEAQAAIgwSEWEAQN4LqyIMAACoL9bC1sv9m/YEAAAAkDsRBgAAiDBIRIQBAHkvrIowAACgvlgLu7C9/5o9AQAAAOROhAEAACIMEhFhAEDeC6siDAAAqE+EAQAAAHSFCAMAAEQYJCLCAIC8F1ZFGAAAUJ8IAwAAAOgKEQYAAIgwSESEAQB5L6yKMAAAoD4RBgAAANAVIgwAABBhkIgIAwDyXlgVYQBANxRbo41ic3zFnoDlEmEAAAAAXSHCAAAAEQaJiDAAIO+FVREGAHRnfu7AcPBcAwAAAKhLhAEAACIMEhFhAEDeC6siDADozvzcgeHguQYAAABQlwgDAABEGCQiwgAAAIB2zM8dGA6eawAAAAB1iTAAAECEQSIiDAAAAGjH/NyB4eC5BgAAAFCXCAMAAEQYJCLCAAAAgHbMzx0YDstXbI02is3xFXsCAAAAyJ0IAwAARBgkIsIAAACAdszPRRgAAAAAQF0iDAAAEGGQiAgDAAAA2jE/F2EAAAAAAHWJMAAAQIRBIiIMAAAAaMf8XIQBAAAAANQlwgAAABEGiYgwAAAAoB3zcxEGAAAAAFCXCAMAAEQYJCLCAAAAgHbMz0UYAAAAAEBdIgwAABBhkIgIAwAAANoxPxdhAAAAAAB1iTAAAECEQSIiDADIe2F1ffPSRXsCALoxPxdhAAAAAAB1iTAAAECEQSIiDADIe2FVhAEA3ZmfizAAAAAAgLpEGAAAIMIgEREGAOS9sCrCAIDuzM9FGAAAAABAXSIMAAAQYZCICAMA8l5YFWEAQHfm5yIM8FwDAAAAqEuEAQAAIgwSEWEAQN4LqyIMAOjO/NyB4eC5BgAAAFCXCAMAAEQYJCLCAIC8F1ZFGADQnfm5A8PBcw0AAACgLhEGAACIMEhEhAEAeS+sijAAoDvzcweGg+caAAAAQF0iDAAAEGGQiAgDAPJeWBVhAEB35ucODAfPNQAAAIC6RBgAACDCIBERBgDkvbAqwgAAgPpEGAAAAEBXiDAAAECEQSI5RRg2m81ms9lsNpvNZrPZbDabzWaz2Ww2m81ms9lsNpvtq02EAQAAIgxEGI+MMJwJAwC+/r/bOBMGAADU50wYAAAAQFeIMAAAQIRBIiIMAMh7YVWEAQAA9YkwAAAAgK4QYQAAgAiDREQYAJD3wqoIAwAA6hNhAAAAAF0hwgAAABEGiYgwACBTZbkiwgAAgPmIMAAAAICuEGEAAIAIg0REGACQp/i9KMIAAID5iDAAAACArhBhAACACINERBgAkCcRBgAAzE+EAQAAAHSFCAMAAEQYJCLCAIA8iTAAAGB+IgwAAACgK0QYAAAgwiAREQYA5EmEAQDdMhiMVofDcs2egOUSYQAAAABdIcIAAAARBomIMAAgT3GQZrGzdzC4uPOkvQEA3ZifOzAcPNcAAAAA6hJhAACACINERBgAAADQjvm5A8PBcw0AAACgLhEGAACIMEhEhAEAAADtmJ87MBw81wAAAADqEmEAAIAIg0REGAAAANCO+bkDw8FzDQAAAKAuEQYAAIgwSESEAQAAAO2YnzswHAAAAACoS4QBAAAiDBIRYQAAAEA75uciDAAAAACgLhEGAACIMEhEhAEAAADtmJ+LMAAAAACAukQYAAAgwiAREQYAAAC0Y34uwgAAAAAA6hJhAACACINERBgAAADQjvm5CAMAAAAAqEuEAQAAIgwSEWEAQJ4Gg9Hq+tbe354/v/mEvQEA3ZifizAAAAAAgLpEGAAAIMIgEREGAOQpfi/G78f1zUsX7Q0A6Mb8XIQBAAAAANQlwgAAABEGiYgwACBPIgwA6N78XIQBAAAAANQlwgAAABEGiYgwACBPIgwA6N78XIQBAAAAANQlwgAAABEGiYgwACBPIgwA6N78XIQBy1dsjTaKzfEVewIAAADInQgDAABEGCQiwgCAPIkwAKB783MRBniuAQAAANQlwgAAABEGiYgwACBPIgwA6N783IHh4LkGAAAAUJcIAwAARBgkIsIAgDyJMACge/NzB4aD5xoAAABAXSIMAAAQYZCICAMA8iTCAIDuzc8dGA6eawAAAAB1iTAAAECEQSIiDADIkwgDALo3P3dgOHiuAQAAANQlwgAAABEGiYgwACBPIgwA6N7v9mJrtGFPwHKJMAAAAICuEGEAAIAIg0REGACQJxEGAADMT4QBAAAAdIUIAwAARBgkIsIAgDyJMAAAYH4iDAAAAKArRBgAACDCIBERBgDkSYQBAADzE2EAAAAAXSHCAAAAEQaJiDAAIE8iDAAAmJ8IAwAAAOgKEQYAAIgwSESEAQB5EmEAAMD8RBgAAABAV4gwAABAhEEiIgwAyJMIAwAA5ifCAAAAALpChAEAACIMEhFhAECeRBgAADA/EQYAAADQFSIMAAAQYZCICAMA8iTCAACA+YkwAAAAgK4QYQAAgAiDREQYAJCpslyZBBhl+Q07AwAA6hFhAAAAAF0hwgAAABEGiYgwAAAAoB3zcweGg+caAAAAQF0iDAAAEGGQiAgDAAAA2jE/d2A4eK4BAAAA1CXCAAAAEQaJiDAAAACgHfNzB4aD5xoAAABAXSIMAAAQYZCICAMAAADaMT93YDgsX6wvFVujDXsCAAAAyJ0IAwAARBgkIsIAAACAdszPRRgAAAAAQF0iDAAAEGGQiAgDAAAA2jE/F2EAAAAAAHWJMAAAQIRBIiIMAAAAaMf8XIQBAAAAANQlwgAAABEGiYgwAAAAoB3zcxEGAAAAAFCXCAMAAEQYJCLCAIA8DYflWrG99+7g4s6T9gYAdGN+LsIAAAAAAOoSYQAAgAiDREQYAJCn+L0Yvx/XNy9dtDcAoBvzcxEGAAAAAFCXCAMAAEQYJCLCAIA8iTAAoHvzcxEGAAAAAFCXCAMAAEQYJCLCAIA8iTAAoHvzcxEGAAAAAFCXCAMAAEQYJCLCAIA8iTAAoHvzcxEGLN9gMFodDss1ewIAAADInQgDAABEGCQiwgCAPIkwAKB783MRBniuAQAAANQlwgAAABEGiYgwACBPIgwA6N783IHh4LkGAAAAUJcIAwAARBgkIsIAgDyJMACge/NzB4aD5xoAAABAXSIMAAAQYZCICAMA8iTCAIDuzc8dGA6eawAAAAB1iTAAAECEQSIiDADIkwgDALo3P3dgOHiuAQAAANQlwgAAABEGiYgwACBPIgwA6N783IHh4LkGAAAAUJcIAwAARBgkIsIAgDyJMACge/NzB4aD5xoAAABAXSIMAAAQYZCICAMA8iTCAACA+YkwAAAAgK4QYQAAgAiDREQYAJAnEQYAAMxPhAEAAAB0hQgDAABEGCQiwgCAPIkwAABgfiIMAAAAoCtEGAAAIMIgEREGAORJhAEAAPMTYQAAAABdIcIAAAARBomIMAAgTyIMAACYnwgDAAAA6AoRBgAAiDBIRIQBAHkSYQAAwPxEGAAAAEBXiDAAAECEQSIiDADI03BYrhXbe+8OLu48aW8AAEA9IgwAAACgK0QYAAAgwiAREQYAAAAAfSHCAAAAALpChAEAACIMEhFhAAAAANAXIgwAAACgK0QYAAAgwiAREQYAAACkF3PeYmu0YU/AcokwAAAAgK4QYQAAgAiDREQYAAAA0I75uQPDwXMNAAAAoC4RBgAAiDBIRIQBAAAA7ZifOzAcli/OOFNsjq/YEwAAAEDuRBgAACDCIBERBgAAALRjfi7CAAAAAADqEmEAAIAIg0REGAAAANCO+bkIAwAAAACoS4QBAAAiDBIRYQAAAEA75uciDAAAAACgLhEGAACIMEhEhAEAmSrLlfXNSxfv//kNOwMAujE/F2EAAAAAAHWJMAAAQIRBIiIMAMhT/F6M34+TEAMA6MT8XIQBAAAAANQlwgAAABEGiYgwACBPIgwA6N78XIQBAAAAANQlwgAAABEGiYgwACBPIgwA6N78XIQBAAAAANQlwgAAABEGiYgwACBPIgwA6N78XIQBAAAAANQlwgAAABEGiYgwACBPIgwA6N78XIQBAAAAANQlwgAAABEGiYgwACBPIgwA6N78XIQBnmsAAAAAdYkwAABAhEEiIgwAyJMIAwC6Nz93YDh4rgEAAADUJcIAAAARBomIMAAgTyIMAOje/NyB4eC5BgAAAFCXCAMAAEQYJCLCAIA8iTAAoHvzcweGg+caAAAAQF0iDAAAEGGQiAgDAPJwYXvv9/H78HFbXM/eAoA85+cODAfPNQAAAIC6RBgAACDCIBERBgDk4cLW7n+uFWHcv569BQB5zs8dGA6eawAAAAB1iTAAAECEQSIiDADIw+DizpN1Ioy4nr0FAHnOzx0YDp5rAAAAAHWJMAAAQIRBIiIMAMhoIXV77/ePjDDuf95eAoB85+cODAfPNQAAAIC6RBgAACDCIBERBgDkY31r9789KsKIz9tLAJCnwWC0OhyWa/YELJcIAwAAAOgKEQYAAIgwSESEAQD5+M7GaOtREUZ83l4CAIDjiTAAAACArhBhAACACINERBgAkJdie/zHWQFGXG7vAADAo4kwAAAAgK4QYQAAgAiDREQYAJDb7+7xjVkRRlxu7wAAwONeT4swAAAAgG4QYQAAgAiDREQYAJCX71zce25WhBGX2zsAAPBoIgwAAACgK0QYAAAgwiAREQYA5KfYHv9xOsCIj+0VAAB4PBEGAAAA0BUiDAAAEGGQiAgDAPJzYXP8T9MRRnxsrwAAwOOJMAAAAICuEGEAAIAIg0REGACQn+9c3HtuOsKIj+0VAAB4PBEGAAAA0BUiDAAAEGGQiAgDAPJUbI3/GL8f4097AwAA6hFhAAAAAF0hwgAAABEGiYgwACDT3+Hl3v+I34/xp70BAAA1X0eLMAAAAICOEGEAAIAIg0REGACQpwvbu5fj92P8aW8AQDfm5w4MB881AAAAgLpEGAAAIMIgEREGAGSqLFeK7fHt+NPOAIBuzM8dGA7LNxiMVofDcs2eAAAAAHInwgAAABEGiYgwAGiTotg/G7+bbPW29c3d/2o/1NuKrdFGHHDnWQZAm+fnIgwAAAAAoC4RBgAAiDBIRIQBQBtEfLF96fv/HOP91ZdePozfTTbbaW7jH/zoz/H4+t74hx9tf/c//LVnHQBtnJ+LMAAAAACAukQYAAAgwiAREQYAqcUZCmKcf+XVG4d37nzphRJL8/kXtw9ff+OtyeuKeNx59gHQtvm5CAMAAAAAqEuEAQAAIgwSEWEAkFKM7THGv33zHS+QaEwEP/G4Gw7LNc9CANo0PxdhAAAAAAB1iTAAAECEQSIiDABS/x66/MKLXhzRuKsvvXz4zHf3/5NnIQBtel0kwgAAAAAA6hJhAACACINERBgApHTpr/7mzdffeMuLIxr37nvvH25f+v4/exYC0Kb5uQgDAAAAAKhLhAEAACIMEhFhAJB6YfCjjz/x4ojG3fr0s8nrizNlueKZCEBb5uciDAAAAACgLhEGAACIMEhEhAFA6oXBOBgemnb33j2vLwBo3fxchAEAAAAA1CXCAAAAEQaJdCnCGAxGq/HzFFvj63HgyiLbcFiueVQANLswKMKgza8vAKDJ+bkIA5YvXv8VW6MNewIAAADInQgDAABEGCTSpQgjPh/XO8nmQEyA5hcGRRiIMABAhAGeawAAAADzEWEAAIAIg0S6eCaMo1u8sV5FFkU5vlWd9aLY2Tt4ePn9v8d14zY8KgCaXRgUYSDCAAAHhoPnGgAAAMB8RBgAACDCIJEuRRizFMX+2fjayZvrZbnytSvcv6zYHF/5KsTYveYRAdD8wqAIAxEGADgwHDzXAAAAAOYjwgAAABEGiXQ+wtgaX3/s10aIUY5vTSans0INAJa6MCjCQIQBAA4MB881AAAAgPmIMAAAQIRBIp2PMMrxrWJn7+Cx16vOhlHsn/WoAGh2YVCEgQgDABwYDp5rAAAAAPMRYQAAgAiDRPoQYcxzJoxia7ThUQHQ7MKgCAMRBgA4MBw81wAAAADmI8IAAAARBol0PcKIn28SV+zsHQwGo9WvXSECjJ3da3Gd2GZeB4ClLgyKMBBhAIADw8FzDQAAAGA+IgwAABBhkEjXI4zps1xU23q5fzPebJ++rLrcIwKg+YVBEQYiDABwYDh4rgEAAADMR4QBAAAiDBLpfIRxX7E12ogzYRyNLqa3Ymt8PYINjwiA5hcGRRiIMADgwdx1c3zFnoDlr4WJMAAAAIAuEGEAAIAIg0T6EGFU4uvXL47G8TNXW1Hsnx0MRqseCQDpFgZFGIgwAABoci1MhAEAAAB0gQgDAABEGCTSpwjjUeJ/HPUGPECahUERBiIMAACaXAuzBgQAAAB0gQgDAABEGCQiwjhzZjgs14qt8fXWT04BOrowKMJAhAEAQJNrYblFGHEW16Nnd7XZTmszJ8qL8cBmPMB4ZbMZrwCmiTAAAECEQcI3nrseYcRCb/ycxc7eQdzOozaPCIDmFwZFGIgwAABoci0smwijLFe2Ln3/v8Tr1vEPfvTnWMOz2U5zu/rSyw/XRb+798P/FY85o4TxwGY8MB5gvLIZrwDyIcIAAAARBgnfeO5yhBFnuXhceBFbBBrF1mjDIwKg+YVBEQYiDAAAmlwLyyLCKMuVcvT9//3sD39096OPP/HinaW5e+/e4cEHHx7+9D/+/F/iMedARuMBxgPjAcYrjFcA+RBhAABAz5gGteuN5y5HGPHzxdeul/s34+9x6uNJdLE1vl5sjq/E5V9FGLvXPBoA0iwMijDI7fUFAAB5r4XlEGHE/+obB5V9/sVtL9xpRDzW4qDZf//s8/9kpDAeYDwwHmC8wngFkAcRBgAA9IxpULveeO5yhFFFFnFGjPg4biM+jp+7uk6cAWMSYmyOr3hEADS/MCjCILfXFwAA5L0WlkOEEa9V43/3hSbF/1oej73BYLRqtDAeYDwwHmC8wngFkMfv31Z/g35VAQDA6TINatcbz12OMKqzYFQfz4ow4hS1RTm+FZtHBEDzC4MiDHJ7fQEAQN5rYW2PMKr1q7v37nnRTuPGP/jRn+NswkYL4wEYDzBeYbwCaD8RBgAA9IxpULveeO5yhFHs7B1MxxXxv6DMOutFfOxATIA0C4MiDHJ7fQEAQN5rYW2PMOJ7vPrSy16wk0SsFT+z89dXjRbGAzAeYLzCeAXQfiIMAADoGdOgdi2KdjvC2L328MwXZblSTUKPng2jul6xNdrwqABodmFQhEFury8AYBliPnr0PwwA+vlcy2W9jm56/Y23Di/91d+8abQwHoDxAOMVxiuA9hNhAABAz5gGWRSd18IRxtZo42h0UWyNr1eXxd+rj6fPmAFAcwuDIgxye30BAMuan7f9f+cHmhsPHMRIKm/ffMdBjMYDMB5gvMJ4BZAJEQYAAPSMaZBF0Xmd5CDJyf9wWI5vVRHGcFiuVRHG9BZnw/CIAGh+YVCEQY6vLwBgGfNzEQZQjQcOYiQVBzEaD8B4gPEK4xVAPkQYAADQM6ZBFkXndeKDJMtyZTAYrVYfxm0Vm+Mrxc7eweRsGMX+WY8GgDQLgyIMsn19AQCnPD8XYQDVeOAgRlJxEKPxAIwHGK8wXgHkQ4QBAAA9YxpkUXReDpIE6O7CoAgDry8AQIQB/OV44CBGUnEQo/EAjAcYrzBeAeRDhAEAAD1jGmRRdF6ncZBknAljcgaMYv9ssTXa8K8P0I6FQREGOb++AIDTnJ+LMIBqPHAQI6k4iNF4AMYDjFcYrwDyIcIAAICeMQ2yKDqvkxwkORyWa8XO7rW4jWqbPrBlvdy/KcoASLcwKMIgx9cXALCM+bkIA6jGAwcxkoqDGI0HYDzAeIXxCiAfIgwAAOgZ0yCLovNa+CDJslwpdvYOpgOMoxFGdVnsC48IgOYXBkUYZPf6AgCWND8XYQDVeOAgRlJxEKPxAIwHGK8wXgHkQ4QBAAA9YxpkUXReix4kWZ0BI0KM6uuPRhhxFoyiHN+K63hEADS/MCjCILfXFwCwrPm5CAOoxgMHMZKKgxiNB2A8wHiF8QogHyIMAADoGdMgi6LzWvQgyfVy/+bRrz0aYYQq1hgMRqseFQDNLgyKMMjt9QUALGt+LsIAqvHAQYyk4iBG4wEYDzBeYbwCyIcIAwAAesY0yKLovBY9SHJWcDHrstgPkzNmbI02PCoAml0YFGGQ2+sLAFjW/FyEAZ5r1ffoIEZScRCj8QCMBxivMF4B5EOEAQAAPWMaZFF0XieJMI5OOmdFGPGxAzEB0iwMijDI7fUFACxrfi7CAM+16nt0ECOpOIjReADGA4xXGK8A8iHCAACAnjENsig6r0UPkqziiukzXByNMIbDcq2KNQaD0apHBUCzC4MiDHJ7fQEAy5qfizDAc636Hh3ESCoOYjQegPEA4xXGK4B8iDAAAKBnTIMsis5r0YMki83xlSqwiL/HbcTf18v9m0WxfzYuK3b2DqrLPCIAml8YFGGQ2+sLAFjW/FyEAZ5r1ffoIEZScRCj8QCMBxivMF4B5EOEAQAAPWMaZFF0Xic5SDLiiirEOG4ryvEtZ8EASLMwKMIgx9cXALCM+bkIAzzXqu/RQYyk4iBG4wEYDzBeYbwCyIcIAwAAesY0yKLovE50kGRZrsTPGaHFzABjZ/eaAAMg3cKgCIMsX18AwBLm5yIM8FyrvkcHMZKKgxiNB2A8wHiF8QogHyIMAADoGdMgi6LzOs2DJON2JrdVliseAQDpFwZFGHTh9QUAnMb8XIQBnmvV9+ggRlJxEKPxAIwHGK8wXgHkQ4QBAAA9YxpkUXReDpIE6O7CoAgDry8AQIQBnmt/+T06iJFUHMRoPADjAcYrjFcA+RBhAABAz5gGWRSd10kPkhwOy7XqTfZHbXE9jwqAZhcGRRjk+voCAE57fi7CAM+16nt0ECOpOIjReADGA4xXGK8A8iHCAACAnjENsig6r4UPkizLlWJn7yC+vs7mQEyA5hcGRRhk9/oCAJY0PxdhgOda9T06iJFUHMRoPADjAcYrjFcA+RBhAABAz5gGWRSd16IHSRZbo40qsFgv928WO7vX4mc+bhsMRqseFQDNLgyKMMjt9QUALEPMR52dEZpZCxNhwPEcxGg8AOMBxiuMVwD5EGEAAEDPmAZZFJ3XwhHGg7NgFMX+Wf/aAO1cGBRhkNvrCwAA8l4LE2HA8RzEaDwA4wHGK4xXAPkQYQAAQM+YBlkUndeiB0lOAoydvQP/0gDtXRgUYZDb6wsAAPJeCxNhwPEcxGg8AOMBxiuMVwD5EGEAAEDPmAZZFJ3XogdJxpvq8bWDwWjVvzZAOxcGRRjk9voCAIC818JEGHA8BzEaD8B4gPEK4xVAPkQYAADQM6ZBFkXntehBkusXR+P42vg5/WsDtHNhsKkI4w9/+MPhr371q8n2ySefzLzOj3/848M6y4F1rzfLjRs3Dn/xi19MbiO+p2NeK53o9q9evfrI28/oNePk52jb6wsAAPJeCxNhwPEcxGg8AOMBxiuMVwD5EGEAAEDPmAZZFJ1XrYMky3IlrnN0q86GEX9GlDHrOtUWt+FRAdDswuCyI4zf/OY3h9/85jcfhg3TW8QQ0+rGFb/85S8XigPu3r07uf2zZ89Ovv5Pf/rTzOvF5xa5/bi9Oref0WtGEQYAAKe+FibCgOM5iNF4AMYDjFcYrwDyIcIAAICeMQ2yKDqvOgdJxufjeifZHIgJ0PzC4DIjjAgwzjwILr73ve9NPq7OiBGhwpkjIcZJznBRR5yBI24/zlaxDL/73e+WevsJXjOKMAAAOPW1MBEGHM9BjMYDMB5gvMJ4BZAPEQYAAPSMaZBF0XmJMAC6uzC4rAijChIitojw4qg4S0R1hoyII8J0hBFnrYiYIbb4+7SIOWaFDnGbcXmEHRF6TH9dfE11+1evXp1c77gzVVT3O/1xfH31fcWZOOL2p78+rlPdftz/0duPv8fXHXe/1X3E5+LP6v6OXl7d9/TPdtx+OnrfscVtzLpeXFbt1+rzZ0QYAAAsYS1MhAEOYsxpzDIeYDzAeAXGK4DjiDAAAKBnTIMsis7LQZIA3V0YXFaEESHCmSNnujgq4oDpIKGKGCLgqM6UUW1VlDB9vUpEHhFWTF8/tog8qgCk+prprYo/ZrxW+ovbPzN1Jo8qHKm2+F6nv+bo7cf9z7rvuGz6/qvL4n7OTMUP1X1Xlx/9+qOXT99m/H3WfcfXTO/3iDqqnyv+jC0uOyPCAABgCWthIgxwEGNOY5bxAOMBxiswXgEcR4QBAAA9YxpkUXReDpIE6O7C4LIijCoOqCKFOv4/e/fzIkma3gc8D33rax3mn+i85EGdPeqaKK02u7IkrSSQYC8++WTcDIYFHxYas/+AGTw6GIEPPliXxQtamIPpg33QrsG3lvFBIKFbHxYj6bDIZnZhPU+pn/E7sZlZEVkV9caPzweCrs6KjIyMynrzfd96vvlmYCDum2GCXFEjQhbt/VKs8LBqBT5iRYdVK0SQtx0LXxR9pV8LYbTPK4916DHL42eYJPbL0MmhgEr5GBH2yPDIqghd5P3zmBGWKFfMaB8zgyntVTzK/eK2DF7k6h9luEMIA4ClWK93Tzeb5sKVAL9rihhRxIj2AO0B2ivQXgF0IYQBAAALYxhkUrQvRZIA850YHCqEsWoFGbrIcEW56kXIVRra+6UIJURooC2DBBlouG8IowyURHhh9SEIkdrHj3/j/3F+bXG/8vbVgRU/ytvzOYQMUpTBlDyf9jHLfQ5dzzzHdtgizmMlhAHAwsbnY/90fuDx2gNFjChiRHuA9gDtFWivAO4ihAEAAAtjGGRStC9FkgDznRgcOoQR4YCuMlwRqz0cuv3Q/2Pf1YfwQYQgyi1DGO3VK84NYbSfS3u/YyGMQ0GG9nM99Rhl0KN8nC+++OLo+eQKIvE47euSK2nEY+exchWMdOrc9S8AmOv4XAgDyPZAESOKGNEeoD1AewXaK4C7CGEAAMDCGAaZFO1LkSTAfCcGhwphZACivbLDKe2wxbHby/9nWODU9lAhjLv2ax8/V5NoBxxCrmaR+556jHYQ4tjzKI+R+9x1XY6FMDLcIoQBwJLG50IYQLYHihhRxIj24GHFPEPMQ7Q/eGNO55r36/OBJNoDtFfovwBMmxAGAAAsjGGQSdG+FEkCzHdicKgQxqeffnpbxB//HhN/mP7BD37w9R+17xPCiNDHXR47hHEqyJDP4aFDGHkdMgBy6vqHXDEjQiHtn81KCAOAhY3PhTCAbA8UMVKLIsZltAdRpB/j8RiLx7g7/o1x/BQCCl3F88m5j1ylc3XkgyrG5txz7TrvpD1A/wX9F4D5EMIAAICFMQwyKdqXIkmA+U4MDhXC+NnPfnb7h+ePPvro4GoYUVgQ34t9ovAgnBPCiMKF1YcAQ/uTBr/44ovb8+j7x/DVA4UwQoQi4nkeu28WWKweKISR+5bXvxTXqCzsyOt37DGEMABY0vhcCAPI9kARI4oYGao9iPF6zofkuH1VrFoZcxk1ZBDkocSHbqw+BBli3idX43yogMKQzj1XIQz0X9B/AVgeIQwAAFgYwyCTon2dWyS52TQXsXXZTxEmQJ2JwaFCGCH+gF8WFeQf3uMP8VlkUBYXnBPCCPmH/Qg8RMFA/LH72bNnv7ZCRo0QRl6DOOe4PZ5/nn+cd5fHOCeEUV6nfOy4NnldyhUy8rbcL6/nSggDgIWNz4UwgGwPFDGiiJEh2oMygBHj7Qw95AcmtD+s4pH/bvSgq1TEfMxqYSVfQhjov6D/ArA8QhgAALAwhkEmRfs6t0gyCli6FLHEdRj94BRgphODQ4YwQoQs2p/quPoQjmj/cf/cEEYUK8TjZJhgVQQ/csWHPn8MXz1gCCMeP24vzy2+jtvKlTtWA4Qw4rEjBNK+/nHty8eO4+Q1za0Mj4ytfwEAQ43PhTCAbA8UMaKIkSHag7tCFhHEWBUf2hChjQxrxFxAGdxoj/vje+25hpwzyfvGfER8KEMcI/fLx8j5ivi6XFW0y2OUyuPlfXKVjfL88/+xf55jPH7sW87ldHkOfY8X8kNC4j5xvHKf9rmW8ztxezyvuG/7HIQw0H9B/wVgeYQwAABgYQyDTIr2NWQII477vLl5qxAToM7E4NAhjJQrMcR26I/f+Yf6Q3+obt9+bL98nAhklAUD5R/M4/unigXyGOXx2/8/dvtdx4/nfqzQ4tRjtJ/Lscc5tG/52Keu/aFrd+p4NfsXADDU+FwIA8j2QBEjtShinG97EOPr1YcPPrhrXqIcp68+hCPyvvmBFu3gxKEVQUMEDFYfPmQhvs4gSIQT8rxy1Yp2CKPrY7Sf56EQRgYU8vzz/xFmiOPGMfP4cb9SudJnubpq+eEefY6XHzwRt5f75JxN+1wPnUP+PMoVXoUw0H9B/wVgeYQwAABgYQyDTIr21adIMle1OGfbbJoLrwqAx50YfKwQBtynfwEAjzE+F8KA4UX/b3u5ezH29kARI7UoYpxve5CrXEQQoqsMYaw+FPtneCM+YGHVWuky/s3ARa7gkPcvV7mM/SJwUAYTcr8ydND1MU78Heobj3sshLFqhRYyEJJBkAhGHHoOqw/hkPbx7zpe/hziePEcy+eU16R9ruV9upyDEAb6L+i/ACyHEAYAACyMYZBJ0b76FEnGflG40id8EfsrwgSoMzEohMEU+hcA8BjjcyEM8LuW56iIkVoUMc63PTi0usJdypUwShHIWB0o9j8UujgkV3XI+x8KYdz3MVYdQxjt43S9Tu3n0PV4uQrGoefVPtZd59AOeAhhoP+C/gvA8ghhAADAwhgGmRTt69wiyfij+vPm5m3c99hm9QuAuhODQhhMrX8BAEONz4UwwO9anqMiRmpRxDjf9iAL9H/wgx90vk8GHiI4UMqVGyIEEKGDclu1gghxjPxehgZWrRUjDoUw+jzGkb9DdQphtIMOh27v8hy6Hi/PP1bBuOtnVR4rVuTIc4hQzKlzEMJA/wX9F4DlEMIAAICFMQwyKdrXuUWS28vdi9j8pAHGOzEohMHU+hcAMNT4XAgD/K7lOSpipBZFjPNtDzLo8NFHH/W+TztYkEGCQwGJ2DK0EcGB1YegQIQq4jixZZDhVAij62Oc+DvUg4QwckWO8jnEbe3n0PV4eb9f/OIXR8/91DlEiCbPIcMYQhjov6D/or0ClksIAwAAFsYwyKRoX4okAeY7MSiEgf4FAAhhgN+1b56jIkZqUcQ43/YgVl5YtVZOaItgQBT252oZd4Uw/uIv/uLkY+ZqFu1VKyIIsuoYwrjrMU78HepBQhj5HOLf9vFXZ4QwIjxy6Gfws5/97OtgxrHVM8pVTGLflZUw0H8B7RWweEIYAACwMIZBJkX7uk+R5GbTXGxf7l8/b27exnFObQoxAR5/YlAIgyn2LwBgiPG5EAb4XctzVMRILYoY590eZJF+BC0i3FCuxhBft4v9j4UwcmWGMhSQt8dtESgIeby4PZWrY+Tt+Tjl8bo+xom/Qz1ICCNXmyifQ1y79nPoerw479WBQEUEU2KLr+97DkIY6L+g/wKwHEIYAACwMIZBJkX7OrdIMgIYdwUvhDAA6k4MCmEwtf4FAAw1PhfCAL9reY595+uiqDeKcGN7qOLbLrIYOgqd4xyy4JrpUsQ4/fbglCjw/9a3vvV18X4U/cfKDLnaw6oVXDgWwsjQwOpDoCPagjxu3J4BiQxS5DGyjSgfL8MgebzYLx6362Oc+DvUg4Qwjj2H/De2CJZ0PV7I5xXPJ46fxzp2brl6RtdzEMJgDu3VOWr1h9B/AahJCAMAABbGMMikaF/nFknGChhx3+3V9bv4eru9eRbHObatmuaJVwXA404MCmEwtf4FAAw1PhfCAL9reY5d5+uieDmLedtb+9PjB5rnvX38KAT++c9/flsoXBY98zii0LRd+H0uRYzTbQ/6iNdLrq6QWwQjonC5XB3jWAgjxH7RBpWhjvg6biv3ibYovx+PGe1EyMfPNqNc2SEfr8tjnGqfHiKEEW1bGRrJQEicWz6H2LdPCCPuG8fI++d1yWvf5RwOhVeEMJhje3Xf/lC2OY8tfm8f6r15qX0S7RVAN0IYAACwMIZBJkX7OjuE0ezfx31jRQw/bYBxTgwKYTC1/gUADDU+F8IAv2t5jl3m68qC5SxKzk+AzsLeIYMYp4qzeVz5KfkPQRHjNNuD+/4u31e0PWV4oy2+d9fKFfd9jKHFY0dR9UPrc12GOgftAVNpr+7qD0XwKv6fQYDsD9UIYmQoSp9EewUwNCEMAABYGMMgk6J93SeEEatg+EkDjHdiUAiDqfUvAGCo8bkQBvhdy3O8a77uL//yL7/+NPRDBbxRpJufCN0usM5PZo4iuUPFvFG8WH4KfX66erlv7JOfyh4Fj/n98r4hvo7b8nv56fXt2yMsEuGR8jHi/+3HPSaPl88vjnfsk/LLx4xrUF6ffL7x2Mcep/wU/fI5xLHaqwjk/scKx3P1kNjyU+2PPa9cUeDQY5Sfxl8+7yxCjddLfN3lWipinF57AEPRHjD29uqc/lDZvyj7Ju1+0qH33HZfIt/D4zzafalcwaf93tz1MY71dU6dd57PoWP26SuVxzvWFzt0Pqf6JNorgOEIYQAAwMIYBvkjTl9nhzAu958psAQY98SgEAZT618AwFDjcyEMmP7vWqzGul7vnt73HO+ar4vCudUdK11EUVxZNBfFiRmciC2LEiNEUQYR4v9xexQUZiFdbhlOyH3KLY6RtxfzwF8/Rv6bt0dxYhYorooVPeI827e3ixsPzDff3icK/vJ5rT4UZZbPLa5H+b3y65S3twsO47zi9riGp55DXs/27eV5lNeq/fzLx83jxXUvn1dsWWzaPkZe4/JnXZ7LsYCJIsbptgcwFO2B9mrs7VX2h06tdNHuD5V9kvJ9s91PKvtLZcCjDHaU783xdfsx2u/NXR/jWF8n+iiHzvtQn6IdTFkVwdl2X6nsZx3qw2T/59Dxst906BzyHLVXAMMSwgAAgIUxDBrXH55nHcLY3jyL1TBu/7jeNE/8xAHGNzEohMHU+hcAMITt5e7F9uX+tSsBw8+FPW9u3g55/Ohnvvjk+qfPP97tzylo7DJfl8Vxd4UTSlkcFwWLUUCYqz6sWkVyuV88Rh4/Psm4vV/e91CAoyzQW30o8Ivi/3ZwIEMHseVzisLADArkY5wKm7SPF+eTq0Yce27lJ0FnMWT5CdmrAwWd8f/yvquiwDCfQxYixnMoV/1oP4d8zHKVizx+ud+h55XHK88v9ysLRPN+Ke4b5xfndmpFDEWM02sPYCjaA+3V2NurfN89pz/U7psceh8+1E869B6et5Xn0e4T9XmMU32d9nkfCubmMTM42r7/qb5SXtPsL+aqGaf6KHEt8nwOPW/tFcCwhDAAAGBhDIPGNbE6+xDGh9UwYos/ssdzPrbd95N+AOg/MSiEwdT6FwAATFd80nN8YMf26tWboebach7qq8f58pyCxi7zdatW0X3HOdmD92kXy7WDCik/Nbld4NclhNFefWF1YHWIQwWDuW/56dKnnlt5vDzn8r7x/fY+GTDJwsIoSly1Vsc4dKxVa0WKkMWV5XM4dLxDz/PQNT70GLkiR/t45f1ynzhePH55LooYH89jtQcwFO2B9mrs7VWXPsKxfk+7bxLvq2V4MWVINAOMh/oS8f/2e/uhMELXxzjV1znUPzt0zAxT5Hv/sb5S7lc+j3YfKB/nUN+jfT5CGACPTwgDAAAWxjBoXBOrcw5hxAoYOXHcZVOICfD4E4NCGEytfwEAwPTnwyKIMURfsCxiLLeyoDH2iTDIqWN0DWF0Kaovi+oOFenlpxtnUV4Wz7ULAdtFdV1CGO0CwPb5l/J4xwIbXa5HW55PGWKIYsF4rNji+1n4WH4KdPuaxCdbrw6sPtEu/OzyHPJY8Xh5Hrnl9cprvzpSXNp+voeef/lJ3/F84nkLYTx+W/MY7QEMRXugvRp7e9W3P3Ssn1MGHNvvzdlPKPs78V6e34/gxaG+RLtP1PcxujzXPGbc/1ifIo957FqVfaXsoxwKirav26pjuFd7BTA8IQwAAFgYw6BxTazOeiWMl/vXEcToup2aQAZgmIlBIQym1r8AAGDimuZJrpwac0cPPdd214eAfF3QeLX/q3j89nxUl/m6LNZrf/rwMRnCKIsDUwYH4t9TxXPnhDCOHWt1IoTRfk6re4QwoohwdSBgEsGG+Dq23Ke8Nnm9cnWMDGWUBZuHrueha9I+v9zn1FYWTB76ma06hDDiXMsizHze7YCIIsbhPFZ7AEPRHmivxt5e5Xtc1/7Qsb5Jvu93eW/OfkO+Rx/rS7Qfp89jdO3r9O1THOorlcHT6COUfcJTfaqVEAbAaAhhAADAwhgGjWtidc4hDADGPzEohIH+BQAAtebFsrCwz4d4nNq2n1z/pM+qrGVB4/Or60+joLHLfF0Wwh36pOKy2C8K66IYPz71eHVkJYw8Vnz68aniuccKYbQL/1Y9QhjHPt05bs9Pi161ijXzcdthhyjsjNBC3Df+bV+7Vc8QRt4/Hvuun92pxzh0+13XKF4DWWSZz+lUEWO+PrUSD9fGDNkewFC0B9qrsbdX2YfJ0OQh0b/J/tCxvsmpFcPa76f5nluGGjO80CWEcddj3NXXOXTeh/oKfftK8dzy+R06Xu435hBGvj7jtdhlW693T/v8jvTdttubZ1oX4DEIYQAAwMIYBo1rYlUIA4CaE4NCGOhfAABQSxRfbS93L84prDpYbHX56vPHKGLMQEEU1B/69OcooovvrTqEK/JTpOOYp/abQgijHX6IaxDPL2T4oV38mOfYvj3PJws8D63Q0SeEkfuWP7tSFEXGY9y12sah29vXKB4jzuVYoeWpT9ouixhtj7sJYYxbfuL9kmgPbGNvrzKEcKw/FO+H2R9qr4rV7jcd62/EcbOPlI+XfYuUfYWyL1EGQfs8xl19nUP9wfbt2acoj3msr5Sh0/L/7edX3j+fz2rEIYyu4en2ai6nnBPOvv1dubp+J4wBPMbfWkd9goYSAADwsAyDxmMpIYy47/Zy/1lMduUEXHkNVk3zxKsBoM7EoBAGU+1fAABAW5dPki4LF7cv96/bBWBd5+s+//zzrwvgonguiu7z056z4PDQpzRHYV3sF0V4WSh36pObj90+xhBGPLcsOszHzhUnyuLHuEb5/PNarVqfpF3uf2j1iNWZIYzyusS/sW+cc4ZhyhUyVh1DGHm8ePx47uVqG1mAGT/zMpRyqojx27/7x3/ut3la7QGP8netKoXFNWkPtFdTaK/K/lC8xx3qD5UBjWN9k1wxKr4f+8f7c743Z7giVxY71JfIx8q+RB4vzi/7BV0eo28b1O5TxHM/dMwufaXyepZ9lNyv7CcdO58MpMTP4VTocwntVYS9b1fKu7p+12fVDYC+hDAAAGB5k9WMaGJ17iGM7dWrN+3J4jKEsW3272Pr84knADzcxKAQBlPsXwAAwCHHihi/Llz85Pqnsc+peag+83URrChDBLlF0V07zBCFg7F/FuatPoQLotiuXH1hqiGMeKyy8HD1ofCxDE9kYWD5/KMIMYsi24+T+5dFh+3HPPQc7gphxPWOc2v/7OLnVp7vqmMIIz+Zu7y9fE7lliujTKmIUXsghDGSv2sJYaC9Gml7lUHTLv2hY32TeP+Nfct+xOpAEPPQ+2u8D2cfIP9frkqWj9f1Mfq0QceOGf8/1Kcogx/Zxyn3i/OO45XnnuGW9vEOnU+5Osdjtpljba/id+Z5c/O2/Ls0wEMTwgAAgOVNVjOiidU5hzCef7zbfz1ZfPXqzfZy96IdwsglYWMSzCsC4PEnBoUwmFr/AgAAjimLGMvCxZij6voJuOfM1+UnFcdWBiqOiUL88lOh28Vzhz65uH17PE78vyzIa+9z7FhxW/v2PF77/A/te6gwsQwlnLoOcXsUa5bHjOdw6HEyhJGrSbTPq337oWtybN/yXI+d77H7Hbo9r3V5e5xH/KzzU8GnXMSoPZinQ7/bx36Pjv0+nxK/D8d+9w7tW4rHL29bnSiAnivtgfZqau1VtB3xHn+qH3Csb9LuJ8VxjrUf2Zco31vLvkS2C/lYhx7vrsfo0nc61r879Nz79JXKfY71H06dz6nnvcT2Kv9WHX+j1toAQxDCAACAhTEMGtfE6pxDGBmwiOdZDkLbnzgSAYzbwWnTPPGqAHjciUEhDKbWvwAAgGO+LmLsWbjYPoZPvu8933xwxYj7yNUl4tOfl0TRtfZgSPkJ9LESzKoVaohi3/z+6sgntOd+5Se0xyfdl4XEsX/sE7eX+8Rt7U9xj9vzXLINiWPF4+ZjRBgrbmufb3vlndg/P2Vee4D2iiX0lbRX3W0v959ZDQMYihAGAAAsb6KHEU2szjmEsW3277dX1+/ag9D2RFdOMCvEBHj8iUEhDKbWvwCAIcSnYm5f7l+7EjBtm01zcU7hYnueShFj7/nmByssjMLqLN6Oouqun1A9F4qutQdDKkMW8XUEIEKs1rL6EIqIEEP5exiBiJT7xe9mGbQof1dj/7wt9o/9MiyRj5ftRnkuuTpQHjPuE+eRx1u1Qhhx/DyP/PT9+H/cby6rY2gPtFf6L/pK2quHEb8fQhjAUIQwAABgeRM9jGjSZ84hjNvlXXuEMCwFC/D4E4NCGEytfwEAQ43PFWUA2R4oYuw93/xghYVRtB3Hik+/n9Mn2nel6Fp7MKQMYZTBihDBh0PhhQw65O3t/8e/ccy4b4QhyhUrymPF13G/eJyy3Vi1ghkR5Fh9CIOU4tirIoSRK+W0250IbbRX3NAeoL1iLH2ldtum/2K8D8yDEAYAACxvogeTor2cvRLG1fW7uG98ik85CP3GRFfTPIkVMxRiAtSZGBTCYGr9CwAYanyuKAPI9kARI7UoutYeDClDGOUKMxFYWBWrYJRb7h9fZ8DiVODqWDiifOwMSKw+hCriuHfdP29fFSVkubpGBLYifDGX4IX2AO0V2ivjfWBahDAAAGBhDINMivZ1dgjjcv/Z7QoXzf59BjHKEEbctr169Sb38YoAePyJQSEMpta/AIChxueKMoBsDxQxUouia+3BkDIIUSoDDse2DGWsWitXtJ3aJ26L78VKFR/+TvVr5/LFF1/c3hYr4hz4u9Y39o/HiuBIeZ6xwkcZMNEeoL0C7ZXxPjA0IQwAAFgYwyCTon2dWyS5Xu+e5ioXsT1vbt5m4KK8/fa2y90LrwiAx58YFMJgav0LABhqfK4oA8j2QBEjtSi61h4M6VQI49BKGLnFKhMRblh9WHnimFP7xG2rD4GOD3+n+rVziRUtVh/CFIeOuzpQQhbfi9BGrowR/2oP0F6B9sp4H3gsQhgAALAwhkEmRfu6T5HkdnvzbHt1/a4MXHwjfNHs38d18GoAqDMxKITBFPsXADDE+FxRBpDtgSJGalF0rT0Y0qkQxkcffXTn/SPg0A45ZAgiAhQhjnMoCJEhiVMhjAh7xG1xnqUMZ6xOlJDFfXNljFxtQ3uA9gq0V8b7wNCEMAAAYGEMg0yK9vUQRZJx/3i+25f719urV29uv47VL5rmiVcCQL2JQSEMpty/AICHHJ8rygCyPVDESC2KrrUHQzoUwggZkIgwRYQZYouvVx9WyEixQkW5X2ivcNHeJ7YIRaxaq1SsjoQqYp8IcmSQIo6b4Yrc//PPP7/9+osvvjj4/H7+859rD9BegfbKeB94FEIYAACwMIZBJkX7UiQJMN+JQSEM9C8AQFEG8M32QBEjtSi61h4M6VgII1azyCBGrmSx+hB6yBUucr8MRGRYYtVauSJCE3n/cp/4OoMaH/5OdfBcIliR98l/2yGMUJ5HPH4+ZoRAtAdor0B7ZbwPPBYhDAAAWBjDIJOifT1EkeRm01zEMU5tVsUAePyJQSEMpty/AICHHJ8rygCyPVDESC2KrrUHQ4oVJMrARFuEJCLEEPvEShYRuji2X6yAEfuWIY1j+5ThixTfO3YuuRIh+6BoAABuTklEQVRHfD/OOc6jfe6xTwQ24jgRyIjHidUzcoUO7QHaK9BeGe8Dj0EIAwAAFsYwyKRoX/cpktxevXqzvbp+F8e4a1OICfD4E4NCGEyxfwEAQ4zPFWUA2R4oYqQWRdfaA9AeoL1Ce2W8D0yHEAYAACyMYZBJ0b7OLZLcXu5edAlfCGEA1JsYFMJgav0LABhqfK4oA8j2QBEjtSi61h6A9gDtFdqrh7Ve755uNs2FlgIYghAGAAAsjGGQSdG+zi2SjAKWuO/25f51THD5iQOMb2JQCIOp9S8AYKjxuRAGkO2BIkZqUXStPQDtAdortFcA0yGEAQAAC2MYZFK0r3OLJG8DGM3+/appnvhpA4xzYlAIg6n1LwBgqPG5EAaQ7YEiRmpRxKg9AO0B2iu0VwDTIYQBAAALYxhkUrSv+66EYRUMgPFODAphMLX+BQAMNT4XwgCyPVDESC2KGLUHoD1Ae4X2CmA6hDAAAGBhDINMivZ1bpHk8493+9vVMK5evfHTBhjnxKAQBlPrXwDAUONzIQwg2wNFjNSiiFF7ANoDtFdorwCmQwgDAAAWxjDIpGhf9ymS3F7uXtwGMZr9++3l/rN4zsc2K2YAPP7EoBAGU+xfAMAQ43MhDCDbA0WM1KKIUXsA2gO0V2ivAKZDCAMAABbGMMikaF/nFkluNs3F8+bmbdy/y6YQE+DxJwaFMJha/wIAhhqfC2EA2R4oYqQWRYzaA9AeoL1CewUwHUIYAACwMIZBJkX7OrdIMla+yIBFrIQRBS2ntghteFUAPO7EoBAGU+tfAMBQ43MhDCDbA0WM1KKIUXsA2gO0V2ivAKZDCAMAABbGMMikaF9nhzCurt/dBjC2N8/8tAHGOTEohMHU+hcAMNT4XAgDyPZAESO1KGLUHoD2AO0V2iuA6RDCAACAhTEMMina19khjGb/PjY/aYDxTgwKYTC1/gUADDU+F8IAsj1QxEgtihi1B6A9QHuF9uphrde7p5tNc6GlAIYghAEAAAtjGGRStK/zV8J49UaBJcC4JwaFMJha/wIAAIakiJGaFF1rD0B7gPYK7dXD/3740AVgKEIYAACwMIZBJkX7OrdIMu4TK2HExFZ8yoifOMD4JgaFMJha/wIAAIakiJGaFF1rD0B7gPYK7dXD/34IYQBDEcIAAICFMQwyKdrX2SthXO5exKRW3D+27dX1u/j/sc1SsACPPzEohMHU+hcAADAkRYzUpOhaewDaA7RXaK8e/vdDCAMYihAGAAAsjGGQSdG+zi2SLAMYXTaFmACPPzEohMHU+hcAADAkRYzUpOhaewDaA7RXaK8e/vdDCAMYihAGAAAsjGGQSdG+7rMSRjzHrtt6vXvqVQHwuBODQhhMrX8BAABDUsRITYqutQegPUB7hfbq4X8/hDCAoQhhAADAwhgGmRTtS5EkwHwnBoUw0L8AAID/TxEjNSm61h6A9gDtFdqrh//9EMIAhiKEAQAAC2MYZFK0r7NXwni5fx1bl/1GPzgFmOnEoBAGU+tfAADAkBQxUpOia+0BaA/QXqG9evjfDyEMYChCGAAAsDCGQSZF+zq3SDImtLpMam2vXr2Jx9hsmguvCoDHnRgUwmBq/QsAABiSIkZqUnStPQDtAdortFcP//shhAEMRQgDAAAWxjDIpGhffYokt5e7Fxm+2Db797Hl/w9t26vrd3F8hZgAdSYGhTCo4Re//KX3fgAARkkRIzUputYegPYA7RXaq4f//RDCAIYihAEAAAtjGGRStK8+RZLxnDJU0XWLoEbcb9U0T7wqAB53YlAIgxr++m/+9rYP4L0fgLGIMW98qIArAShipCZF19oD0B6gvUJ79fC/H0IYwFCEMAAAYGEMg0yK9tX7k6qb5sltAcvV9bvY4nme2tbr3VOvBoDH98m3v/O/f/Lf/4fOEY/uhz/6sUICAEY3PleUAWR7oIiRWhRdaw9Ae4D2Cu2V8T4wHUIYAACwMIZBJkX76h3C+CAmtExqAYzXb/7Wzb/59Hvf1zni0f2zf/4vfnW7ChYAjGh8bvwKZHugiJFaFF1rD0B7gPYK7ZXxPjAdQhgAALAwhkEmRfs6N4Sxvdx/FpNam01z4acNMD7RPkcb/x/+43/SQeJR/yh3bt8CAIYcnyvKALI9UMRIzfGSomvtAWgP0F6hvTLeB6ZBCAMAABbGMMikaF/3WQkj7ru93L3w0wYYp2ijo63+4Y9+/Ku/+/t/0FFiMP/4j//nNvCjbwDAWMfnijKAbA8UMVKLomvtAWgP0F6hvTLeB6ZDCAMAABbGMMikaF9nr4Txcv/6ttDyq3/9tAHG65Pf+v3f+9b+D/862uz9H3z3y3/77/797R9ObLaH2OL19On3vn/bn/jk27//d9vtzTO/dQCMcXyuKAPI9kARI4oY0R6gPUB7BfNor4z3gSEJYQAAwMIYBpkU7evcEMaqaZ7Ec7wNYlxdv4uv4zjHttjfqwKgnvV69zRWKLj89nf+JP5oYju9xftbbK7F6e23f+eP/jT6AMIXAIx9fK4oA8j2QBEjihjRHqA9QHsF82ivjPeBIQlhAADAwhgGmRTt69wQRkxoZYFql+2soAcAVJxYHf3kKgDQeXyuKAPI9kARI4oY0R6gPUB7BfNor4z3gSEJYQAAwMIYBpkU7UsIAwAOT6x67wKA+YzPFWUA2R4oYkQRI9oDtAdor2Ae7ZXxPjAkIQwAAFgYwyCTon0pMgWAwxOr3h8BYD7jc0UZQLYHihhRxIj2AO0B2iuYR3tlvA8MSQgDAAAWxjDIpGhfQxeZbi93L0x+ATDFiVUhDACYz/jcuBTI9kARI4oY0R6gPUB7BfNor4z3gSEJYQAAwMIYBpkU7WvIItP1evd0e7n/bPSDUwA4MLEqhAEA8xmfK8oAsj1QxIgiRrQHaA/QXoH2CuAuQhgAALAwhkEmRfu6V5Fp0zyJlS6eNzdv4zinNq8IAKY2sSqEAQDzGZ8LYQDZHihiRBEj2gO0B2ivQHsFcBchDAAAWBjDIJOifZ1bZLrZNBd3BS9i215dv4ughlcEAFObWBXCAID5jM+FMIBsDxQxoogR7QHaA7RXoL0CuIsQBgAALIxhkEnRvs4tMn3+8W6fIYt4rrHF/6OwZXv16k3c/k/ff/XGqwGAKU6sCmEAwHzG50IYQLYHihhRxIj2AO0B2ivQXgHcRQgDAAAWxjDIpGhfZ4cwmpu3cd9YESP+H8eI/8fz/nqfDGq83L/2igBgahOrQhgAMJ/xuRAGkO2BIkYUMaI9QHuA9gq0VwB3EcIAAICFMQwyKdrXuUWmcb8IYuT/D4UwVk3zZNvs38fmFQHAlEShZgYNAYDpj8+FMIBsDxQxoogR7QHaA7RXoL0CuIsQBgAALIxhkEnRvs4NYWyvrt/Flv9fr3dPD616Ef/3aeIAAADUHJ8LYQDZHihiRBEj2gO0B2ivQHsFcBchDAAAWBjDIJOifZ0fwnj15jZ0cbl7UQ5Cb1fI+Hi3P7UfAAAAPOb4XAgDyPZAESOKGNEeoD1AewXaK4C7CGEAAMDCGAaZFO3r3BBGBC0ydBHPNW7bXu4/y9vi6whgbJv9+9hWTfPEqwIAAIAa43MhDCDbA0WM1PLDH/1YEaP2ALQHaK/QXgFMhBAGAAAsjGGQSdG+zg1hhAhiRMAiQxibTXORIYxyizCGVwQAAAA1xJjX6oxAUMRITZ9+7/u/+s2r3/vUb6L2ALQHaK/QXhnvA+MnhAEAAAtjGGRStK/7hDBuNc2T8v7b7c2zXAEjPmn0duLLKhgAAAAAVBYfKLL/g+9+aRaZx/aLX/7y/vOwaA/QHqC9Au3VN1j5EhiSEAYAACyMYdC4Jn0WEcIAAAAAgAlYr3dPYy7sr//mb00k86je/c//9avRF/BoD0B7gPYKJtZeCWEAQxLCAACAhTEMGtekz1JCGJtNcxHHiE/jiecdXwt2AAAAADA2l9/+zp/8zh9+9xd/9/f/YDKZRxGvtX/5r/71//2t6z/8z34DtQdoD7QHaK/QXj0cIQxgSEIYAACwMIZB45r0mXsIY7u9eba9un4Xxzi0bZv9+7gOXg0AAAAAjELTPGl23/lvUVQWn+77i1/+0qQyg4lPLY+i2XjNxWvPL6D2AO2B9gDtFdqrhyOEAQxJCAMAABbGMGhckz5zDmFEAONY+OLXwhhXr954RQAAAAAwCk3zJD7VN+euPv3e93/1wx/9+Ff/5e1/tdnuvcVrKeaF93/w3S/j9fXbv/NHf6rgWntg0x5oD9Be2bRXD08IAxiSEAYAAAhhUHHSZ84hjJjQytUu4v7r9e5p+f24LcIXORnsDwsATG1i9dyVogAAgOm4ncN6uX/97d/94z+32R5q+82r3/v0+ce7fXvOFO2BTXsA2iub9urhCGEAQxLCAAAAIQwqTvrMOYSR4YqYjDu6U9M8iZDGbVhje/PMqwKAKU2sCmEAAAAAAMA4CWEAQxLCAAAAIQwqTvrMPYQRAYsu10EIA4ApTqwKYQAAAAAAwDgJYQBDEsIAAAAhDCpO+sw5hBETWl3CFdur63e3g9OmeeJVAcCUJlaFMAAAAAAAYJyEMIAhCWEAAIAQBhUnfeYcwojwxW0I4+r63dF9LncvYh+TXwBMcWJVCAMA5jM+Ny4FAAAA432AroQwAABACIOKkz5zDmHEfZ43N2/j/rHF19urV29ysmvb7N/fhjS++jdua28R0PAqAWDME6tCGAAwn/G5ogwAAAAw3gfoSggDAACEMKg46TPnEEZMaGUA45zNhBgAY59YFcIAgPmMz41BAQAAwHgfoCshDAAAEMKg4qTPnEMY25f71zGpde4W9/cqAWDME6tCGAAwn/G5ogwAAAAw3gfoSggDAACEMKg46TPnEAYAzH1i1fsjAMxnfK4oAwAAAIz3AboSwgAAACEMKk76CGEAwHQnVr0/AsB8xueKMgAAAMB4H6ArIQwAABDCoOKkzxJCGHHf7eX+s+3V9bs4VjnRFddg1TRPvBoAmOLEqhAGAMxnfK4oAwAAAIz3AboSwgAAACEMKk76zD2Esb169SbuX27lRNe22b+PbbNpLrwiAJjaxKoQBgDMZ3yuKAMAAACM9wG6EsIAAAAhDCpO+sw5hPH8490+gxcRxthe7l60Qxjxddz2vLl56xUBwNQmVoUwAGA+43NFGQAAAGC8D9CVEAYAAAhhUHHSZ84hjAxYxPMsB6Htia4IYNwOTpvmiVcFAFOaWBXCAID5jM8VZQAAAIDxPkBXQhgAACCEQcVJnzmHMLbN/v326vpdexDanuiK66CQFYApTqx67wKA+YzPFWUAAADAvGwvdy+2L/evXQlgCEIYAAAghEElcw9hxP36hDBiEsyrAoApTawKYQDAfMbnQhgAAAAAQFdCGAAAIIRBJbNfCePq+l3cd7NpLspB6DcKW5rmSayYoZAVgClOrHrvAoD5jM+FMAAAAACAroQwAABACINKZh/CuNx/drvCRbN/n0GMMoQRt22vXr3JfbwiAJjaxKoQBgDMZ3wuhAEAAAAAdCWEAQAAQhhUMvcQxnq9e5qrXMT2vLl5m4GL8vbb2y53L7wiAJjaxKoQBgDMZ3wuhAEAAAAAdCWEAQAAQhhUMvcQRthub55tr67flYGLb4Qvmv37uA5eDQBMze17Y9M8cSUAYB7jcyEMAAAAAKArIQwAABDCoJIlhDBShDHi+W5f7l9vr169uf06Vr9QvAoAAMAIxudCGAAAAABAV0IYAAAghEElSwphAAAAwJjH50IYAAAAAEBXQhgAACCEQSWzCmE0zZPY5z6bVTEAAACoNT4XwgAAAAAAuhLCAAAAIQwqmVMII74f+91ns9oGAAAANWwvdy+2L/evXQkAAAAAoAshDAAAEMKgEiGMb26bTXPhVQEAAAAAAADAfcXfsOODF1wJYAhCGAAAIIRBJXMKYRzUNE+eNzdvt83+fTzX7fbmWQQt1uvd0/g6bsvvC2AAAAAAAAAA8FDi79G/8cnNn7kSwBCEMAAAQAiDipM+cw5hbF/uX8d943ke2ydX0IgghlcEAAAAAAAAAA9BCAMYkhAGAAAIYVBx0mfOIYxc5SJWxDi1X0x8xWNYDQMAAAAAAACAhyCEAQxJCAMAAIQwqDjpM+cQxtcrXHQMYWwvdy+8KgCY0vv4er176koAAAAAAMD4CGEAQxLCAAAAIQwqTvrMOYSxvXr15jZc8dW/R/fZ3jyLfc59DACoObHqvQsAAAAAAMZJCAMYkhAGAAAIYVBx0mfOIYz4dPAMWMTkVjzf5x/v9hG8iK+3l/vPYqWMr1fMAICJTawKYQAAAAAAwDgJYQBDEsIAAAAhDCpO+sw5hBFiUiuDGKc2RawATHFi1fsXAAAAAACMkxAGMCQhDAAAEMKg4qTP3EMYYXu5exGrXjxvbt5m6CJWvsjVMWLFDK8GAKY4sSqEAQAAAAAA4ySEAQxJCAMAAIQwqDjps4QQBgDMdWLV+yMAzEO8p8cHCLgSAAAAMB9CGMCQhDAAAEAIg4qTPkIYADDdiVXvjwAwn/G5ogwAAAAw3gfoSggDAACEMKg46SOEAQDTnVj1/ggA8xmfK8oAAAAA432AroQwAABACIOKkz5CGAAw3YlV748AMJ/xuaIMAAAAMN4H6EoIAwAAhDCoOOkjhAEA051Y9f4IAPMZnyvKAAAAAON9gK6EMAAAQAiDipM+QhgAMN2JVe+PADCf8bmiDAAAADDeB+hKCAMAAIQwqDjpI4QBANOdWPX+CADzGZ8rygAAAADjfYCuhDAAAEAIg4qTPkIYADDdiVXvjwAwn/G5ogwAAAAw3gfoSggDAACEMKg46SOEAQDTnVj1/ggA8xmfK8oAAAAA432AroQwAABACIOKkz5CGAAw3YlV748AMJ/xuaIMAAAAMN4H6EoIAwAAhDCoOOkjhAEA051Y9f4IAPMZnyvKAAAAAON9gK6EMAAAQAiDipM+QhgAMN2JVe+PADCf8bmiDAAAAJiX9Xr3dLNpLlwJYAhCGAAAIIRBJUIYADDtiVXvjwAwn/G5EAYAAAAA0JUQBgAACGFQiRAGAEx7YtX7IwDMZ3wuhAEAAAAAdCWEAQAAQhhUIoQBANN1+97YNE9cCQCYx/hcCAMAAAAA6EoIAwAAhDCoRAgDAAAAxjE+F8IAAAAAALoSwgAAACEMKhHCAAAAgHGMz4UwAAAAAICuhDAAAEAIg0qEMAAAAGAc43MhDAAAAACgKyEMAAAQwqASIQwAAAAYx/hcCAMAAAAA6EoIAwAAhDCoRAgDAAAAxjE+F8IAAAAAALoSwgAAACEMKhHCAAAAgPrW693Tzaa5cCUAAAAAgC6EMAAAQAiDSoQwAAAAAAAAAODhWfkSGJIQBgAACGFQcdJHCAMAAAAAAAAAHpYQBjAkIQwAABDCoOKkjxAGAAAAAAAAADwsIQxgSEIYAAAghEHFSR8hDACY7sSq90cAAAAAABgnIQxgSEIYAAAghEHFSR8hDACY7sSq90cAAAAAABgnIQxgSEIYAAAghEHFSR8hDACY7sSq90cAAAAAABgnIQxgSEIYAAAghEHFSR8hDACY7sSq90cAAAAAABgnIQxgSEIYAAAghEHFSR8hDACY7sSq90cAAAAAABgnIQxgSEIYAAAghEHFSR8hDACY7sSq90cAAAAAABgnIQxgSEIYAAAghEHFSR8hDACY7sSq90cAmM/4XFEGAAAAGO8DdCWEAQAAQhhUnPQRwgCA6U6sen8EgPmMzxVlAAAAgPE+QFdCGAAAIIRBxUkfIQwAmO7EqvdHAJjP+FxRBgAAABjvA3QlhAEAAEIYVJz0EcIAgOlOrHp/BID5jM8VZQAAAIDxPkBXQhgAACCEQcVJHyEMAJjuxKr3RwCYz/hcUQYAAAAY7wN0JYQBAABCGFSc9BHCAIBpet7cvN1evXrjSgDAPMbnijIAAADAeB+gKyEMAAAQwqDipI8QBgBM0/Zy9yLeI59/vNu7GgAw/fG5ogwAAAAw3gfoSggDAACEMKg46SOEAQDTtb3cfxbvk9uX+9ebTXPhigDAdMfnijIAAADAeB+gKyEMAAAQwqDipI8QBgBM//18e3X9btvs38fXfba+76+x+kbfx+izrde7p32f+zmbwAoAY3w/V5QBAAAAxvsAXQlhAACAEAYVJ32EMABgBprmSayKEX/M6bNFqKLPw8SKG30fo8/WNxxxzmM8b27eZmAlrpsXDwBjGZ8rygAAAADjfYCuhDAAAEAIg4qTPkIYAMDSbK9evYkgxjnBDwAYanyuKAMAAACM9wG6EsIAAAAhDCpO+ghhAABLFH2L7dX1O38AA2As43PvSQAAADAv6/XuqQ8CAoYihAEAAEIYVCKEAQAsWfQvop/hj2AAjGF8LoQBAAAAAHQlhAEAAEIYVCKEAQAsXayGEX0iVwKA2uNzIQwAAAAAoCshDAAAEMKgEiEMAGDpouBVCAOAMYzPhTAAAAAAgK6EMAAAQAiDSoQwAIClE8IAYCzjcyEMAAAAAKArIQwAABDCoBIhDABg6YQwABjL+FwIAwAAAADoSggDAACEMKhECAMAWDohDADGMj4XwgAAAAAAuhLCAAAAIQwqEcIAAJZOCAOAsYzPhTAAAAAAgK6EMAAAQAiDSoQwAIClE8IAYAzW693Tzaa5cCUAAAAAgC6EMAAAQAiDSoQwAIClE8IAAAAAAABgaoQwAABACINKhDAAgKUTwgAAAAAAYAgx9xxz0K4EMAQhDAAAEMKg4qSPEAYAsGRCGAAAAAAADEEIAxiSEAYAAAhhUHHSRwgDAFgyIQwAAAAAAIYghAEMSQgDAACEMKg46SOEAQAsmRAGAAAAAABDEMIAhiSEAQAAQhhUnPQRwgAAlkwIAwAAAACAIQhhAEMSwgAAACEMKk76CGEAAEu22TQX6/XuqSsBAAAAAMBDEsIAhiSEAQAAQhhUnPQRwgAAAAAAAACAhyWEAQxJCAMAAIQwqDjpI4QBAAAAAAAAAA9LCAMYkhAGAAAIYVBx0kcIAwAAAOqPzxVlAAAAgPE+QFdCGAAAIIRBxUkfIQwAAACoPz5XlAEAAADG+wBdCWEAAIAQBhUnfYQwAAAAoP74XFEGAAAAGO8DdCWEAQAAQhhUnPQRwgAAAID643NFGQAAAGC8D9CVEAYAAAhhUHHSRwgDAAAA6o/PFWUAAACA8T5AV0IYAAAghEHFSR8hDAAAAKg/PleUAQAAAMb7AF0JYQAAgBAGFSd9hDAAAACg/vhcUQYAAAAY7wN0JYQBAABCGFSc9BHCAAAAgPrjc0UZAAAAYLwP0JUQBgAACGFQcdJHCAMAAADqj88VZQAAAIDxPkBXQhgAACCEQcVJHyEMAGDJ4g9g0SdyJQCoPT5XlAEAAADG+wBdCWEAAIAQBhUnfYQwAIAlE8IAYCzjc0UZAAAAYLwP0JUQBgAACGFQcdJHCAMAWDIhDADGMj5XlAEAAADG+wBdCWEAAIAQBhUnfYQwAIAlE8IAYCzjc0UZAAAAMC/r9e7pZtNcuBLAEIQwAABACINKhDAAgKUTwgBgLONzIQwAAAAAoCshDAAAEMKgEiEMAGDphDAAGMv4XAgDAAAAAOhKCAMAAIQwqEQIAwBYOiEMAMYyPhfCAAAAAAC6EsIAAAAhDCoRwgAAlk4IA4CxjM+FMAAAAACAroQwAABACINKhDAAgKUTwgBgLONzIQwAAAAAoCshDAAAEMKgEiEMAGDphDAAGMv4XAgDAAAAAOhKCAMAAIQwqEQIAwBYOiEMAMYyPhfCAAAAAAC6EsIAAAAhDCoRwgAAlk4IA4AxWK93Tzeb5sKVAAAAAAC6EMIAAAAhDCoRwgAAlk4IAwAAAAAAgKkRwgAAACEMKhHCAACWTggDAAAAAIAhxNxzzEG7EsAQhDAAAEAIg4qTPkIYAMCSCWEAAAAAADAEIQxgSEIYAAAghEHFSR8hDABgyYQwAAAAAAAYghAGMCQhDAAAEMKg4qSPEAYAsGRCGAAAAAAADEEIAxiSEAYAAAhhUHHSRwgDAFgyIQwAAAAAAIYghAEMSQgDAACEMKg46SOEAQAsmRAGAAAAAABDEMIAhiSEAQAAQhhUnPQRwgAAlkwIAwAAAACAIQhhAEMSwgAAACEMKk76CGEAAEsmhAHAWMbnijIAAADAeB+gKyEMAAAQwqDipI8QBgCwZEIYAIxlfK4oAwAAAIz3AboSwgAAACEMKk76CGEAAEsmhAHAWMbnijIAAADAeB+gKyEMAAAQwqDipI8QBgCwZJtNc7Fe7566EgDUHp8rygAAAADjfYCuhDAAAEAIg4qTPkIYAAAAUH98rigDAAAAjPcBuhLCAAAAIQwqTvoIYQAAAED98bmiDAAAADDeB+hKCAMAAIQwqDjpI4QBAAAA9cfnijIAAADAeB+gKyEMAAAQwqDipI8QBgAAANQfnyvKAAAAAON9gK6EMAAAQAiDipM+QhgAAABQf3yuKAMAAACM9wG6EsIAAAAhDCpO+ghhAAAAQP3xuaIMAAAAMN4H6EoIAwAAhDCoOOkjhAEAAAD1x+eKMgAAAMB4H6ArIQwAABDCoOKkjxAGAAAA1B+fK8oAAAAA432AroQwAABACIOKkz5CGAAAAFB/fK4oAwAAAOZlvd493WyaC1cCGIIQBgAACGFQiRAGAAAAjGN8LoQBAAAAAHQlhAEAAEIYVCKEAQAsXtM8iU8jcyEAqD0+F8IAAAAAALoSwgAAACEMKhHCAACWLgpeo0/kSgBQe3wuhAEAAAAAdCWEAQAAQhhUIoQBACydEAYAYxmfC2EAAAAAAF0JYQAAgBAGlQhhAABLJ4QBwFjG50IYAAAAAEBXQhgAACCEQSVTCmE8v7r+NM7XZrPZbDab7SG37SfXP9levvrctbDZbDZb1fejr96L4j3JtbDZbDabzWaz2Ww2m81ms9lsXTYhDAAAEMJACOPOEIbNZrPZbDabzWaz2Ww2m81ms9lsNpvNZrPZbDabzWb7p00IAwAAhDAQwjgZwnj+8tsf+4kBAA/tNz65+bPoE7kSANS0Xu+ebjbNhSsBAAAAANwl/rYVf+Ma9UkqkQMAACGMOQ/KhDAAgCUTwgAAAAAAAGBKhDAAAEAIg8qDMiEMAGDJhDAAAAAAABjCJIqkAe3LUJTIAQCAEMacB2VCGADAkglhAAAAAAAwBCEMYNHtixI5AAAQwpjzoEwIAwBYMiEMAAAAAACGIIQBLLp9USIHAABCGHMelAlhAABLJoQBAAAAAMAQhDCARbcvSuQAAEAIY86DMiEMAGApNpvmIvo/5bb95Pon28tXn7dvj31dMQAAAAAAziWEASy6fVEiBwAAQhhzHpQJYQAAS7Fe755Gv6LLFvu6YgAAAAAAnEsIA1h0+6JEDgAAhDDmPCgTwgAAluTFJ9c/vTOE8dU+rhQAAAAAAPchhAEsun1RIgcAAEIYcx6UCWEAAEvy/OPdftvsvzwWwIjvxT6uFAAAAAAA9yGEASy6fVEiBwAAQhhzHpQJYQAAS7Je757etRJG7ONKAfDY43NFGQAAAGC8DzCb9kWJHAAACGHMeVAmhAEALM2LT65/ejSE8dX3XCEAaozPFWUAAACA8T7AbNoXJXIAACCEMedBmRAGALA0zz/e7bfN/st2ACNui++5QgDUGJ8rygAAAADjfYDZtC9K5AAAQAhjzoMyIQwAYGnW693TYythxPdcIQBqjM8VZQAAAIDxPsBs2hclcgAAIIQx50GZEAYAsEQvPrn+6a+FML66zZUBoNb4XFEGAAAAGO8DzKZ9USIHAABCGHMelAlhAABL7Qdtm/2XGcCIr+M2VwaAWu9LijIAAADAeB9gNu2LEjkAABDCmPOgTAgDAFiizaa5aK+EEbe5MgDUGp8rygAAAADjfYDZtC9K5AAAQAhjzoMyIQwAYKleXO3/6usQxldfuyIA1ByfK8oAAAAA432A2bQvSuQAAEAIY86DMiEMAGCpti/3r7fN/svb7auvXREAao7PFWUAAACA8T7AbNoXJXIAACCEMedBmRAGALBUm01zkSthxNeuCAA1x+eKMgAAAMB4H2A27YsSOQAAEMKY86BMCAMAWLIXV/u/is2VAKD2+FxRBgAAABjvA8ymfVEiBwAAQhhzHpQJYQAAS7Z9uX/9/Or6U1cCgNrjc0UZAAAAYLwPMJv2RYkcAAAIYcx5UCaEAQAs2WbTXMTmSgBQe3yuKAPg/7F3Ny9y3Oe+wHuhnbZaaKl/QINgLnhasuSeKG5Py4mxDwnYHLy5hgsmYggYsjCYg8g+mCiL4L25CxNDDFocvDhZKAlkNzJaXE6CdkrQAdsLLYJHMFfPWI9SKlX1y6hf6uXzgUKannrtnv5VPV2/b/8AAKBbtrbGp33+DKyCEAYAAAhhsOGiTAgDALp3U2fn0ngS53mTadnThZ29c95laK9M2que3jQFAAAAABpBCAMAAIQw2HBRJoQBAB0xGp268uobv4nz5uTNt7+Lc7zJtMxp/4MPj6/LYvrB3lu/i785bzy0VybtVY9umgIAAAAAjSCEAQAAQhhsuCgTwgCADhiNTo3Gb/zh9bfePvzr3+654GRlDh89Ojr46u7Rz37+i3/G35wgBtortFc9umkKAAAAADSCEAYAAPSQUqhZRZkQBgC0X3zLd3Qy/fqbb11sshbxtxad6H/4+k8+8Q5Ee4X2qic3TQEAAACARhDCAACAHlIKNasoE8IAgPaLc2V82zesU4xiEH97W1vj096FaK/QXvXgpikAAAAA0AhCGAAA0ENKoWYVZUIYANBuF3b2zsW58vDRIxearN3kzbe/27k0nngnor1Ce9WDm6YAAAAAQCMIYQAAQA8phZpVlAlhAED7z+f7H3zoIpONiGvJl3d/vO+diPYK7dWLiVE6trdHZ7QUAAAAAMAsQhgAANBDSqFmFWVCGADgfA4n9dnnXxy9+qOf/t47Ee0V2isAAAAAgPUQwgAAgB5SCjWrKBPCAADnczip//zyv3RqRnuF9goAAAAAYI2EMAAAoIeUQs0qyoQwAMD5HHRqRnuF9goAAABguVrRSRrQvqyKj6UBAGC5lELNKsqEMADA+Rx0akZ7hfYKAAAAYLmEMIBety8+lgYAgOVSCjWrKBPCAADnc9CpGe0V2isAAACA5RLCAHrdvvhYGgAAlksp1KyiTAgDAJzPQadmtFdorwAAAACWSwgD6HX74mNpAABYLqVQs4oyIQwAcD4HnZrRXqG9AgAAAFguIQyg1+2Lj6UBAGC5lELNKsqEMADA+Rx0akZ7hfYKAAAAYLmEMIBety8+lgYAgOVSCjWrKBPCAADnc9CpGe0V2isAAACA5RLCAHrdvvhYGgAAlksp1KyiTAgDAJzPQadmtFdor9w0BQAAANT7gPZlaXwsDQAAy6UUalZRJoQBAM7n0NVOzWivoC3tlU4ZAAAA0D3qfaDX7YuPpQEAYLmUQs0qyoQwAMD5HLraqRntFbSlvdIpAwAAALpHvQ/0un3xsTQAACyXUqhZRZkQBgA4n0NXOzWjvYK2tFc6ZQAAAED3qPeBXrcvPpYGAIDlUgo1qygTwgAA53PoaqdmtFfQlvZKpwwAAADoHvU+0Ov2xcfSAACwXEqhZhVlQhgA4HwOXe3UjPYK2tJe6ZQBAAAA3aPeB3rdvvhYGgAAlksp1KyiTAgDAJzPoaudmtFeQVvaK50yAAAAoHvU+0Cv2xcfSwMAwHIphZpVlAlhAIDzOXS1UzPaK2hLe6VTBgAAAHSPeh/odfviY2kAAFgupVCzijIhDABwPoeudmpGewVtaa90ygAAAIDuUe8DvW5ffCwNAADLpRRqVlEmhAEAzufQ1U7NaK+gLe2VThkAAADQPep9oNfti4+lAQBguZRCzSrKhDAAwPkcutqpGe0VtKW90ikDAAAAuke9D/S6ffGxNAAALJdSqFlFmRAGADifQ1c7NaO9gra0VzplAAAAQPeo94Fety8+lgYAgOVSCjWrKBPCAADnc+hqp2a0V+nhw4dHn3766dG9e/e8cZ+I52IVz0muN55z7VXHbpoCAAAA6n1A+zIvH8MDAMByKYWaVZQJYQCA8zl0tVMz3W6vorP/zZs3j65evRp15tHZs2eP9vf3j27duvVcACDmjXkiHMD34rlYxXOS621a4EUIAwAAAFi3ra3x6e3t0RnPBLBsQhgAANBDSqFmFWVCGADgfA5d7dRMd9ur27dvH3f0z+mdd955GsaI6fz580eHh4dP54//RyigaaMzbFI8F6t4TnK9xedfe9WRm6YAAAAAQCMIYQAAQA8phZpVlAlhAIDzOXS1UzPdbK8ygBFBixh1oRwiuHHjxvHvI5SxzCDAgwcPXjicsOptxPFWHXOTwieL7Msy91sIAwAAAADoCiEMAADoIaVQs4oyIQwAcD6HrnZqppvt1eDJaBcx2kJdECHCGXfu3HkaSIh5Y5l4PEMcEdYou3Xr1vHvbt68+XRdMX9xlI34/6ywRGwntxfzxkgduc1ysGCebeT+x37lumLdxe3s7+8/s3wGMmKZwZPQSmynah+Lz9vZs2ePp9hOTMVl5pkn11t8feKY4/HYh9y/WKYYGCkuF1M+H7H+eC2FMAAAAAAAvieEAQAAQhhsuCgTwgAA53MQwqAt7VWGESIAcJLloqN/dPyvW0d2/M8ARIYGIuAQy+YoG7HstFEaMlCQy8dyGZ4orn/ebRSPe1AIMeR28nfxcx5D/BuPxXpjnblsBh/KIYwMoGSoIn7OdWUIYp55yiGMOIbcx1gulsljjn/Lz1nME/sa4ZEMlhTnE8IAAAAAAPpOCAMAAIQw2HBRJoQBAM7nIIRBW9qrDAFUjWIxbwgjZOf+4ggLGRaIUEHx55i3ah9ytIxpIYyYimGNXDb3Y95t5P4PSgGOYtgjwxUZMokp1pNyRIxyWCL3JUMi5REsYrkc6WKeecohjAyVFPel+Hg+P1XHUtzmrNFHhDAAAAAAgL4QwgAAACEMNlyUCWEAgPM5CGHQlvaqHBwois765SmDAeUQRgQRBqUwRwYfMiyQPxcDB8XgRKx/1n6W54kgQfHxebeR+58BkfJ2yqGUHGmiGACJ56L4HJSfy/x9jEJRDKcUzTNPOYSRI2WUj7H8fOdy5XBLhkeqXnMhDAAAAACgj4QwAABACIMNF2VCGADgfA5CGLSlvcqO++WRI57Ums9N2XG/HMIIESSIKWVYIEdhyNEy6qZyIGKecETuZ2533m1U7f+0x3P0iGnzVgVacrmcYv/KYYtZ85RDGDlfWe5Pvpa5XHl704I3XWqvtrbGp7e3R2e0FAAAAADALEIYAAAghMGGizIhDABwPgchDNrSXmXH/UEhLDEtBDEthBEBiXgsRqfIkSeK4Y4MG8R8sVzVVCdHjKgLYWS4Yt5trCuEEeK5iMcylDKoGamjbp5yCCNH5ah7LXO0j/Jy5dcyRzXRXgEAAAAAfSeEAQAAQhhsuCgTwgAA53PQqZm2tFcRvIhRJAYzOuXPE8KI8EU8dvPmzacjbBTXmSGNk4zAkNsrj5aRj2c4Y95trDOEUfU8ZlBinnnKYYp4fgdTwhXx+3lCGOXHtVcAAAAAQF8JYQAAgBAGGy7KhDAAwPkcdGqmTe1VjjIxeBJmKHfOj99nUGPWSBIxSkNMEZaIZaq2E7+PkR9ChEBim/HYtBBIccSO4v5lICFCH4tsY9UhjNhmPAfl0EgGVWJ988xTFZq4c+fO09cqRy+JY819zGMUwgAAAAC6phWdpAHty6q4jQYAAEIYXS7KhDAAwPkcdGqmbe1VhhlyisBCdurPqRhMqAsrZAf/QWF0iqL9/f2nv4//Z7gj/s1AwbQQRoY7Yt9iHwelwMW821jHSBg5GkjsXzy/GQQZFAIQ88xTFZrIeeKYisdbHGFDCAMAAADoGiEMoNfti9toAAAghNHlokwIAwCcz0GnZtrYXkWn/AgBZOAgOvpHB//otB+jMxTFzzFfefSKHJEhpvIyxXkicBABgghVxP/r5q0KPESQIpevGz1j1jbq9r/u8Vi+GHComjf+LS8bIYsMgmRgorzuWfPkesvPUb5esUzsXzGIMm25use1VwAAAEDTCWEAvW5f3EYDAAAhjC4XZUIYAOB8Djo1o71arroRKtBeAQAAAP0hhAH0un3xsTQAACyXUqhZRZkQBgA4n4NOzWivlksIQ3sFAAAAIIQB9Lp98bE0AAAsl1KoWUWZEAYAOJ+DTs1or5ZLCEN7BQAAACCEAfS6ffGxNAAALJdSqFlFmRAGADifg07NaK+W6+HDh8cBjAhjoL0CAAAA+kkIA+h1++JjaQAAWC6lULOKMiEMAHA+B52a0V6hvXLTFAAAAFDvA9qXpfGxNAAALJdSqFlFmRAGADifQ1c7NaO9gra0VzplAAAAQPeo94Fety8+lgYAgOVSCjWrKBPCAADnc+hqp2a0V9CW9kqnDAAAAOge9T7Q6/bFx9IAALBcSqFmFWVCGADgfA5d7dSM9gra0l7plAEAAADdo94Het2++FgaAACWSynUrKJMCAMAnM+hq52a0V4t4vbt20effvrp0TvvvHP04MGDrtbjR3299SWEAQAAAKzb8PLkunofWAUhDAAA6CGlULOKMiEMAHA+r3Pv3r3j6fDwcKHlogPzsj5aXea6Bi/Q+Tg6Zu/v73eic3Y8B3EcfejUjPrjJG3E1atXhTBO4OHDh8dtZVMJYQAAAADrNBxeOx/3uYdXxhc9G8CyCWEAAEAPKYWaVZQJYQCA83mVCF8MnnTWvXHjxkLLLjM4cfPmzaUFBmI9J1lXdCyO4zl//vzx8vFz2zthC2Gg/qhu85ocIljW+39Vt77iuWvybTUhDAAAAGBdIoARdb5aH1gVIQwAAOghpVCzijIhDABwPq8SwYvBk+DB2bNnFxoNY5khjCa4c+dOpzpnD4QwUH88I0a9iMBXvDfi3/IIQPH/27dvH926dauyLYzlc5n4d1pbEb/PUTZi/lhnPFY3X64ztl+Uy8bj09rnWLa434NSCKO4P3X7WX4896e43Xgs2/66ZYUwOnDTFAAAAJgpRr6I+9tR5w8vT657RoBVEMIAAAAhDDZclAlhAIDzeVl0rI2PRq9evfr0m83LHYDLIYXouJwjRJRDGLFsrCc7Mse88XNxRIlYRwQ/yqNM5LIp/h8dinM/4+fyuurkvMWf87hiXbFfse7iumKePJ7Yv/K24v9Vx1PeRvwu/s3tlR/PbRc7Nef+1nWwzm3HVNcRO5/z4noGQhioP56R7/HilEGCDKQVp3isGDLI5YvrmRaCimBbvC8j5Jbzx7LFMMagMPpO8T0b293f339mf2J95fYz2tTi+uP/sc3y/tW1B+XHo/0oPxex3dhOMdxRPB4hjA7eNAUAOiW+oTuuQeadtrbGp+e9rlnmNM92N7HNZW/X8+v59fx6fj2/3Xh+I3QR97YjiOFqA+j954m6yAEAgBBGl4syIQwAcD6vCg7ER6MZSBg8CWSURYfh7OQbnXEHT75FPuYtfrSanYirOg5Hh+JyB+hiUKIc6Mh5yh2M87EZ16HPrSv2NTom5/6X1zUodSweFDpnV3XcrupIHY/lc5Idk3Pb+Xh5+fLjxXUWv3G+OMUyxU7Y8frlccW/McVjAyEMTuj42/viBvJodKpr9Ue2e8X3WjEAEY/H+yuDCNGeleeL91isZ1pbVGz/so3NtrH4vizOF+vM0Ed5n4rtQbS/KdvH2N8MYxXbzEVDGMV2vBxOyees6aMgNb29ik4aQhgAwFquO4bXzmcH0bj+mHfa3h6dmbduWOY0z3Y3sc1lb9fz6/n1/Hp+Pb/deX4FMIB1EMIAAAAhDDZclAlhAIDzeVl21M0O/dlBuPjN78UOt9nJt9iZeFARwoiQQHTWjXmL8+UoDfG7QSnwURfCyHVl2GBQ6hQ9bwijvK7siB3HNK1zdrGDcxx3sXN2cdniNqITdD6Hg0LoIpcvBlqKI2aU15nPXXkUj+J88VgGLzLUUgx3CGFwEnFdntNLu5NPFg1ktCmEkSMCVd0mivdRvLfK7VQxQDarHSoHNcrhtZwvR/4J0X4MnoxqUbXebDuzLS2/z2ObgxOGMAYVYbxod6LNEcJ4cdER0rdkAgDrvO7QQRQAANpNCAMAAIQw2HBRJoQBAM7nVZ10i4GG6Ow/KAUBqkINIUfOGFSEMDI0UFxnuTNxBhFmhTCK66rbl3lDGMXO0NnxutjButw5Ozs4V3WEjuWKj8/a32KwJYMUxec+96e8zqrASY56Ma0Tdj7vQhicRDGE8UwgY7T3y+jM1eb6o+59XvVeKQfTsp0qjkQzqx0qz5vryO3nfNEGpNynqvd/cR/q5ssQx2DBEMa07VbtgxDG4oyCAQCsw4WdvXP5Dd2eDQAAaDchDAAAEMJgw0WZEAYAOJ9XdS4uf0t7jqqQHYKndVAe1IQwip2Oc/lysKPcibf8c4Y0ih2T5+38O6gJYZTXVZ5vkc7Z5WOdto1i0KO4neI335f3J0MysZ2YvzgVRzDJdZW/mX/avgthMEtdCOPp9Mq1r3dGe/8RnbvaVn/Uvc/LbVTVe3WR8MGgJjCW68y2t2q+HPWnasSNHIkn9rvu/V/XDs4KYWR4a9ZIH0IYJxPfQG0UDABgXZ8fDEeT+xEA9WwAAED7r++FMAAAQAiDDRZlQhgA4HyeiqNY1E05osO0zvyzRrMoLl/u1DsrhFHXyfdFQhiz5it3zp7WITlHsyh/m/20Ds5126nan5xn2jStE3a+xkIYnMTMEEZhGo4m/72zu7e/vT0604b6o/z+y1Fopo2EkfOeJIRRNxJGjq5R1XbkSBbTRsKIfaobuSIfL7eDV69endpOTNuuEMbJxMgxx50gL0+uC2AAAOv8/MAoGAAA4Pp+bXSRAwAAIYwuF2VCGADgfF7uhBwhiuhMW54Ghc662UG53Hm3qvNw10IY04IMxY7Qywxh5POcAZBZnaFzxIwIhVQ978sMYWSne+/G7lskhPHMtDv5fzuXxpP/9fLkf7clhBHifVf1/s2gWQYmThLCKI82VN5WXdsR245pVrij6n2e7UdxvTEiT3k7OV9x+artxjHEPCcZEWRTIYz8m4xz5zzT1tb49CLn43mmDF7EDdKYBDAAgHV+fiCEAQAAru/XRhc5AAAQwuhyUSaEAQDO5+WOxeVvaC93Es6Ox1UdlKu+ab1rIYw89ui8PE9H6MESQhjlb6QvbztCMdFxOrdb9y3+uY1VhDBMptrplb0/RVt18eXx/2lTCKP4fonH4/1148aN595DJwlhRHsb79l4r1ats67tyHkjiBX7E/uV2y8un+1zzB/tRhxLBi6K6831RWAr25E8FxTXl6P8xGOx3Vhn+ZyRI4TkiElNDmFkAGLWVBzJZZZ51yl4AQBs8vMDIQwAAHB9vza6yAEAgBBGl4syIQwAcD4POXLCtM758W3ngyedeoudd6Mjbixf18m3iyGMYofkeDy/Eb74/KwihFE81tx2sdN0cYSMYkfqmC9fr8GSQxiv/uinv/dO7IdZYYvhaPLd9/+f/M9Lo71fHnc0H41OtaH+qHr/RSgh3uvFdm1QCDa8SAij+L7N92RxnXVtRzEIklPsXzxWDNAVwxk5RftQHvki2q7i8UV4o2rEnNxu+bkotuEZEqvb9yaEMLRXAEDfPz8QwgAAANf3a6OLHAAACGF0uSgTwgAA5/NiJ+Jp32CeoytEJ9z4f1Vn4OjAO09wou0hjDj2eLzYiTr+H4/Fc7PKEEZsu6pjeDz3xW1XdcIuhkd0amZRU0MYu5PfR3s0beSAJtcf8X6J92DVSEA5QkQE0YrvsRS/K7dl87RDsa5YZ/k9H+LxaevMZXM0jVnHFWGLPI7yevPxYvtft/1Z240gRmyz6piEMAAANv/5gRAGAAC4vl8bXeQAAEAIo8tFmRAGADifZ0fdeTrNZgfbYufbDCTk8jlPeZlyR954rNzhedayVeua9vi0Y6w75vLjsY/lYy53wI4Ozos8r/FY8Vvvp22nat7itmOq6jheXD46Tec6pq1Pp2amOR7tYnfy6MmoF/99PNrF8Nr54mgXXag/VlwPN3KUiD7QXgEAPj8QwgAAANf3a+RjaQAAWHqnExpUlAlhAIDzOejUzDxeemXyf3cujSfTRrvQXs2sh4UwtFcAABv7/EAIAwAAXN+vjY+lAQBg6Z1OaFBRJoQBAM7noFMz2qu11cNCGNorAICNXY8LYQAAgOv7tfGxNAAALL3TCQ0qyoQwAMD5HHRqRnu1Hvfu3Tue0F4BAGzielwIAwAAXN+vjY+lAQBguZRCzSrKhDAAwPkcdGpGe4X2CgCg+9fjQhgAAOD6fm18LA0AAMulFGpWUSaEAQDO56BTM9ortFcAAN2/HhfCAAAA1/dr42NpAABYLqVQs4oyIQwAcD4HnZrRXqG9AgDo/vW4EAYAALi+XxsfSwMAwHIphZpVlAlhAIDzOejUjPbq5A4PD4/u3bt39PDhw8qf5xHzLrrMInL9sW/aKwCA/l6PC2EAAIDr+7VxGw0AAJZLKdSsokwIAwCcz0GnZrRXJxfhhrid9Omnn1b+PI+Yd9FlFpHrj33TXgEA9Pd6XAgDAABc36+N22gAALBcSqFmFWVCGADgfA46NaO9Orly6CJGnYj/LxJ4iHnLy5w/f/7EoYzysrn+VY20ob0CAGjH9bgQBgAAuL5fG7fRAABguZRCzSrKhDAAwPkcdGpGe3VyJxn5YpbDw8MTr/NFltVeAQB0+3pcCAMAAFzfr42PpQEAYLmUQs0qyoQwAMD5HHRqRntVL0aPuHHjxtHZs2ePrl69evz/CDqkcgjjwYMHR++8887R7du3n1lP/ByPx7S/v//MqBT5u/g3pthOrDNGtIjHY5257ps3bx4/Fr+P9cT8uT91y+b6cz3pzp07x+uIY4vjKv++uFxsI5+H2Ie2jaqhvQIAXI8LYQAAgOv7NXIbDQAAlksp1KyiTAgDAJzPQadmtFfVIqAweBJoiP8XAw4ZfCiHMKpGxojwQjwWAYZYNv+fQY2YN5eZFsLIx+OxCELEOorbqls21x/7FmLfi/uRx5nrTrlchi9ivlwu/tVeAQC063pcCAMAAFzfr43baAAAIITR5aJMCAMAnM9Bp2a0V8+LoELcJopQQ3Hki2JgYp4QRgQjBk/CDbmeYihjnnWW11Pex2IgomrZcggjf45QRe5TjGyRI2zkKBc5X+xnceSL8nzaKwCAdlyPC2EAAIDr+7VxGw0AAJZLKdSsokwIAwCcz0GnZrRXz8vQQ45WkSJ4MCiEIWaFMGLEivj5zp07z6wn5iuHIqaFMOpkICLXNU8Io7xMunXr1jPHXBwJoyiPKebXXgEANM/wyvhiXH8Xp+GV124OX9n747OPjS96tgAAoH2EMAAAoIeUQs0qyoQwAMD5HHRqRnv1vBytom6KETKqQg/ln+cZNWLeEEYEOWJ9uc7itEgII0a2iJ+LI3wUl83QRS5XDqKU91d7BQDQLMPLk+vxufqsaWd3b9+zBQAA7SOEAQAAPaQUalZRJoQBAM7noFMz2qvnZdAhAgkRNqiaqkIPqwph5CgVxX2K+c6fP79wCCOXKctlc5SP8nJ1+6u9AgBolq2t8el5QhgXdvbOebYAAKB9hDAAAKCHlELNKsqEMADA+Rx0akZ79bwcCSPCD9PMCmHUBRkePHhw/FiMRjFPCKMYCkmx7OAEI2HksZX3KYMe5ZEwhDAAANrn4it7f5oawnjl2teeJQAAaCchDAAA6CGlULOKMiEMAHA+B52a0V497/bt28+MClEMKuzv7x/duXOnMvRQ/jnCFoOK8MTZs2ePp2khjOIyOXpFMRSS+1h8vGrZcpgi9j1+vnnz5jPHVg6eCGEAALTXzqXxZDiafFcXwnhpd/KJZwkAANpJCAMAAHpIKdSsokwIAwCcz0GnZrRX1TL4EP9GMOHq1atPQw8RriiGHqaNYlFcTzye6ymPlpE/Z0gjH4t15jyDJ+GJXEeOkBFThCumLZthiuI8sXwcW+5jBkOEMAAA2m1ra3y6LoAR4YzhlfFFzxIAALSTEAYAAAhhsOGiTAgDAJzPQadmtFf1YrSJYtAh/p+jYMwbwsj1FMMYEaQohx2KyxRDF/H/hw8fHo9UkeGJCGHEOmMdsU/xeDnUkctWhSliuWL4ItaR6yvvgxAGAEA7xWgXdUGMCGl4hgAAoJ2EMAAAoIeUQs0qyoQwAMD5HHRqRns1W4QgliFH0DipCEksa1+WfWzaKwCAZonRLipDGK/s/cmzAwAA7SWEAQAAPaQUalZRJoQBAM7noFMz2iu0VwAAHTQanaoKYezs7u17cgAAoL2EMAAAoIeUQs0qyoQwAMD5HHRqRnuF9goAoJteGu39shzCuLCzd84zAwAA7SWEAQAAPaQUalZRJoQBAM7noFMz2iu0VwAA3TQcXjv/TAjjlWtfe1YAAKDdhDAAAKCHlELNKsqEMADA+Rx0akZ7hfYKAKC7Lo4m/5MhjJd2J594RgAAoN2EMAAAoIeUQs0qyoQwAMD5HHRqRnuF9goAoLt2Rnv/EZ+zD0eT74ZXxhc9IwAA0G5CGAAA0ENKoWYVZUIYAOB8Djo1o71CewUA0F3b26MzORLG1tb4tGcEAADaTQgDAAB6SCnUrKJMCAMAnM9Bp2a0V2ivAAC6bTia/PfFV/b+5JkAAID2E8IAAIAeUgo1qygTwgAA53PQqRntFdorAIBuG16eXN/Z3dv3TAAAQPsJYQAAQA8phZpVlAlhAIDzOejUjPYK7RUAQLdtbY1Pb2+PzngmAACg/YQwAACgh5RCzSrKhDAAwPkcdGpGe4X2CgBomwgV7FwaT+I602Ra9nRhZ++cdxkAAE0lhAEAAD2kFGpWUSaEAQDO56BTM9ortFcAQGuMRqeuvPrGb+Jz48mbb38X15gm0zKn/Q8+PL4vEdMP9t76XfzNeeMBANAkQhgAANBDSqFmFWVCGADgfA46NaO9QnsFALTCaHRqNH7jD6+/9fbhX/92z0UOK3P46NHRwVd3j37281/8M/7mBDEAAGgSIQwAAOghpVCzijIhDABwPoeT0qkZ7RXaKwBgnWJUgugU//U337rAYS3iby1CPz98/SefeAcCANAUQhgAANBDSqFmFWVCGADgfA4npVMz2iu0VwDAOsVnxTE6AaxTjLoSf3tbW+PT3oUAADSBEAYAAPSQUqhZRZkQBgA4n8NJ6dSM9grtFQCwLhd29s7FZ8WHjx65uGHtJm++/d3OpfHEOxEAgCYQwgAAgB5SCjWrKBPCAADnczgpnZrRXqG9AgDWeT25/8GHLmzYiKhlXt798b53IgAATamPhDAAAKBnlELNKsqEMADA+RxOSqdmtFdorwAA15P0wWeff+F6EgCARtVHQhgAANAzSiE3rRYlhAEA7T+f0006NaO9QnsFALiexPUkAACsvz4SwgAAgJ5RCrlptSghDABo//kcnVBAe4X2CgBwPYnrSQAAWE59JIQBAAA9oxRy02pRQhgA0P7zOTqhgPYK7RUA4HoS15MAALCc+kgIAwAAekYp5KbVooQwAKD953N0QgHtFdorAMD1JK4nAQBgOfWREAYAAPSMUshNq0UJYQBA+8/n6IQC2iu0VwCA60lcTwIAwHLqIyEMAADoGaWQm1aLEsIAgPafz9EJBbRXaK8AANeTuJ4EAIDl1EdCGAAA0DNKITetFiWEAQDtP5+jEwpor9BeAQCuJ3E9CQAAy6mPhDAAAKBnlEJuWi1KCAMA2n8+RycU0F6hvQIAXE/iehIAAJZTHwlhAABAzyiF3LRalBAGALT/fI5OKKC9QnsFALiexPUkAAAspz4SwgAAgJ5RCrlptSghDABo//kcnVBAe4X2CgBwPYnrSQAAWE59JIQBAAA9oxRy02pRQhgA0P7zOTqhgPYK7RUA4HoS15MAALCc+kgIAwAAekYp5KbVooQwAKD953O66bPPv9AJBe0V2isAwPUknSeEAQBA0+ojIQwAAOgZpZCbVosSwgCA9p/P6ab9Dz48enn3x/veiWiv0F4BAK4n6TIhDAAAmlYfCWEAAEDPKIXctFqUEAYA1Nu5NJ5M3nz7O1eZrNvho0fH12kXdvbOeSeivUJ7BQCsmhAGmySEAQBA0+ojIQwAAOgZpZCbVot6kRDG8Mr44nD3tY+Go8n9WM+0SYccANpoa2t8Os5jf/3bPRearNXBV3ePr6G8C9Feob0CANZBCINNEsIAAKBp9ZEQBgAA9IxSyE2rRZ00hBGhilnBCyEMALrgyqtv/Ob1t94+/Pqbb11sshbxt/azn//inz/Ye+t33oFor9BeAQDrIITBJglhAADQtPpICAMAAHpGKeSm1aJOGsKIETBi2Sg8dy6NJxGymDYNRqNT/ioAaKXH57DR+I0/RCfT+Lbvw0ePXHSyMjGKQXSij785109or9BeAQDrIoTBJglhAADQtPpICAMAAHpGKeSm1aJOHMIYTe7Hsltb49NebQA6bzQ6Fd/ynSM87X/w4dFnn39x3EnAZHrRKf6W4rpx8ubb38Xf1w9f/8knOjSjvTJprwCAdRLCQAgDAAD+VR8JYQAAgBAGblqtJoSxu3cQQQyvNAB9EyM8DS9PrkfnAJNpWdPLuz/ej9HFBFzRXpm0VwDAJghhIIQBAAD/qo+EMAAAQAgDN61WFMJ47aNYNjp2ebUBAAAAANpLCAMhDAAA+Fd9JIQBAABCGLhptZIQxvb26EyMhBGFZ/zfKw4AAAAA0E5CGAhhwOrEfbT4UrNoa3OKkStjKj4W87jnBgDNqI+EMAAAQAgDN61WEsIYXhlfHF6ZfBzLxzTc3TuIn6MQrZp8aAwAAAAA0ExCGAhhwPJk4CLuj+V9tEWnWDaDGZ5RAFh/fSSEAQAAQhi4abWSEMaiHxz7kBgAAAAAoJmEMBDCgBdzPIJ8jG6xu3dw0uBF3XT8RWiP1+0LzwBgffWREAYAAAhh4KbVSkIYO5fGk+IQybOmra3xaX8VAAAAAADNI4SBEAacTNz/epERL04yQoZ7bgCw+vpICAMAAIQwcNNqJSEMAAAAAAC6QQgDIQxYTAQhhruvfbSu8MXzo2O89pEwBgCsrj4SwgAAACEM3LQSwgAAAAAAoJYQBkIYMKfR6FS0mcPR5P6iwYl333v/KNraqil+t3AQ4/E+xL7EPnlhAGC59ZEQBgAACGHgptULhzC2t0dnosAsFpnDy5Pr+dg8U6zDXwUAAAAAQPMIYSCEAbPFva7h7t7BvCGJX/36t0d//PNfju7//R9zvx9i3lgmlp1/VIy9A/fhAGC59ZEQBgAACGHgptULhzAu7Oydyw9y87EoOBf5Np5Yh78KAAAAAIDmEcJACAOmGw6vnZ9n9ItoSw++unt0+OjRC783Yh2xrljnPKNixD56pQBgOfWREAYAAAhh4KbVC4cwtrbGp+N4joc0zg+br4wv5mPzTLEOfxUAAAAAAM0jhIEQBtTbuTSezApB7H/w4UIjXiwq1h3bmLUfsa9eMQB48fpICAMAAIQwcNPqhUMYAAAAAAB0lxAGQhhQYTQ6Ndx97aNpoYd333v/eLSKdYltxTanjorxeJ9j372AAHDy+kgIAwAAhDBw00oIAwAAAACAWkIYCGHA82YFMD77/IuNvW9i2zODGADAiesjIQwAABDCwE2rlYUwLuzsncvis/jBbvxcnra3R2f8VQAAAAAANI8QBkIY8KydS+NJXcDh9X/797WOflEn9iH2pW4/4xi8kgBwsvpICAMAAIQwcNNqJSGMra3x6WnfsFOeIrDhrwIAAAAAoHmEMBDCgH8ZDq+dnxbA+Pqbbxvz/ol9mRbEiGPxigLA4vWREAYAAAhh4KbVSkIYOQTzcHfvII41PsSNoEXdNBiNTvmrAAAAAABoHiEMhDDgezGy+3A0uV8VaNj/4MOjw0ePGvcein2KfasMYTw+FqPVA8Di9ZEQBgAACGHgptVqQhhPPoCOETG82gAAAAAA7SWEgRAGPDYanYovH6sbAaOJAYxiEKNuRIw4Jl+WBgCL1UdCGAAAIISBm1arCWHs7h1EEMMrDQAAAADQbkIYCGHA921hXQDj62++bfx7KfaxLogRx+YVBoD5rwmEMAAAQAgDN61WE8K4PLl+vOyl8cSrDQAAAADQXkIYCGHQdzHye44CX54OvrrbmvdT7GvlaBiPj83o9gAwf30khAEAAEIYuGm1khBGDFu8M7r2ZXxoG8d6YWfvnFcdAAAAAKB9hDAQwqDvhruvfVQVXvjs8y9a956Kfa4MYjw+Rq80AMxXHwlhAACAEAZuWq0mhDGoH5a5ahLSAAAAAABoJiEMhDDosxghoure1rvvvd/a91Xse9UxGQ0DAOarj4QwAABACAM3rVYSwlgkgCGEAQAAAADQXEIYCGHQZ9HJsure1sFXd1v7vop9rzqmxncoBYCG1EdCGAAAIISBm1YrCWHsjK59eTx08ZXJx8PhtfO+OQcAAAAAoJ2EMBDCoK+2t0dnqsIK+x982Pr3VhxD1bHFMXvlAWB6fSSEAQAAQhi4abWSEEZ+UDsYjU55tQEAAAAA2ksIAyEM+mp4eXK9Kqhw/+//aP17K46h6tjimL3yADC9PhLCAAAAIQzctFpJCCMKzuFocl8IAwAAAACg3YQwEMKgr4a7ewflkEKX2sM4ludCGI+P2SsPANPrIyEMAAAQwsBNq5WEMHYujSe+LQcAAAAAoP1W/Xn2p59++sx0+/bto3v37h1Ph4eHjfisPPbr8VNx/C9CGPTDhZ29c1UjRRx8dbcz7684lqpjjGP3FwAA9fWREAYAAAhh0NGbVpsOYWxvj84Mr0w+juWj+IzjjQ9s6yYjZgAAAAAANNOqP89+vImp040bN44ePHiw0c/KIxjyzjvvHP/LsyKYEoEZIQy62PZVBRQOHz3qzPs3jqXqGOPY/QUAQP01ghAGAAAIYdDRm1abDmFEwVn1oW3d5Bt1AAAAAACaaV0hjBz9IqcMPsTv4l8a2IH78HDlI4QIYbApVfe6fvXr33bufRzHVD7OxncsBYAN10dCGAAAIIRBR29aCWEAAAAAALAM6wph1Dl79uzx7x8+fPjc7+7cuXO0v79/HAKI/1eJ5SLQEfPcunWrdjvT1hWhkBzxofj/srrfFdc9z6gRuZ7Y9+L/i+KYYpSQqnWWl8l5q57D8vqqnseq/bl79+7x/IMnIZmqfRTCoM2q7mf98c9/6dz94zimqmP1FwAA9fWREAYAAAhh0NGbVpsOYQAAAAAA0A2bDmFEeCF+XwwHRJji/PnzT5fNKUIB5fBAhjhyunr16tGDBw8WWlcEDAZPRnyI/Yj/x37N2teYf579LMvtZchh8GSkkPxd+Zhiunnz5nPLx7HlaCLFbccIFil+Lq8v9rk4ukXV/nz88cfP7cM8ARMhDNZpeGV8cXh5cn1ra3x6keW2t0dnqoIJ9//+j87dP45jqjrWeA78BQFAdX0khAEAAEIYdPSmlRAGAAAAAADLsMkQRoQF8vcZHMjHIjiQYYoYgSHCFYNCACJ+N3gSKIhRHuLnnCceW2RdxRBGyNBCMcxQXFfduov7MC2wkNsbPAk+xH7E+mLfpq0zHysuH+GMWDbWkYGQ3HY8L8XnKB/L+XJki/L6YvlYZ/xbfF5WQQiDF22/ngYLXtn7086l8WSeQEaM4F4VTOgqo9gDwGLXF0IYAAAghEFHb1qtNYQxGp2KD2LnneLYy9Oi30AEAAAAAMB6rCuEER35i1Nx1IXiyBE5EkWGBlIGAnKEihgFYvBkNIhiUCLXv8i6yiGM3LfichloyBEp8ufiCB7FbU4bDSO3l2GRlMdUXmd527l8jIJRNV8eR46SUT7+3E4+Xrc/Qhi0of0qBguGu5NH8e9Lu5NPYpSMuMc1z3Ixvfve+529hxzHVj7eeA78BQFA9XWCEAYAAAhh0NGbVusMYdR9G9Aik2/TAQAAAABopnWFMKqm4ggNKQMQ8W85uDEoBA8iQDGYMeLEvOsqhzBylI0MaRS3l6NR5M/ldUdQYlARkKgKYWSooryNeLwqsFLe3/Ly5XBJeQSN8nwZFCkfvxAGbWq/Zt2jemm098vh8Nr5Wcu14b7eScWxCWEAwPzXF0IYAAAghEFHb1ptKoQRhWZOO6NrX876YHu4u3cQ825vj874qwAAAAAAaJ51hTCiQ39OOWJDhDBi9IqiHL2hbsogQs5XDhicZF1VIYTYt3gs9i+m+H+EGhZd97QQRjncMG19s/Y3PHz48Jn5zp49e/xzWYZMZq1PCIM2tF9zf2nYK9e+3hnt/UfcsxLCEMIAgGnXF0IYAAAghEFHb1qtM4RRZWtrfDpCGBGyiOGciyNdxIfX8djx70eT+8fDPQMAAAAA0EjrCmGUFUd9qApO3LlzZ+p6c8SJaSNhzLuuqhBCPhbLZmjk1q1bC697kRBGrnPaMRWXrxsJI0e4yBE0yuvL+ZoSwshO4d6NnKT9Otko7nsP+h7CGF6eXPcXBADV1xdCGAAAIIRBR29abTqEMdx97aPjD2inBCwijOHGCQAAAABAs20qhBGjS+RIDcWQQIYrygGDGOUhwhA5ckZdQCBGsMgRNuZdV1UIIUeViCBDBkaKo3ZkwKG8/RhlIoIZ5RE+5glh5HaqwhDFdeby5dE2ymGR/Dn+nRbiaEoIw2RadFo0hDEcTb47vjc2mtwTwhDCAIC6+kgIAwAAhDDo6E2rzYcw9g5imj3f92GN4kgZAAAAAAA0x6ZCGCHCAvG7CE2Uww8R0IigQ4QaMkwxKI08kSGO+H3Ml2GCHAli3nXVhRCuXr36dBsRkCgHOXLduf26/Zw3hJGhh1hn/C62kWGPqv3NY4354rHc19iXDLoU15f7mPPFctP2J+bP1yf2Ledfdgjj1R/99PfeiZy0/ZorgPHKta9f2p18El8uFqO9Vy3XtxBGPAf+ggCg+vpCCAMAAIQw6OhNq02HMPID2vigetp8O6NrX84aMQMAAAAAgM3ZZAgjxGgOg1IAIDr8F8MHOZVHtKiaL4ITxbDAPOuqCyHkSBKDmlBFrDtHryhOs0aOqNvetHXm6BbF5WOfisGPCEuU9zN+zuc4p1h/cfSRaftT3JdVjIghhMGLtl91o11cfGXvTzu7e/tVXxQmhCGEAQDTri+EMAAAQAiDjt602nQII0e4mFZ4RvAiP8g1EgYAAAAAQDOt+vPs6Oxf7PBfFqM11M0Tv4vwQQQJ4v91InQR800bqWHaumK5qpEepu1b1fZn7ees7VWts2rbGZrI38W8ERiZZx+rtjltf4rPgZEwaGL7VTfaxdzLPZnefe/9zt5DjmMTwgCA+a8vhDAAAEAIg47etNp0CCM+vM4PaWO0iyhA45hjGl6ZfBw/F75x6L6/CAAAAACAZmrL59nUhzDaTAiDFxGBi7rRLqaJ+cuhhJi6qupYfYEaANTXR0IYAAAghIGbVisJYRx/sH15cr3qQ9vSkM/3t7dHZ/xFAAAAAAA0kxCGEIYQBn0T966q7mvd//s/OtdexDFVHav7dwBQXx8JYQAAgBAGblqtLISRH1JHGCMK0OIUo2HEtw8NRqNT/hoAAAAAAJpLCKO9IYw7d+4IYcAJVQUT/vjnv3SuvYhjqjpWfwEAUF8fCWEAAIAQBm5arTSEMUsMZRzPhb8IAAAAAIBmEsJACIM+is6V5WDCr3792869x+KYysfZ+I6lALDh+kgIAwAAhDBw02qjIYwYJcO36QAAAAAANJcQBkIY9LXtqxoh4vDRo868v+JYqo7RF6gBwPRrBCEMAAAQwsBNq5WGMLa3R2eGu699FAVoeRru7h0Y0hgAAAAAoNmEMBDCoI9iNPeqgMLBV3c78/6KY6k6xjh2fwEAUF8fCWEAAIAQBm5arSSEsbU1Pr0zuvZl1Qe35SlCGv4iAAAAAACaSQgDIQz6qviFYjl1qT2MY3n+vt3egVceAKbXR0IYAAAghIGbVisJYexcGk/yw9rjUS+uTD4+Xtfo2pfFcIbhjAEAAAAAmk0IAyEM+mp4eXK96gvG7v/9H61/b8UxVH552uNj9soDwPT6SAgDAACEMHDTaiUhjAxdDIfXzsfPOWRzhi5ipIwYAeN4nivji/4iAAAAAACaSQgDIQz6ant7dKYqqLD/wYetf2/FMVQdWxyzVx4AptdHQhgAACCEgZtWKwlhlIcrLocwQgQxDGsMAAAAANBsQhgIYdBn0cmyKqxw8NXd1r6vYt+rjqnxHUoBoCH1kRAGAAAIYeCm1UpCGMPR5P7O6NqX+XN+U1AxhHE835PRMHyrDgAAAABAMwlhIIRBn+WXipWnd997v7Xvq9j3qmOKY/WKA8Ds+kgIAwAAhDBw02o1IYwrk49j2RgBIx87HvViNLlfDFwML0+uHz9+ZXzRXwUAAAAAQPMIYSCEQd/ll4qVp88+/6J176nY56pjiWP0SgPAfPWREAYAAAhh4KbVSkIYcXz5oe3OpfEkHouRMYqPRfBiuLt34Jt1AAAAAACaSwgDIQz6Lu5jxReNVYUXDr6625r3U+xrZQDj8bG5VwcA89dHQhgAACCEgZtWKwlhDEajUzkaRhxrPDQcXjtf+cHu4/n8RQAAAAAANJMQBkIY8OwXkBWn1//t34++/ubbxr+XYh9jX6uOIe/lAQDzXRMIYQAAgBAGblqtJoTxxIWdvXMx4kX+PLw8uZ6jX8S36sTQxr5ZBwAAAACguYQwEMKAwfdfQPbkHldVEOPw0aPGvo9i3+oCGHFMcWxeYACYvz4SwgAAACEM3LRaaQijjuAFAAAAAEA7CGEghAHf294enYkvGasKM+x/8GEjgxixT7FvlQGMx8cSx+SVBYDF6iMhDAAAEMLATauNhDAAAAAAAGgHIQyEMOBfhsNr56sCDTkixtfffNuY90/sS90IGMchjMfH4hUFgMXrIyEMAAAQwsBNKyEMAAAAAABqCWEghAHP2rk0nkwLYhx8dXfj753Yh2kBjDgGryQAnKw+EsIAAAAhDNy0EsIAAAAAAKCWEAZCGPC84e5rH9UFHGL67PMvNva+iW1P27fYd68gAJy8PhLCAAAAIQzctBLCAAAAAACglhAGQhhQYTQ6NSuI8e577691VIzYVmxzZgDj8b57AQHg5PWREAYAAAhh4KaVEAYAAAAAALWEMBDCgHo7l8aTaaGHmPY/+PDo/t//sbL3Saw7tjFrP2JfvWIA8OL1kRAGAAAIYeCmlRAGAAAAAAC1hDAQwoDphsNr54ejyf1ZIYhoS2O0isNHj174vRHriHXFOmdtN/Yt9tErBQDLqY+EMAAAQAgDN62EMAAAAAAAqCWEgRAGzLa9PToz3N07mBWIyOlXv/7t0R///JeFRsiIeWOZWHbe7cQ+xb55hQBgefWREAYAAAhh4KaVEAYAAAAAALWEMBDCgDmNRqeizZxnVIzy9O577x+PalE1xe8WXV/sQ+xL7JMXBgCWWx8JYQAAgBAGbloJYQAAAAAAUEsIAyEMWMzW1vj0cPe1jxYNTixrim3HPnglAGA19ZEQBgAACGHgppUQBgAAAAAAtYQwEMKAk4kgRHTSXFf4IrYlfAEAq6+PhDAAAEAIAzethDAAAAAAAKglhIEQBryY7e3RmeHlyfXh7t7B8ke92DuIdcc2PNMAsJ76SAgDAACEMHDTSggDAAAAAIBaQhgIYcDyXNjZO5edN19kxItYR6zLMwoA66+PhDAAAEAIAzethDAAAAAAAKglhIEQBqxOjGCRwYycjkfNeDwVH4t5jHYBAM2oj4QwAABACAM3rYQwAAAAAACoJYSBEAa0z/DK+KLRMgBgNfWREAYAAAhh4KaVEAYAAAAAALWEMBDCgPlFp8x5pxjtYpX7Eff5og33qgDAcusjIQwAABDCwE0rIQwAAAAAAGoJYSCEAfOLe2vzTqvswCmEAQCrq4+EMAAAQAgDN62EMAAAAAAAqCWEgRAGzC8DFjuXxpMLO3vnpk3b26Mzq9oPIQwAWF19JIQBAABCGLhpJYQBAAAAAEAtIQyEMGB+GcKIkMWLrmtra3x63vXEfDF//iyEAQCrq4+EMAAAQAgDN62EMAAAAAAAqCWEgRAGzO+kIYxoazM0Mbwyvjjc3TvIdcX/h5cn1wej0anycs/NO5rcj8eEMABgdfWREAYAAAhh4KaVEAYAAAAAALWEMBDCgPm9aAhjZ3Tty6dhit3XPioGLHYujSfFZXLep0GNx/MXwxhCGACwmvpICAMAAIQwcNNKCAMAAAAAgFpCGAhhwPxeNITxfaDitY+Ko17EKBgZ0MjHYv05fzFosbU1Pp2jYAhhAMBq6iMhDAAAEMLATSshDAAAAAAAaglhIIQB88vwwzxTMahRDGFEkKK4zuHw2vn8XYYzcv4YAaO8D3UBDQBgOfWREAYAAAhh4KaVEAYAAAAAALWEMBDCgPll+CFGrYgOmtOm7e3RmWJbWxeqiFBGObiRo11UdgIdjU4JYQDA6uojIQwAABDCwE0rIQwAAAAAAGoJYSCEAfOrGuVi3ra2NlRRsd4MYdSFLIQwAGB19ZEQBgAACGHgppUQBgAAAAAAtYQwEMKA+a06hJGjZ2QIY3h5cn3a/EIYALD8+kgIAwAAhDBw00oIAwAAAACAWkIYCGHA/FYdwsifM4RRNX8ENYQwAGB19ZEQBgAACGHgppUQBgAAAAAAtYQwEMKA+a0rhJHzD0eT++V5h8Nr54UwAGB19ZEQBgAACGHgppUQBgAAAAAAtYQwEMKA+a0rhFEc7WJ4ZfLx1tb4dDw+vDK+GMEMIQwAWF19JIQBAABCGLhpJYQBAAAAAEAtIQyEMGB+GX6Yd8qwxqIhjLAzuvZlcV3D3b2DHB0jfyeEAQDLr4+EMAAAQAgDN62EMAAAAAAAqCWEgRAGzG+dIYzBaHRquPvaR8WRL2L5GCUj/hXCAIDV1EdCGAAAIISBm1ZCGAAAAAAA1BLCQAgDWmA0OuVJAID11EdCGAAAIISBm1ZCGAAAAAAA1BLCQAgDAAD+VR8JYQAAgBAGbloJYQAAAAAAUEsIAyEMAAD4V30khAEAAEIYuGklhAEAAAAAQC0hDDbps8+/EMIAAKBR9ZEQBgAACGHgppUQBgAAAAAAtYQw2KT9Dz48enn3x/veiQAANKU+EsIAAAAhDNy0EsIAAAAAAKDWzqXxZPLm29+5y8K6HT56dHyf4sLO3jnvRAAAmkAIAwAAhDDYcFEmhAEAAAAAQNNtbY1Px2fFf/3bPTdaWKuDr+4e36fwLgQAoCmEMAAAQAiDDRdlQhgAAAAAALTBlVff+M3rb719+PU337rZwlrE39rPfv6Lf/5g763feQcCANAUQhgAACCEwYaLMiEMAAAAAABaYTQ6NRq/8YfoFB+jExw+euSmCysTo65E6Cf+5uJvzxsQAICmEMIAAAAhDDZclAlhAAAAAADQGqPRqRiVID43jmn/gw+PPvv8i6P//PK/TKYXnuJvKe6bTN58+7v4+/rh6z/5RAADAICmEcIAAAAhDDZclAlhAAAAAADQRhd29s4NL0+uv/qjn/7eZFrW9PLuj/d3Lo0nW1vj095lAAA0kRAGAAAIYbDhokwIAwAAAAAAAAAA2kEIAwAAhDDYcFEmhAEAAAAAAAAAAO0ghAEAAEIYbLgoE8IAAAAAAAAAAIB2EMIAAAAhDDZclAlhAAAAAAAAAABAOwhhAACAEAYbLsqEMAAAAAAAAAAAoB2EMAAAQAiDDRdlQhgAAAAAAAAAANAOQhgAACCEwYaLMiEMAAAAAAAAAABoByEMAAAQwmDDRZkQBgAAAAAAAAAAtIMQBgAACGGw4aJMCAMAAAAAAAAAANpBCAMAAIQw2HBRJoQBAAAAAAAAAADtIIQBAABCGGy4KBPCAAAAAAAAAACAdhDCAAAAIQw2XJQJYQAAAAAAAAAAQDsIYQAAgBAGGy7KhDAAAAAAAAAAAKAdhDAAAEAIgw0XZUIYAAAAAAAAAADQDkIYAAAghMGGizIhDAAAAAAAAAAAaAchDAAAEMJgw0WZEAYAAAAAAAAAALSDEAYAAAhhsOGiTAgDAAAAAAAAAADaQQgDAACEMNhwUSaEAQAAAAAAAAAA7SCEAQAAQhhsuCgTwgAAAAAAAAAAgHYQwgAAACEM/n97d4wqVx2GcbhJl9YFZANeAgGdMeZmVDLcGSWYQghuwSCCYOEixMI12EgE7eQWugURO0WwsFRLMYGrJxvI173nnTwPfP1pX/j/OOFRJsIAAAAAAAAAAIAOIgwAABBhEB5lIgwAAAAAAAAAAOggwgAAABEG4VEmwgAAAAAAAAAAgA4iDAAAEGEQHmUiDAAAAAAAAAAA6CDCAAAAEQbhUSbCAAAAAAAAAACADiIMAAAQYRAeZSIMAAAAAAAAAADoIMIAAAARBuFRJsIAAAAAAAAAAIAOIgwAABBhEB5lIgwAAAAAAAAAAOggwgAAABEG4VEmwgAAAAAAAAAAgA4iDAAAEGEQHmUiDAAAAAAAAAAA6CDCAAAAEQbhUSbCAAAAAAAAAACADiIMAAAQYRAeZSIMAAAAAAAAAADoIMIAAAARBuFRJsIAAAAAAAAAAIAOIgwAABBhEB5lIgwAAAAAAAAAAOggwgAAABEG4VEmwgAAAAAAAAAAgA4iDAAAEGEQHmUiDAAAAAAAAAAA6CDCAAAAEQbhUSbCAAAAAAAAAACADiIMAAAQYRAeZSIMAAAAAAAAAADoIMIAAAARBuFRJsIAAAAAAAAAAIAOIgwAABBhEB5lIgwAAAAAAAAAAOggwgAAABEG4VEmwgAAAAAAAAAAgA4iDAAAEGEQHmUiDAAAAAAAAAAA6CDCAAAAEQbhUSbCAAAAAAAAAACADiIMAAAQYRAeZSIMAAAAAAAAAADoIMIAAAARBuFRJsIAAAAAAAAAAIAOIgwAABBhEB5lIgwAAAAAAAAAAOggwgAAABEG4VEmwgAAAAAAAAAAgA4iDAAAEGEQHmUiDAAAAAAAAAAA6CDCAAAAEQbhUSbCAAAAAAAAAACADiIMAAAQYRAeZSIMAAAAAAAAAADoIMIAAAARBuFRJsIAAAAAAAAAAIAOIgwAABBhEB5lIgwAAAAAAAAAAOggwgAAABEG4VEmwgAAAAAAAAAAgA4iDAAAEGEQHmUiDAAAAAAAAAAA6CDCAAAAEQbhUSbCAAAAAAAAAACADiIMAAAQYRAeZSIMAAAAAAAAAADoIMIAAAARBuFRJsIAAAAAAAAAAIAOIgwAABBhEB5lIgwAAAAAAAAAAOggwgAAABEG4VEmwgAAAAAAAAAAgA4iDAAAEGEQHmUiDAAAAAAAAAAA6CDCAAAAEQbhUSbCAAAAAAAAAACADiIMAAAQYRAeZSIMAAAAAAAAAADoIMIAAAARBuFRJsIAAAAAAAAAAIAOIgwAABBhEB5lIgwAAAAAAAAAAOggwgAAABEG4VEmwgAAAAAAAAAAgA4iDAAAEGEQHmUiDAAAAAAAAAAA6CDCAAAAEQbhUSbCAAAAAAAAAACADiIMAAAQYRAeZSIMAAAAAAAAAADoIMIAAAARBuFRJsIAAAAAAAAAAIAOIgwAABBhEB5lIgwAAAAAAAAAAOggwgAAABEG4VEmwgAAAAAAAAAAgA4iDAAAEGEQHmUiDAAAAAAAAAAA6CDCAAAAEQbhUSbCAAAAAAAAAACADiIMAAAQYRAeZSIMAAAAAAAAAADoIMIAAAARBuFRJsIAAAAAAAAAAIAOIgwAABBhEB5lIgwAAAAAAAAAAOggwgAAABEG4VEmwgAAAAAAAAAAgA4iDAAAEGEQHmUiDAAAAAAAAAAA6CDCAAAAEQbhUSbCAAAAAAAAAACADiIMAAAQYRAeZSIMAAAAAAAAAADoIMIAAAARBuFRJsIAAAAAAAAAAIAOIgwAABBhEB5lIgwAAAAAAAAAAOggwgAAABEG4VEmwgAAAAAAAAAAgA4iDAAAEGEQHmUiDAAAAAAAAAAA6CDCAAAAEQbhUSbCAAAAAAAAAACADiIMAAAQYRAeZSIMAAAAAAAAAADoIMIAAAARBuFRJsIAAAAAAAAAAIAOIgwAABBhEB5lIgwAAAAAAAAAAOggwgAAABEG4VEmwgAAAAAAAAAAgA4iDAAAEGEQHmUiDAAAAAAAAAAA6CDCAAAAEQbhUSbCAAAAAAAAAACADiIMAAAQYRAeZSIMAAAAAAAAAADoIMIAAAARBuFRJsIAAAAAAAAAAIAOIgwAABBhEB5lIgwAAAAAAAAAAOiwvXN4JMIAAAARBiEiDAAAAAAAAAAA6LHZHS+XEGPVH+mJHAAAiDBOdpTd3h8O7z78V4QBAAAAAAAAAAArt9tdW97R3Nxc3Fj1d3oiBwAAIoxTdXa2v74Ms19+/U2EAQAAAAAAAAAAK7Y937+2vKNZ/Yd6IgcAACKMU3Z+7/4Xbz94+OTPv/4WYQAAAAAAAAAAwArdurV7abM7Xr569/jl6j/WEzkAABBhnLTd7tpuf/+HDz765J8ff/r56snTpyIMAAAAAAAAAABYie32+PJ2d/hjiTCWtz6r/2BP5AAAQIRx8v4fZ29ePHi8xA7Lffjxp1dfff3t1XeX36/ilm/a3r347JXz4/vOOeecc84555xzzjnnnHPOOeecc86d+m3vHB4tf71Y4otnb2fOD59XBBgiDAAAEGG8aG5uLm4sI+7eO+99s5Z7/a3j79s3Lh4vw9I555xzzjnnnHPOOeecc84555xzzrkX4ZY3PJvb+8PZ2f561QMkT+QAAECEAQAAAAAAAAAAwIAncgAAIMIAAAAAAAAAAABgwBM5AAAQYQAAAAAAAAAAADDgiRwAAIgwAAAAAAAAAAAAGPBEDgAARBgAAAAAAAAAAAAMeCIHAAAiDAAAAAAAAAAAAAY8kQMAABEGAAAAAAAAAAAAA57IAQCACAMAAAAAAAAAAIABT+QAAECEAQAAAAAAAAAAwIAncgAAIMIAAAAAAAAAAABgwBM5AAAQYQAAAAAAAAAAADDgiRwAAIgwAAAAAAAAAAAAGPBEDgAARBgAAAAAAAAAAAAMeCIHAAAiDAAAAAAAAAAAAAY8kQMAABEGAAAAAAAAAAAAA57IAQCACAMAAAAAAAAAAIABT+QAAECEAQAAAAAAAAAAwIAncgAAIMIAAAAAAAAAAABgwBM5AAAQYQAAAAAAAAAAADDgiRwAAIgwAAAAAAAAAAAAGPBEDgAARBgAAAAAAAAAAAAMeCIHAAAiDAAAAAAAAAAAAAY8kQMAABEGAAAAAAAAAAAAA57IAQCACAMAAAAAAAAAAIABT+QAAECEAQAAAAAAAAAAwIAncgAAIMIAAAAAAAAAAABgwBM5AAAQYQAAAAAAAAAAADDgiRwAAIgwAAAAAAAAAAAAGPBEDgAARBgAAAAAAAAAAAAMeCIHAAAiDAAAAAAAAAAAAAY8kQMAABEGAAAAAAAAAAAAA57IAQCACAMAAAAAAAAAAIABT+QAAECEAQAAAAAAAAAAwIAncgAAIMIAAAAAAAAAAABgwBM5AAAQYQAAAAAAAAAAADDgiRwAAIgwAAAAAAAAAAAAGPBEDgAARBgAAAAAAAAAAAAMeCIHAAAiDAAAAAAAAAAAAAY8kQMAABEGAAAAAAAAAAAAz/cfEW++ULbnUb8AAAAASUVORK5CYII=;" vertex="1" parent="1">
          <mxGeometry x="-350" y="310" width="3169" height="1700" as="geometry" />
        </mxCell>
      </root>
    </mxGraphModel>
  </diagram>
</mxfile>
